TexturaLiberaCond-Light.sfdir
StartChar: exclam
Encoding: 33 33 1
Width: 240
Flags: W
HStem: 617 20G<140 177>
VStem: 75 90<266.14 539.974> 83 74<215 413.987>
LayerCount: 2
Back
SplineSet
105 30 m 25
 135 0 l 1049
100 560 m 1
 100 560 111 524 112 500 c 24
 118 381 120 195 120 195 c 1
 120 195 122 381 128 500 c 24
 129.5 539 140 600 140 600 c 9
 100 560 l 1
EndSplineSet
Fore
SplineSet
63 540 m 1xc0
 160 637 l 1
 177 620 l 1
 177 620 167 559 165 520 c 0xc0
 159 401 157 215 157 215 c 1
 100 158 l 1
 83 175 l 1xa0
 83 175 81 361 75 480 c 0
 74 504 63 540 63 540 c 1xc0
68 10 m 1
 125 67 l 1
 172 20 l 1
 115 -37 l 1
 68 10 l 1
EndSplineSet
EndChar
StartChar: quotedbl
Encoding: 34 34 2
Width: 400
Flags: W
HStem: 468 124
VStem: 68 244
LayerCount: 2
Back
SplineSet
265 565 m 25
 285 545 l 1
 285 525 l 25
 255 495 l 1049
105 565 m 25
 125 545 l 1
 125 525 l 25
 95 495 l 1049
EndSplineSet
Fore
SplineSet
78 549 m 1
 121 592 l 1
 152 561 l 1
 152 541 l 1
 79 468 l 1
 68 479 l 1
 98 509 l 1
 98 529 l 1
 78 549 l 1
238 549 m 1
 281 592 l 1
 312 561 l 1
 312 541 l 1
 239 468 l 1
 228 479 l 1
 258 509 l 1
 258 529 l 1
 238 549 l 1
EndSplineSet
EndChar
StartChar: numbersign
Encoding: 35 35 3
Width: 560
Flags: W
HStem: -187 21G<3 40 163 200> 163 74<60 129 215 289 375 500> 363 74<60 204 290 364 450 500>
LayerCount: 2
Back
SplineSet
200 -150 m 25
 520 700 l 1049
40 -150 m 25
 360 700 l 1049
40 200 m 25
 520 200 l 1049
40 400 m 25
 520 400 l 1049
EndSplineSet
Fore
SplineSet
3 380 m 1
 60 437 l 1
 232 437 l 1
 323 680 l 1
 380 737 l 1
 397 720 l 1
 290 437 l 1
 392 437 l 1
 483 680 l 1
 540 737 l 1
 557 720 l 1
 450 437 l 1
 540 437 l 1
 557 420 l 1
 500 363 l 1
 423 363 l 1
 375 237 l 1
 540 237 l 1
 557 220 l 1
 500 163 l 1
 347 163 l 1
 237 -130 l 1
 180 -187 l 1
 163 -170 l 1
 289 163 l 1
 187 163 l 1
 77 -130 l 1
 20 -187 l 1
 3 -170 l 1
 129 163 l 1
 20 163 l 1
 3 180 l 1
 60 237 l 1
 156 237 l 1
 204 363 l 1
 20 363 l 1
 3 380 l 1
215 237 m 1
 316 237 l 1
 364 363 l 1
 263 363 l 1
 215 237 l 1
EndSplineSet
EndChar
StartChar: dollar
Encoding: 36 36 4
Width: 480
Flags: W
HStem: -177 21G<213 244> 23 54<77.0729 211.262> 523 54<268.738 402.883> 607 20G<156 213 436 467>
VStem: 53 54<364 504> 213 54<-134 -14 64 263 337 536 614 684> 373 54<96 236>
CounterMasks: 1 0e
LayerCount: 2
Back
SplineSet
240 700 m 25
 240 -150 l 1049
440 600 m 17
 440 600 410 550 380 550 c 24
 292 550 160 600 160 600 c 9
 80 520 l 1
 80 340 l 1
 400 260 l 1
 400 80 l 1
 320 0 l 17
 320 0 188 50 100 50 c 24
 70 50 40 0 40 0 c 1025
EndSplineSet
Fore
SplineSet
456 627 m 1
 467 616 l 1
 467 616 457 599 443 585 c 2
 401 543 l 2
 391 533 377 523 364 523 c 0
 334 523 300 528 267 536 c 1
 267 324 l 1
 416 287 l 1
 427 276 l 1
 427 96 l 1
 304 -27 l 1
 304 -27 290 -21 267 -14 c 1
 267 -134 l 1
 224 -177 l 1
 213 -166 l 1
 213 2 l 1
 172 13 123 23 84 23 c 0
 79 23 73 21 69 19 c 0
 68 17 67 16 67 16 c 1
 24 -27 l 1
 13 -16 l 2
 13 -16 22 0 36 14 c 2
 37 15 l 2
 79 57 l 2
 89 67 103 77 116 77 c 0
 146 77 180 72 213 64 c 1
 213 276 l 1
 64 313 l 1
 53 324 l 1
 53 504 l 1
 176 627 l 1
 176 627 190 621 213 614 c 1
 213 684 l 1
 256 727 l 1
 267 716 l 1
 267 598 l 1
 308 587 357 577 396 577 c 0
 401 577 406 578 411 581 c 0
 412 583 413 584 413 584 c 1
 456 627 l 1
213 551 m 1
 173 563 144 573 144 573 c 2
 144 573 111 540 107 536 c 2
 107 364 l 1
 213 337 l 1
 213 551 l 1
267 49 m 1
 307 37 336 27 336 27 c 2
 373 64 l 1
 373 236 l 1
 267 263 l 1
 267 49 l 1
EndSplineSet
EndChar
StartChar: percent
Encoding: 37 37 5
Width: 560
Flags: W
HStem: -187 21G<3 40 360 400>
VStem: 43 74<415.157 600> 203 74<450 634.843> 283 74<-84.8426 100> 443 74<-50 134.843>
LayerCount: 2
Back
SplineSet
400 200 m 25
 320 120 l 25
 320 -70 l 25
 400 -150 l 25
 480 -70 l 25
 480 120 l 25
 400 200 l 25
40 -150 m 25
 520 700 l 1049
160 700 m 25
 80 620 l 25
 80 430 l 25
 160 350 l 25
 240 430 l 25
 240 620 l 25
 160 700 l 25
EndSplineSet
Fore
SplineSet
140 663 m 1
 117 640 l 1
 117 450 l 2
 117 416 162 405 180 387 c 1
 203 410 l 1
 203 600 l 2
 203 634 158 645 140 663 c 1
43 600 m 1
 180 737 l 1
 277 640 l 1
 277 450 l 1
 140 313 l 1
 43 410 l 1
 43 600 l 1
20 -187 m 1
 3 -170 l 1
 483 680 l 1
 540 737 l 1
 557 720 l 1
 77 -130 l 1
 20 -187 l 1
380 163 m 1
 357 140 l 1
 357 -50 l 2
 357 -84 402 -95 420 -113 c 1
 443 -90 l 1
 443 100 l 2
 443 134 398 145 380 163 c 1
283 100 m 1
 420 237 l 1
 517 140 l 1
 517 -50 l 1
 380 -187 l 1
 283 -90 l 1
 283 100 l 1
EndSplineSet
EndChar
StartChar: ampersand
Encoding: 38 38 6
Width: 400
Flags: W
HStem: 323 54<176 213 267 304> 607 20G<156 208>
VStem: 53 54<70 254 420 504> 213 54<64 323 377 530>
LayerCount: 2
Back
SplineSet
160 350 m 25
 320 350 l 1049
360 80 m 1
 280 0 l 1
 240 40 l 1
 240 550 l 9
 160 600 l 1
 80 520 l 17
 80 400 l 1
 160 350 l 1
 80 270 l 25
 79 50 l 25
 160 0 l 25
 240 80 l 1041
EndSplineSet
Fore
SplineSet
213 42 m 1
 144 -27 l 1
 63 23 l 1
 52 34 l 1
 53 254 l 1
 131 332 l 1
 64 373 l 1
 53 384 l 1
 53 504 l 1
 176 627 l 1
 256 577 l 1
 267 566 l 1
 267 377 l 1
 336 377 l 1
 347 366 l 1
 304 323 l 1
 267 323 l 1
 267 56 l 1
 296 27 l 1
 376 107 l 1
 387 96 l 1
 264 -27 l 1
 213 24 l 1
 213 42 l 1
213 323 m 1
 144 323 l 1
 107 286 l 1
 106 70 l 1
 176 27 l 2
 176 27 209 60 213 64 c 2
 213 323 l 1
213 377 m 1
 213 530 l 1
 144 573 l 2
 144 573 111 540 107 536 c 2
 107 420 l 1
 176 377 l 1
 213 377 l 1
EndSplineSet
EndChar
StartChar: quotesingle
Encoding: 39 39 7
Width: 240
Flags: W
HStem: 441 178
VStem: 51 118
LayerCount: 2
Back
SplineSet
102.5 582.5 m 25
 132.5 552.5 l 1
 132.5 522.5 l 25
 87.5 477.5 l 1049
EndSplineSet
Fore
SplineSet
66 563 m 1
 122 619 l 1
 169 572 l 1
 169 542 l 1
 68 441 l 1
 51 458 l 1
 96 503 l 1
 96 533 l 1
 66 563 l 1
EndSplineSet
EndChar
StartChar: parenleft
Encoding: 40 40 8
Width: 200
Flags: W
HStem: -187 21G<123 160>
VStem: 3 74<92.7362 457.264>
LayerCount: 2
Back
SplineSet
160 700 m 17
 160 700 40 575 40 275 c 0
 40 -25 160 -150 160 -150 c 1033
EndSplineSet
Fore
SplineSet
180 737 m 1
 197 720 l 1
 197 720 77 595 77 295 c 0
 77 -5 197 -130 197 -130 c 1
 140 -187 l 1
 123 -170 l 1
 123 -170 3 -45 3 255 c 0
 3 555 123 680 123 680 c 1
 180 737 l 1
EndSplineSet
EndChar
StartChar: asterisk
Encoding: 42 42 10
Width: 400
Flags: W
HStem: 517 20G<80 131.5 308.308 357> 617 20G<200 237>
VStem: 163 74<270 353 497 580>
LayerCount: 2
Back
SplineSet
80 350 m 25
 320 500 l 1049
200 600 m 25
 200 250 l 1049
80 500 m 25
 320 350 l 1049
EndSplineSet
Fore
SplineSet
43 480 m 1
 100 537 l 1
 163 497 l 1
 163 580 l 1
 220 637 l 1
 237 620 l 1
 237 472 l 1
 340 537 l 1
 357 520 l 1
 300 463 l 1
 259 437 l 1
 340 387 l 1
 357 370 l 1
 300 313 l 1
 237 353 l 1
 237 270 l 1
 180 213 l 1
 163 230 l 1
 163 378 l 1
 60 313 l 1
 43 330 l 1
 100 387 l 1
 141 413 l 1
 60 463 l 1
 43 480 l 1
EndSplineSet
EndChar
StartChar: comma
Encoding: 44 44 12
Width: 240
Flags: W
HStem: -77 124
VStem: 68 84
LayerCount: 2
Back
SplineSet
105 20 m 25
 125 0 l 1
 125 -20 l 25
 95 -50 l 1049
EndSplineSet
Fore
SplineSet
78 4 m 1
 121 47 l 1
 152 16 l 1
 152 -4 l 1
 79 -77 l 1
 68 -66 l 1
 98 -36 l 1
 98 -16 l 1
 78 4 l 1
EndSplineSet
EndChar
StartChar: slash
Encoding: 47 47 15
Width: 400
Flags: W
HStem: -187 21G<3 40>
LayerCount: 2
Back
SplineSet
40 -150 m 25
 360 700 l 1049
EndSplineSet
Fore
SplineSet
20 -187 m 1
 3 -170 l 1
 323 680 l 1
 380 737 l 1
 397 720 l 1
 77 -130 l 1
 20 -187 l 1
EndSplineSet
EndChar
StartChar: zero
Encoding: 48 48 16
Width: 320
Flags: W
HStem: 417 20G<160 220> 417 20G<160 220>
VStem: 43 74<68 300> 203 74<100 332>
LayerCount: 2
Back
SplineSet
160 400 m 1
 80 320 l 1
 80 40 l 25
 160 0 l 1
 240 80 l 1
 240 360 l 25
 160 400 l 1
EndSplineSet
Fore
SplineSet
140 363 m 1x30
 117 340 l 1
 117 68 l 1
 180 37 l 2
 180 37 200 57 203 60 c 2
 203 332 l 1
 140 363 l 1x30
43 300 m 1
 180 437 l 1xb0
 260 397 l 1
 277 380 l 1
 277 100 l 1
 140 -37 l 1
 60 3 l 1
 43 20 l 1
 43 300 l 1
EndSplineSet
Substitution2: "Subscript forms-1" zero.inferior
Substitution2: "Superscript forms-1" zero.superior
EndChar
StartChar: one
Encoding: 49 49 17
Width: 320
Flags: W
HStem: 407 20G<136 176> 407 20G<136 176>
VStem: 133 54<58 356>
LayerCount: 2
Back
SplineSet
100 40 m 25
 180 0 l 1
 220 40 l 1049
180 360 m 25
 140 400 l 25
 100 360 l 1049
160 380 m 9
 160 20 l 1025
EndSplineSet
Fore
SplineSet
73 24 m 1xa0
 116 67 l 1
 133 58 l 1
 133 364 l 1
 124 373 l 1
 84 333 l 1
 73 344 l 1
 156 427 l 1
 176 407 l 1
 187 396 l 1
 207 376 l 1
 187 356 l 1
 187 36 l 1
 184 33 l 1
 196 27 l 2
 196 27 231 62 236 67 c 1
 247 56 l 1
 164 -27 l 1
 84 13 l 1
 73 24 l 1xa0
EndSplineSet
Substitution2: "Subscript forms-1" one.inferior
Substitution2: "Superscript forms-1" one.superior
EndChar
StartChar: two
Encoding: 50 50 18
Width: 320
Flags: W
HStem: 13 74<139.898 226> 417 20G<120 212> 417 20G<120 212>
VStem: 203 74<295 324>
LayerCount: 2
Back
SplineSet
80 350 m 1
 120 400 l 1
 160 400 l 1
 240 350 l 1
 240 275 l 1
 80 75 l 25
 80 0 l 1
 80 0 130 50 200 50 c 3
 228 50 260 0 261 0 c 1025
EndSplineSet
Fore
SplineSet
60 313 m 1xd0
 43 330 l 1
 83 380 l 1
 140 437 l 1
 180 437 l 1
 260 387 l 1
 277 370 l 1
 277 295 l 1
 117 95 l 1
 117 51 l 1
 138 66 175 87 220 87 c 0
 232 87 245 77 256 66 c 2
 273 49 l 2
 285 37 295 22 297 20 c 2
 298 20 l 1
 241 -37 l 2
 224 -20 l 2
 223 -19 217 -10 208 0 c 0
 199 7 189 13 180 13 c 0
 110 13 60 -37 60 -37 c 1
 43 -20 l 1
 43 55 l 1
 203 255 l 1
 203 324 l 1
 140 363 l 1
 110 363 l 1
 60 313 l 1xd0
EndSplineSet
Substitution2: "Subscript forms-1" two.inferior
Substitution2: "Superscript forms-1" two.superior
EndChar
StartChar: three
Encoding: 51 51 19
Width: 320
Flags: W
HStem: -177 54<98.3007 154.172> 407 20G<116 200> 407 20G<116 200>
VStem: 193 54<246 333> 213 54<-144 129.693>
LayerCount: 2
Back
SplineSet
80 350 m 1
 120 400 l 1
 160 400 l 1
 220 350 l 1
 220 230 l 1
 140 150 l 1049
60 -200 m 25
 83 -180 90 -150 120 -150 c 27
 157 -150 200 -200 200 -200 c 9
 240 -160 l 1
 240 115 l 9
 180 175 l 1049
EndSplineSet
Fore
SplineSet
33 -216 m 1xc8
 42 -207 l 2
 51 -197 57 -186 65 -178 c 2
 108 -135 l 2
 115 -128 124 -123 136 -123 c 0
 163 -123 193 -150 207 -164 c 2
 213 -170 l 1
 213 99 l 2xc8
 213 126 178 134 164 148 c 2
 157 156 l 1
 124 123 l 1
 113 134 l 1
 193 214 l 1
 193 333 l 1
 144 373 l 1
 113 373 l 1
 107 366 l 1
 64 323 l 1
 53 334 l 1
 93 384 l 1
 136 427 l 1
 176 427 l 1
 236 377 l 1
 247 366 l 1
 247 246 l 1xd0
 199 198 l 1
 267 131 l 1
 267 -144 l 1
 184 -227 l 1
 173 -216 l 1
 173 -216 172 -214 170 -212 c 0
 154 -197 128 -177 104 -177 c 0
 100 -177 97 -178 93 -179 c 2
 93 -179 93 -179 92 -180 c 2
 91 -181 l 2
 49 -223 l 2
 48 -224 45 -226 44 -227 c 2
 33 -216 l 1xc8
EndSplineSet
Substitution2: "Subscript forms-1" three.inferior
Substitution2: "Superscript forms-1" three.superior
EndChar
StartChar: four
Encoding: 52 52 20
Width: 320
Flags: W
HStem: -177 21G<204 234> -27 54<248.812 304> -2 54<107.613 193> 407 20G<156 187 216 247> 407 20G<156 187 216 247>
VStem: 53 54<38 184> 193 54<-124 -11 52 357>
LayerCount: 2
Back
SplineSet
210 -130 m 25
 230 -150 l 1049
220 -140 m 1
 220 400 l 1
 220 400 207 375 192 375 c 27
 176 375 160 400 160 400 c 1
 80 200 l 1
 80 0 l 1
 80 0 91 25 160 25 c 3
 269 25 319 0 320 0 c 1025
EndSplineSet
Fore
SplineSet
162 354 m 1xa6
 107 216 l 1
 107 38 l 1
 118 45 139 52 176 52 c 0
 182 52 187 52 193 52 c 1
 193 357 l 2
 192 356 193 357 192 356 c 0
 187 352 182 348 176 348 c 0
 171 348 166 351 162 354 c 1xa6
247 48 m 2
 249 48 251 47 253 47 c 0
 309 40 335 27 336 27 c 2
 347 16 l 1
 304 -27 l 2xd6
 303 -27 286 -18 247 -11 c 1
 247 -124 l 1
 257 -134 l 1
 214 -177 l 1
 204 -167 l 1
 193 -156 l 1
 183 -146 l 1
 193 -136 l 1
 193 -4 l 2
 192 -4 191 -3 190 -3 c 0
 176 -2 161 -2 144 -2 c 0xa6
 105 -2 85 -10 74 -17 c 2
 64 -27 l 1
 53 -16 l 1
 53 184 l 1
 133 384 l 1
 176 427 l 1
 187 416 l 2
 187 416 189 412 192 408 c 0
 196 405 203 402 208 402 c 0
 209 402 209 402 211 402 c 2
 236 427 l 1xd6
 247 416 l 1
 247 48 l 2
EndSplineSet
Substitution2: "Subscript forms-1" four.inferior
Substitution2: "Superscript forms-1" four.superior
EndChar
StartChar: five
Encoding: 53 53 21
Width: 320
Flags: W
HStem: -177 54<77.0729 121.518> 323 54<138.627 199.857> 407 20G<76 136 236 267> 407 20G<76 136 236 267>
VStem: 53 54<159 345> 213 54<-104 79>
LayerCount: 2
Back
SplineSet
240 400 m 17
 240 400 202 350 180 350 c 0
 145 350 80 400 80 400 c 1
 80 125 l 1
 160 175 l 1
 240 95 l 1
 240 -120 l 17
 160 -200 l 1
 160 -200 130 -150 100 -150 c 24
 70 -150 40 -200 40 -200 c 1025
EndSplineSet
Fore
SplineSet
256 427 m 1xec
 267 416 l 1
 267 416 256 402 243 389 c 2
 201 346 l 2
 189 334 174 323 164 323 c 0
 148 323 126 334 107 345 c 1
 107 159 l 1
 176 202 l 1
 267 111 l 1
 267 -104 l 1
 144 -227 l 1
 133 -216 l 1
 133 -216 126 -203 115 -191 c 0
 106 -183 95 -177 84 -177 c 0
 79 -177 73 -179 69 -181 c 0
 68 -183 67 -184 67 -184 c 1
 24 -227 l 1
 13 -216 l 2
 13 -216 22 -200 36 -186 c 2
 37 -185 l 2
 79 -143 l 2
 89 -133 103 -123 116 -123 c 0
 129 -123 141 -132 151 -142 c 0
 152 -143 l 2
 163 -154 l 2
 169 -160 174 -166 178 -171 c 1
 213 -136 l 1
 213 79 l 1
 144 148 l 1
 64 98 l 1
 53 109 l 1
 53 384 l 1
 96 427 l 1
 96 427 161 377 196 377 c 0
 201 377 205 379 212 383 c 0
 213 384 l 1
 256 427 l 1xec
EndSplineSet
Substitution2: "Subscript forms-1" five.inferior
Substitution2: "Superscript forms-1" five.superior
EndChar
StartChar: six
Encoding: 54 54 22
Width: 320
Flags: W
HStem: 407 20G<156 196> 407 20G<156 196> 548 54<147.024 220.919> 607 20G<136 167.5 255 268>
VStem: 53 54<96 336 358 524> 213 54<96 304>
LayerCount: 2
Back
SplineSet
80 320 m 25
 160 400 l 25
 240 320 l 25
 240 80 l 25
 160 0 l 25
 80 80 l 1
 80 540 l 1
 140 600 l 25
 163 590 170 575 200 575 c 3
 222 575 225 590 241 600 c 1049
EndSplineSet
Fore
SplineSet
107 336 m 1x3c
 107 96 l 1
 176 27 l 1
 213 64 l 1
 213 304 l 1
 144 373 l 1
 107 336 l 1x3c
107 358 m 1
 176 427 l 1xbc
 267 336 l 1
 267 96 l 1
 144 -27 l 1
 53 64 l 1
 53 524 l 1
 156 627 l 1
 179 617 186 602 216 602 c 0
 228 602 234 606 239 611 c 2
 245 618 l 2
 246 618 l 0
 249 621 253 624 257 627 c 1
 268 616 l 1
 225 573 l 2
 222 571 220 569 217 566 c 2
 210 560 l 2
 204 554 197 548 184 548 c 0
 154 548 147 563 124 573 c 1
 107 556 l 1
 107 358 l 1
EndSplineSet
Substitution2: "Subscript forms-1" six.inferior
Substitution2: "Superscript forms-1" six.superior
EndChar
StartChar: seven
Encoding: 55 55 23
Width: 320
Flags: W
HStem: 123 54<101.589 142.766> 123 29<218.577 245> 323 54<115.836 221.675> 407 20G<56 124 256 307> 407 20G<56 124 256 307>
VStem: 133 54<-115 97.7798>
LayerCount: 2
Back
SplineSet
150 -120 m 25
 170 -140 l 1049
60 400 m 1
 60 400 110 350 180 350 c 3
 223 350 280 400 280 400 c 1
 280 400 160 276 160 0 c 3
 160 -32 160 -130 160.599609376 -130 c 1025
80 125 m 25
 80 125 118 150 140 150 c 24
 175 150 165 125 200 125 c 24
 222 125 260 150 261 150 c 1049
EndSplineSet
Fore
SplineSet
53 109 m 1xa4
 96 152 l 1x64
 96 152 133 177 155 177 c 1xa4
 174 255 202 310 223 343 c 1
 205 333 183 323 164 323 c 0
 94 323 44 373 44 373 c 1
 33 384 l 1
 76 427 l 1
 76 427 126 377 196 377 c 0
 239 377 296 427 296 427 c 1
 307 416 l 1
 307 416 228 334 198 155 c 1
 202 153 208 152 216 152 c 0x74
 238 152 276 177 277 177 c 2xa4
 288 166 l 1
 245 123 l 2x64
 244 123 213 103 191 99 c 1
 189 73 187 45 187 16 c 0
 187 -16 187 -113 187 -114 c 2
 187 -115 l 1
 197 -124 l 1
 154 -167 l 1
 123 -136 l 1
 133 -125 l 1
 133 -95 133 -39 133 -16 c 0
 133 34 137 79 143 119 c 1
 138 121 133 123 124 123 c 0
 102 123 64 98 64 98 c 1
 53 109 l 1xa4
145 -157 m 1
 145 -157 l 1
EndSplineSet
Substitution2: "Subscript forms-1" seven.inferior
Substitution2: "Superscript forms-1" seven.superior
EndChar
StartChar: eight
Encoding: 56 56 24
Width: 320
Flags: W
HStem: 607 20G<156 196>
VStem: 53 54<64 229 386 504> 213 54<96 264 421 536>
LayerCount: 2
Back
SplineSet
160 600 m 25
 80 520 l 25
 80 365 l 25
 160 325 l 25
 240 405 l 25
 240 520 l 25
 160 600 l 25
160 325 m 25
 80 245 l 25
 80 80 l 25
 160 0 l 25
 240 80 l 25
 240 285 l 25
 160 325 l 25
EndSplineSet
Fore
SplineSet
144 573 m 1
 107 536 l 1
 107 386 l 1
 176 352 l 2
 176 352 209 385 213 389 c 2
 213 504 l 2
 213 542 164 553 144 573 c 1
53 504 m 1
 176 627 l 1
 267 536 l 1
 267 421 l 1
 191 344 l 1
 256 312 l 1
 267 301 l 1
 267 96 l 1
 144 -27 l 1
 53 64 l 1
 53 229 l 1
 129 306 l 1
 64 338 l 1
 53 349 l 1
 53 504 l 1
144 298 m 1
 107 261 l 1
 107 96 l 2
 107 58 156 47 176 27 c 1
 213 64 l 1
 213 264 l 1
 144 298 l 1
EndSplineSet
Substitution2: "Subscript forms-1" eight.inferior
Substitution2: "Superscript forms-1" eight.superior
EndChar
StartChar: colon
Encoding: 58 58 26
Width: 240
Flags: W
VStem: 68 104
LayerCount: 2
Back
SplineSet
105 345 m 25
 135 315 l 1049
105 30 m 25
 135 0 l 1049
EndSplineSet
Fore
SplineSet
68 10 m 1
 125 67 l 1
 172 20 l 1
 115 -37 l 1
 68 10 l 1
68 325 m 1
 125 382 l 1
 172 335 l 1
 115 278 l 1
 68 325 l 1
EndSplineSet
EndChar
StartChar: semicolon
Encoding: 59 59 27
Width: 240
Flags: W
VStem: 68 89
LayerCount: 2
Back
SplineSet
105 20 m 25
 125 0 l 1
 125 -20 l 25
 95 -50 l 1049
110 340 m 25
 130 320 l 1049
EndSplineSet
Fore
SplineSet
83 324 m 1
 126 367 l 1
 157 336 l 1
 114 293 l 1
 83 324 l 1
78 4 m 1
 121 47 l 1
 152 16 l 1
 152 -4 l 1
 79 -77 l 1
 68 -66 l 1
 98 -36 l 1
 98 -16 l 1
 78 4 l 1
EndSplineSet
EndChar
StartChar: less
Encoding: 60 60 28
Width: 480
Flags: W
HStem: 517 20G<388 437>
LayerCount: 2
Back
SplineSet
400 500 m 25
 80 300 l 25
 400 100 l 1049
EndSplineSet
Fore
SplineSet
437 520 m 1
 380 463 l 1
 139 312 l 1
 420 137 l 1
 437 120 l 1
 380 63 l 1
 60 263 l 1
 43 280 l 1
 100 337 l 1
 420 537 l 1
 437 520 l 1
EndSplineSet
EndChar
StartChar: equal
Encoding: 61 61 29
Width: 480
Flags: W
HStem: 173 54<96 384> 373 54<96 384>
LayerCount: 2
Back
SplineSet
80 200 m 25
 400 200 l 1049
80 400 m 25
 400 400 l 1049
EndSplineSet
Fore
SplineSet
53 384 m 1
 96 427 l 1
 416 427 l 1
 427 416 l 1
 384 373 l 1
 64 373 l 1
 53 384 l 1
53 184 m 1
 96 227 l 1
 416 227 l 1
 427 216 l 1
 384 173 l 1
 64 173 l 1
 53 184 l 1
EndSplineSet
EndChar
StartChar: question
Encoding: 63 63 31
Width: 320
Flags: W
HStem: 617 20G<140 200>
VStem: 43 74<470 520> 123 74<215 300> 203 74<420 522>
CounterMasks: 1 70
LayerCount: 2
Back
SplineSet
80 450 m 25
 80 540 l 25
 140 600 l 25
 240 550 l 25
 240 400 l 25
 160 320 l 25
 160 195 l 1049
145 30 m 25
 175 0 l 1049
EndSplineSet
Fore
SplineSet
108 10 m 1
 165 67 l 1
 212 20 l 1
 155 -37 l 1
 108 10 l 1
60 413 m 1
 43 430 l 1
 43 520 l 1
 160 637 l 1
 260 587 l 1
 277 570 l 1
 277 420 l 1
 197 340 l 1
 197 215 l 1
 140 158 l 1
 123 175 l 1
 123 300 l 1
 203 380 l 1
 203 522 l 1
 120 563 l 1
 117 560 l 1
 117 470 l 1
 60 413 l 1
EndSplineSet
EndChar
StartChar: at
Encoding: 64 64 32
Width: 640
Flags: W
HStem: -187 74<249.987 396.357> 442 20G<320 357 400 437> 563 74<281.299 423.573>
VStem: 43 74<76.6437 351.903> 203 74<76.4784 325> 363 74<67 71 105 367> 523 74<242.352 434.073>
LayerCount: 2
Back
SplineSet
520 -50 m 1
 520 -50 440 -150 320 -150 c 11
 146 -150 80 51 80 225 c 27
 80 408 177 600 360 600 c 27
 493 600 560 458 560 325 c 27
 560 216 460 65 460 65 c 26
 420 25 l 1
 400 45 l 1
 400 425 l 1
 400 425 382 393 360 393 c 0
 338 393 320 425 320 425 c 9
 240 345 l 1
 240 85 l 17
 300 25 l 1
 400 125 l 1049
EndSplineSet
Fore
SplineSet
363 367 m 1
 356 361 348 356 340 356 c 0
 330 356 322 362 315 369 c 2
 298 386 l 1
 277 365 l 1
 277 105 l 2
 277 82 308 74 320 62 c 1
 363 105 l 1
 363 367 l 1
363 71 m 1
 280 -12 l 1
 203 65 l 1
 203 325 l 1
 340 462 l 1
 357 445 l 2
 357 445 359 441 363 436 c 0
 368 433 374 430 380 430 c 0
 384 430 386 430 390 432 c 2
 420 462 l 1
 437 445 l 1
 437 67 l 1
 464 111 523 221 523 305 c 0
 523 385 500 467 452 521 c 1
 423 547 385 563 340 563 c 0
 286 563 239 546 200 517 c 1
 146 445 117 344 117 245 c 0
 117 133 144 9 210 -64 c 1
 244 -94 287 -113 340 -113 c 0
 415 -113 474 -74 508 -45 c 2
 540 -13 l 1
 557 -30 l 1
 557 -30 551 -37 542 -46 c 2
 486 -102 l 1
 485 -103 l 2
 456 -132 389 -187 300 -187 c 0
 243 -187 197 -165 162 -130 c 2
 145 -113 l 2
 73 -41 43 88 43 205 c 0
 43 319 81 437 153 509 c 2
 210 565 l 2
 254 609 311 637 380 637 c 0
 429 637 469 617 500 586 c 2
 517 569 l 2
 570 516 597 429 597 345 c 0
 597 236 497 85 497 85 c 1
 400 -12 l 1
 363 25 l 1
 363 71 l 1
EndSplineSet
EndChar
StartChar: A
Encoding: 65 65 33
Width: 560
Flags: W
HStem: 548 21G<153 184 343 373> 573 42<204 229.67> 607 20G<228.5 242 386 416>
VStem: 253 54<376.376 561.757>
AnchorPoint: "blwmark" 320 0 basechar 0
AnchorPoint: "abvmark" 360 700 basechar 0
LayerCount: 2
Back
SplineSet
410 580 m 25
 390 600 l 25
 370 580 l 1049
160 300 m 1
 160 300 184 350 240 350 c 3
 342 350 400 250 401 250 c 1025
180 575 m 1
 180 575 188 600 220 600 c 11
 259 600 280 549 280 500 c 3
 280 263 141 75 141 75 c 1025
40 0 m 17
 40 0 65 50 120 50 c 3
 198 50 220 0 220 0 c 1025
400 590 m 1
 440 40 l 1
 480 0 l 9
 520 40 l 1049
EndSplineSet
Fore
SplineSet
24 -27 m 1xb0
 13 -16 l 1
 13 -16 19 -4 31 8 c 2
 73 50 l 2
 74 51 l 0
 86 63 103 73 126 76 c 1
 150 112 203 204 233 323 c 1
 230 323 227 323 224 323 c 0
 209 323 197 320 185 314 c 1
 144 273 l 1
 133 284 l 1
 133 284 139 296 151 308 c 2
 193 351 l 2
 204 362 221 373 244 376 c 1
 250 411 253 446 253 484 c 0
 253 514 245 544 230 564 c 0
 223 569 214 573 204 573 c 0
 197 573 192 572 186 570 c 2
 164 548 l 1
 153 559 l 1
 153 559 156 566 162 572 c 2
 204 615 l 2
 205 615 l 0xd0
 211 621 221 627 236 627 c 0
 248 627 258 622 267 613 c 2
 279 602 l 2
 297 583 307 549 307 516 c 0
 307 466 301 418 291 373 c 1
 330 364 361 340 382 319 c 2
 392 309 l 1
 373 572 l 1
 354 553 l 1
 343 564 l 1
 406 627 l 1
 416 617 l 1
 427 606 l 1
 437 596 l 1
 428 587 l 1
 467 56 l 2
 468 41 487 36 496 27 c 1
 536 67 l 1
 547 56 l 1
 464 -27 l 1
 413 24 l 1
 398 235 l 1
 385 223 l 2
 374 234 l 2
 373 235 363 252 345 271 c 0
 328 287 304 304 275 314 c 1
 234 180 168 91 168 91 c 2
 153 76 l 1
 188 72 210 58 222 46 c 2
 233 34 l 2
 243 24 247 16 247 16 c 1
 204 -27 l 1
 193 -16 l 2
 193 -16 190 -11 184 -3 c 0
 169 9 144 23 104 23 c 0
 88 23 77 19 65 13 c 2
 24 -27 l 1xb0
EndSplineSet
EndChar
StartChar: C
Encoding: 67 67 35
Width: 600
Flags: W
HStem: -27 54<245.122 372.615> 465 21G<213 232> 507 20G<336 367> 523 54<418 465.607> 573 54<334.081 376.575>
VStem: 73 54<176.605 404.945> 232 16<70 473 520 579> 313 54<116 484>
AnchorPoint: "blwmark" 320 0 basechar 0
AnchorPoint: "abvmark" 360 700 basechar 0
LayerCount: 2
Back
SplineSet
240 550 m 1
 240 100 l 1025
340 500 m 1
 340 100 l 1025
240 600 m 1
 240 600 100 480 100 300 c 3
 100 134 176 0 320 0 c 3
 415 0 521 150 522 150 c 1025
240 492 m 1
 240 492 316 600 364 600 c 3
 415 600 394 550 440 550 c 3
 478 550 500 600 501 600 c 1025
EndSplineSet
Fore
SplineSet
224 465 m 1xcf
 213 476 l 1
 213 476 220 487 232 501 c 1
 232 579 l 1
 190 530 127 437 127 316 c 0
 127 219 154 131 204 77 c 0
 239 45 282 27 336 27 c 0
 377 27 421 56 456 87 c 0
 479 113 494 133 495 134 c 2
 537 177 l 2
 538 177 l 2
 549 166 l 1
 546 163 522 130 488 96 c 2
 446 53 l 2
 407 14 354 -27 304 -27 c 0
 248 -27 202 -6 167 29 c 2
 156 40 l 2
 102 94 73 183 73 284 c 0
 73 431 167 539 201 573 c 2
 243 615 l 2
 251 623 256 627 256 627 c 1
 267 616 l 1
 241 590 l 2
 238 587 235 584 232 580 c 2
 248 580 l 1
 248 520 l 1
 254 527 261 535 268 542 c 2
 311 584 l 2
 334 607 359 627 380 627 c 0xcf
 395 627 403 623 409 617 c 2
 421 605 l 2
 428 598 431 588 436 581 c 0
 441 578 447 577 456 577 c 0xd7
 462 577 467 579 471 580 c 0
 473 583 474 584 474 584 c 2
 516 627 l 2
 517 627 l 0xcf
 528 616 l 2
 527 614 518 598 505 584 c 2
 462 541 l 2
 452 531 439 523 424 523 c 0xd7
 412 523 404 527 399 532 c 2
 388 543 l 2
 381 550 378 560 372 568 c 0
 367 571 359 573 348 573 c 0
 334 573 317 563 300 549 c 0
 281 528 267 508 267 508 c 1
 248 489 l 1
 248 70 l 1
 232 70 l 1
 232 473 l 1
 224 465 l 1xcf
356 527 m 1xe7
 367 516 l 1
 367 116 l 1
 324 73 l 1
 313 84 l 1
 313 484 l 1
 356 527 l 1xe7
EndSplineSet
EndChar
StartChar: E
Encoding: 69 69 37
Width: 600
Flags: W
HStem: -27 54<245.122 372.615> 273 54<444.993 463.688> 465 21G<213 232> 507 20G<336 367> 523 54<418 465.607> 573 54<334.081 376.575>
VStem: 73 54<176.605 404.945> 232 16<70 473 520 579> 313 54<116 316 341 484>
AnchorPoint: "blwmark" 320 0 basechar 0
AnchorPoint: "abvmark" 360 700 basechar 0
LayerCount: 2
Back
SplineSet
340 300 m 25
 340 300 378 350 400 350 c 27
 428 350 412 300 440 300 c 3
 473 300 500 350 501 350 c 1049
240 550 m 1
 240 100 l 1025
340 500 m 1
 340 100 l 1025
240 600 m 1
 240 600 100 480 100 300 c 3
 100 134 176 0 320 0 c 3
 415 0 521 150 522 150 c 1025
240 492 m 1
 240 492 316 600 364 600 c 3
 415 600 394 550 440 550 c 3
 478 550 500 600 501 600 c 1025
EndSplineSet
Fore
SplineSet
224 465 m 1xe780
 213 476 l 1
 213 476 220 487 232 501 c 1
 232 579 l 1
 190 530 127 437 127 316 c 0
 127 219 154 131 204 77 c 0
 239 45 282 27 336 27 c 0
 377 27 421 56 456 87 c 0
 479 113 494 133 495 134 c 2
 537 177 l 2
 538 177 l 2
 549 166 l 1
 546 163 522 130 488 96 c 2
 446 53 l 2
 407 14 354 -27 304 -27 c 0
 248 -27 202 -6 167 29 c 2
 156 40 l 2
 102 94 73 183 73 284 c 0
 73 431 167 539 201 573 c 2
 243 615 l 2
 251 623 256 627 256 627 c 1
 267 616 l 1
 241 590 l 2
 238 587 235 584 232 580 c 2
 248 580 l 1
 248 520 l 1
 254 527 261 535 268 542 c 2
 311 584 l 2
 334 607 359 627 380 627 c 0xe780
 395 627 403 623 409 617 c 2
 421 605 l 2
 428 598 431 588 436 581 c 0
 441 578 447 577 456 577 c 0xeb80
 462 577 467 579 471 580 c 0
 473 583 474 584 474 584 c 2
 516 627 l 2
 517 627 l 0xe780
 528 616 l 2
 527 614 518 598 505 584 c 2
 462 541 l 2
 452 531 439 523 424 523 c 0xeb80
 412 523 404 527 399 532 c 2
 388 543 l 2
 381 550 378 560 372 568 c 0
 367 571 359 573 348 573 c 0
 334 573 317 563 300 549 c 0
 281 528 267 508 267 508 c 1
 248 489 l 1
 248 70 l 1
 232 70 l 1
 232 473 l 1
 224 465 l 1xe780
356 527 m 1xf380
 367 516 l 1
 367 341 l 1
 379 354 l 2
 391 366 406 377 416 377 c 0
 421 377 424 376 427 373 c 2
 438 361 l 2
 439 361 l 2
 446 353 447 337 451 327 c 0
 453 327 454 327 456 327 c 0
 462 327 467 329 471 331 c 0
 474 334 l 2
 516 377 l 2
 517 377 l 2
 528 366 l 2
 526 364 518 348 505 335 c 2
 504 335 l 2
 461 292 l 2
 451 282 438 273 424 273 c 0
 419 273 416 274 413 277 c 2
 402 289 l 2
 395 296 393 312 389 323 c 0
 388 323 386 323 384 323 c 0
 379 323 375 321 368 317 c 0
 367 316 l 1
 367 116 l 1
 324 73 l 1
 313 84 l 1
 313 284 l 1
 313 484 l 1
 356 527 l 1xf380
EndSplineSet
EndChar
StartChar: H
Encoding: 72 72 40
Width: 560
Flags: W
HStem: -37 21G<3 40 183 220 440 480> 13 74<83.9052 147.551> 513 21G<3 40> 563 74<77.6875 128.282>
VStem: 148 24<87 539> 223 74<60 255 289 540> 403 74<37.972 315>
AnchorPoint: "blwmark" 320 0 basechar 0
AnchorPoint: "abvmark" 320 700 basechar 0
LayerCount: 2
Back
SplineSet
40 550 m 1
 40 550 67 600 99 600 c 3
 128 600 142 575 160 575 c 3
 182 575 200 600 201 600 c 1025
160 550 m 1
 160 75 l 1025
300 275 m 1
 400 375 l 1
 440 335 l 1
 440 40 l 1
 480 0 l 9
 520 40 l 1049
300 600 m 1
 260 560 l 1
 260 40 l 1
 220 0 l 1
 220 0 198 50 120 50 c 3
 65 50 40 0 40 0 c 1033
EndSplineSet
Fore
SplineSet
320 637 m 1
 337 620 l 1
 297 580 l 1
 297 289 l 1
 420 412 l 1
 477 355 l 1
 477 60 l 2
 477 49 493 44 500 37 c 1
 540 77 l 1
 557 60 l 1
 460 -37 l 1
 403 20 l 1
 403 315 l 1
 380 338 l 1
 297 255 l 1
 297 60 l 1
 200 -37 l 1
 183 -20 l 1
 183 -20 181 -16 177 -10 c 0
 161 2 137 13 100 13 c 0
 84 13 70 8 60 3 c 2
 20 -37 l 1
 3 -20 l 2
 3 -20 8 -9 20 3 c 2
 21 4 l 2
 78 60 l 2
 91 73 111 87 140 87 c 0
 143 87 145 87 148 87 c 2
 148 539 l 2
 145 538 143 538 140 538 c 0
 122 538 108 563 79 563 c 0
 75 563 72 562 68 561 c 2
 20 513 l 1
 3 530 l 1
 3 530 13 548 27 562 c 2
 83 618 l 2
 93 628 106 637 119 637 c 0
 148 637 162 612 180 612 c 0
 191 612 201 618 208 624 c 2
 220 636 l 2
 220 637 l 0
 221 637 l 2
 238 620 l 1
 236 618 l 2
 235 617 233 615 231 613 c 2
 231 612 l 2
 174 556 l 2
 173 555 173 555 172 554 c 2
 172 84 l 1
 196 79 212 68 223 58 c 1
 223 540 l 1
 320 637 l 1
EndSplineSet
EndChar
StartChar: J
Encoding: 74 74 42
Width: 360
Flags: W
HStem: -187 74<23.7615 115.028> 513 21G<3 40> 563 74<77.6875 128.282>
VStem: 148 24<-130 539> 223 74<-80 540>
AnchorPoint: "abvmark" 200 700 basechar 0
LayerCount: 2
Back
SplineSet
40 550 m 1
 40 550 67 600 99 600 c 3
 128 600 142 575 160 575 c 3
 182 575 200 600 201 600 c 1025
160 550 m 1
 160 -125 l 1025
300 600 m 1
 260 560 l 1
 260 -100 l 1
 160 -200 l 1
 160 -200 138 -150 60 -150 c 3
 5 -150 -20 -200 -20 -200 c 1025
EndSplineSet
Fore
SplineSet
320 637 m 1
 337 620 l 1
 297 580 l 1
 297 -80 l 1
 140 -237 l 1
 123 -220 l 1
 123 -220 121 -216 117 -210 c 0
 101 -198 77 -187 40 -187 c 0
 24 -187 10 -192 0 -197 c 2
 -40 -237 l 1
 -57 -220 l 2
 -57 -220 -52 -209 -40 -197 c 2
 -39 -196 l 2
 18 -140 l 2
 31 -127 51 -113 80 -113 c 0
 111 -113 133 -121 148 -130 c 1
 148 539 l 2
 145 538 143 538 140 538 c 0
 122 538 108 563 79 563 c 0
 75 563 72 562 68 561 c 2
 20 513 l 1
 3 530 l 1
 3 530 13 548 27 562 c 2
 83 618 l 2
 93 628 106 637 119 637 c 0
 148 637 162 612 180 612 c 0
 191 612 201 618 208 624 c 2
 220 636 l 2
 220 637 l 0
 221 637 l 2
 238 620 l 1
 236 618 l 2
 235 617 233 615 231 613 c 2
 231 612 l 2
 174 556 l 2
 173 555 173 555 172 554 c 2
 172 -151 l 1
 182 -161 l 1
 223 -120 l 1
 223 540 l 1
 320 637 l 1
EndSplineSet
EndChar
StartChar: K
Encoding: 75 75 43
Width: 560
Flags: W
HStem: -27 21G<13 44.5 193 224> 23 54<78.7431 151.321> 523 41G<13 44 447 484> 573 54<77.8262 132.32> 573 36<79 114.391>
VStem: 152 16<76 549> 233 54<56 256 278 544> 393 54<416 554> 413 54<37.2798 209>
AnchorPoint: "blwmark" 320 0 basechar 0
AnchorPoint: "abvmark" 360 700 basechar 0
LayerCount: 2
Back
SplineSet
40 550 m 1
 40 550 67 600 99 600 c 3
 128 600 142 575 160 575 c 3
 182 575 200 600 201 600 c 1025
160 550 m 1
 160 75 l 1025
300 280 m 1
 420 400 l 1
 420 570 l 1
 450 600 l 9
 480 570 l 1049
360 325 m 1
 440 225 l 1
 440 40 l 1
 470 10 l 9
 500 40 l 1049
300 600 m 1
 260 560 l 1
 260 40 l 1
 220 0 l 1
 220 0 198 50 120 50 c 3
 65 50 40 0 40 0 c 1033
EndSplineSet
Fore
SplineSet
316 627 m 1xf680
 327 616 l 1
 287 576 l 1
 287 278 l 1
 393 384 l 1
 393 554 l 1
 466 627 l 1
 507 586 l 1
 464 543 l 1
 447 561 l 1
 447 416 l 1xf7
 379 348 l 1
 387 341 l 1
 467 241 l 1
 467 56 l 2
 467 47 480 43 486 37 c 1
 516 67 l 1
 527 56 l 1
 454 -17 l 1
 413 24 l 1
 413 209 l 1
 337 305 l 1
 287 256 l 1
 287 56 l 1
 204 -27 l 1
 193 -16 l 1
 193 -16 190 -10 184 -3 c 0
 169 10 144 23 104 23 c 0
 88 23 76 19 65 13 c 2
 24 -27 l 1
 13 -16 l 1
 13 -16 19 -4 31 8 c 2
 73 50 l 2
 86 63 107 77 136 77 c 0
 142 77 147 77 152 76 c 1
 152 549 l 2
 150 548 147 548 144 548 c 0
 126 548 112 573 83 573 c 0xf680
 78 573 75 572 70 570 c 0
 69 568 67 566 67 566 c 1
 24 523 l 1
 13 534 l 1
 13 534 23 552 37 566 c 2
 79 609 l 2
 80 609 l 0xee80
 90 619 102 627 115 627 c 0
 144 627 158 602 176 602 c 0
 187 602 197 608 204 614 c 2
 216 626 l 2
 217 627 l 2xf680
 228 616 l 1
 226 614 l 2
 225 613 223 611 221 609 c 2xee80
 221 608 l 2
 178 566 l 2
 175 563 172 560 168 557 c 1
 168 74 l 1
 194 68 210 56 221 46 c 2
 222 46 l 2
 233 34 l 1
 233 544 l 1
 316 627 l 1xf680
EndSplineSet
EndChar
StartChar: N
Encoding: 78 78 46
Width: 600
Flags: W
HStem: -27 21G<13 44.5 193 224 444 484> 23 54<78.473 151.321> 523 21G<13 44> 573 54<77.8262 132.32> 573 36<79 114.391>
VStem: 152 16<76 549> 233 54<56 544> 413 54<32.437 481>
AnchorPoint: "blwmark" 320 0 basechar 0
AnchorPoint: "abvmark" 320 700 basechar 0
LayerCount: 2
Back
SplineSet
40 550 m 1
 40 550 67 600 99 600 c 3
 128 600 142 575 160 575 c 3
 182 575 200 600 201 600 c 1025
160 550 m 1
 160 75 l 1025
40 0 m 17
 40 0 65 50 120 50 c 3
 198 50 220 0 220 0 c 1
 260 40 l 1
 260 560 l 1
 300 600 l 1
 440 500 l 1
 440 40 l 1
 480 0 l 9
 520 40 l 1049
EndSplineSet
Fore
SplineSet
24 -27 m 1xf7
 13 -16 l 1
 13 -16 19 -4 31 8 c 2
 73 50 l 2
 74 51 l 0
 87 64 108 77 136 77 c 0
 142 77 147 77 152 76 c 1
 152 549 l 2
 150 548 147 548 144 548 c 0
 126 548 112 573 83 573 c 0xf7
 78 573 75 572 70 570 c 0
 69 568 67 566 67 566 c 1
 24 523 l 1
 13 534 l 1
 13 534 23 552 37 566 c 2
 79 609 l 2
 80 609 l 0xef
 90 619 102 627 115 627 c 0
 144 627 158 602 176 602 c 0
 187 602 197 608 204 614 c 2
 216 626 l 2
 217 627 l 2xf7
 228 616 l 1
 226 614 l 2
 225 613 223 611 221 609 c 2xef
 221 608 l 2
 178 566 l 2
 175 563 172 560 168 557 c 1
 168 74 l 1
 194 68 212 56 222 46 c 2
 233 34 l 1
 233 544 l 1
 316 627 l 1
 456 527 l 1
 467 516 l 1
 467 56 l 2
 467 41 488 35 496 27 c 1
 536 67 l 1
 547 56 l 1
 464 -27 l 1
 413 24 l 1
 413 481 l 1
 287 571 l 1
 287 56 l 1
 204 -27 l 1
 193 -16 l 2
 193 -16 190 -11 184 -3 c 0
 169 9 144 23 104 23 c 0
 88 23 77 19 65 13 c 2
 24 -27 l 1xf7
EndSplineSet
EndChar
StartChar: P
Encoding: 80 80 48
Width: 560
Flags: W
HStem: -37 21G<3 40 183 220> 13 74<83.9052 147.551> 513 21G<3 40> 563 74<77.6875 128.282>
VStem: 148 24<87 221 239 539> 223 74<60 250 337 540> 443 74<350 450>
AnchorPoint: "blwmark" 320 0 basechar 0
AnchorPoint: "abvmark" 320 700 basechar 0
LayerCount: 2
Back
SplineSet
200 250 m 17
 200 250 243 300 280 300 c 27
 331 300 400 250 400 250 c 1
 480 330 l 1
 480 475 l 1
 300 600 l 1
 260 560 l 1
 260 40 l 1
 220 0 l 1
 220 0 198 50 120 50 c 3
 65 50 40 0 40 0 c 1033
40 550 m 1
 40 550 67 600 99 600 c 3
 128 600 142 575 160 575 c 3
 182 575 200 600 201 600 c 1025
160 550 m 1
 160 75 l 1025
EndSplineSet
Fore
SplineSet
20 513 m 1
 3 530 l 1
 3 530 13 548 27 562 c 2
 83 618 l 2
 93 628 106 637 119 637 c 0
 148 637 162 612 180 612 c 0
 191 612 201 618 208 624 c 2
 220 636 l 2
 220 637 l 0
 221 637 l 2
 238 620 l 1
 236 618 l 2
 235 617 233 615 231 613 c 2
 231 612 l 2
 174 556 l 2
 173 555 173 555 172 554 c 2
 172 239 l 1
 223 291 l 1
 223 540 l 1
 320 637 l 1
 500 512 l 1
 517 495 l 1
 517 350 l 1
 380 213 l 1
 380 213 339 243 297 257 c 1
 297 60 l 1
 200 -37 l 1
 183 -20 l 1
 183 -20 181 -16 177 -10 c 0
 161 2 137 13 100 13 c 0
 84 13 70 8 60 3 c 2
 20 -37 l 1
 3 -20 l 2
 3 -20 8 -9 20 3 c 2
 21 4 l 2
 78 60 l 2
 91 73 111 87 140 87 c 0
 143 87 145 87 148 87 c 2
 148 539 l 2
 145 538 143 538 140 538 c 0
 122 538 108 563 79 563 c 0
 75 563 72 562 68 561 c 2
 20 513 l 1
297 337 m 2
 298 337 299 337 300 337 c 0
 303 337 305 336 308 336 c 0
 358 331 420 287 420 287 c 2
 420 287 440 307 443 310 c 2
 443 450 l 1
 297 552 l 1
 297 337 l 2
172 221 m 1
 172 84 l 1
 196 79 212 68 223 58 c 1
 223 250 l 1
 214 244 207 239 199 232 c 2
 180 213 l 1
 172 221 l 1
EndSplineSet
EndChar
StartChar: U
Encoding: 85 85 53
Width: 560
Flags: W
HStem: -27 54<228.901 332.615> 523 21G<13 44> 548 54<228.987 307> 573 54<77.8262 192.021> 573 36<79 114.391>
VStem: 73 54<130.432 392.795> 212 16<48 550> 293 54<116 534> 453 54<31 101 104.674 165.999 168 594>
AnchorPoint: "blwmark" 280 0 basechar 0
AnchorPoint: "abvmark" 360 700 basechar 0
LayerCount: 2
Back
SplineSet
320 550 m 1
 320 100 l 1025
465 30 m 25
 495 0 l 25
 525 30 l 1049
465 625 m 25
 495 595 l 1049
480 610 m 9
 480 15 l 1049
200 550 m 1
 200 550 100 466 100 250 c 3
 100 84 171 0 280 0 c 3
 375 0 481 150 482 150 c 1049
40 550 m 1
 40 550 67 600 99 600 c 3
 163 600 182 575 320 575 c 3
 342 575 360 600 361 600 c 1025
220 525 m 1
 220 50 l 1025
EndSplineSet
Fore
SplineSet
24 523 m 1xd780
 13 534 l 1
 13 534 23 552 37 566 c 2
 79 609 l 2
 80 609 l 0xcf80
 90 619 102 627 115 627 c 0xd780
 179 627 198 602 336 602 c 0xe780
 347 602 357 608 364 614 c 2
 376 626 l 2
 377 627 l 2xd780
 388 616 l 1
 386 614 l 2
 385 613 383 611 381 609 c 2xcf80
 381 608 l 2
 343 570 l 1
 347 566 l 1
 347 116 l 1
 304 73 l 1
 293 84 l 1
 293 534 l 1
 307 548 l 2
 306 548 305 548 304 548 c 0xe780
 273 548 249 549 228 551 c 1
 228 40 l 1
 248 31 271 27 296 27 c 0
 337 27 381 56 416 87 c 0
 435 108 448 126 453 132 c 1
 453 594 l 1
 438 609 l 1xcf80
 481 652 l 1
 496 637 l 1
 507 626 l 1
 522 611 l 1
 507 596 l 1
 507 168 l 1
 509 166 l 2
 509 166 508 164 507 163 c 2
 507 31 l 1
 511 27 l 1
 541 57 l 1
 552 46 l 1
 479 -27 l 1
 464 -12 l 1
 453 -1 l 1
 438 14 l 1
 453 29 l 1
 453 101 l 2
 451 99 450 98 448 96 c 2
 406 53 l 2
 367 14 314 -27 264 -27 c 0
 218 -27 179 -12 149 18 c 2
 138 30 l 2
 97 71 73 138 73 234 c 0
 73 422 148 510 168 530 c 2
 169 530 l 1
 194 556 l 1
 147 563 124 573 83 573 c 0
 78 573 75 572 70 570 c 0
 69 568 67 566 67 566 c 1
 24 523 l 1xd780
212 48 m 1
 212 550 l 1
 184 517 127 429 127 266 c 0
 127 175 149 108 186 67 c 0
 194 60 203 53 212 48 c 1
EndSplineSet
EndChar
StartChar: W
Encoding: 87 87 55
Width: 800
Flags: W
HStem: -37 21G<263 300 503 540> 113 73<172 208.825> 513 21G<3 40> 563 74<77.6875 128.282>
VStem: 148 24<186 539> 223 74<270 540> 423 74<181 565> 603 74<473.5 526.076> 663 74<181 426.704>
AnchorPoint: "blwmark" 440 0 basechar 0
AnchorPoint: "abvmark" 460 700 basechar 0
LayerCount: 2
Back
SplineSet
445 600 m 25
 475 570 l 1049
40 550 m 1
 40 550 67 600 99 600 c 3
 128 600 142 575 160 575 c 3
 182 575 200 600 201 600 c 1025
160 550 m 1
 160 175 l 1025
260 250 m 1
 260 560 l 1
 300 600 l 1025
80 100 m 17
 80 100 110 150 140 150 c 3
 299 150 300 0 300 0 c 1
 460 160.799804688 l 1
 460 585 l 1025
720 600 m 1
 720 600 640 544 640 500 c 3
 640 455.200195312 700 452 700 452 c 1
 700 160.799804688 l 1
 540 0 l 1
 460 160.799804688 l 1049
EndSplineSet
Fore
SplineSet
757 620 m 1xff
 700 563 l 1
 700 563 697 560 691 556 c 0
 683 544 677 532 677 520 c 0xff
 677 512 678 505 681 500 c 0
 698 490 720 489 720 489 c 1
 737 472 l 1
 737 181 l 1
 577 20 l 1
 520 -37 l 1
 503 -20 l 1
 435 118 l 1
 337 20 l 1
 280 -37 l 1
 263 -20 l 1
 263 -20 264 -16 263 -11 c 0
 261 6 255 46 227 79 c 1
 204 98 169 113 120 113 c 0
 116 113 112 112 107 110 c 2
 60 63 l 1
 43 80 l 1
 43 80 53 96 67 110 c 2
 123 167 l 2
 124 168 l 0
 131 175 140 181 148 184 c 1
 148 539 l 2
 145 538 143 538 140 538 c 0
 122 538 108 563 79 563 c 0
 75 563 72 562 68 561 c 2
 20 513 l 1
 3 530 l 1
 3 530 13 548 27 562 c 2
 83 618 l 2
 93 628 106 637 119 637 c 0
 148 637 162 612 180 612 c 0
 191 612 201 618 208 624 c 2
 220 636 l 2
 220 637 l 0
 221 637 l 2
 238 620 l 1
 236 618 l 2
 235 617 233 615 231 613 c 2
 231 612 l 2
 174 556 l 2
 173 555 173 555 172 554 c 2
 172 186 l 1
 221 184 253 167 275 145 c 2
 292 128 l 2
 317 103 328 72 333 50 c 1
 423 141 l 1
 423 565 l 1
 408 580 l 1
 465 637 l 1
 480 622 l 1
 497 605 l 1
 512 590 l 1
 497 575 l 1
 497 181 l 1
 565 43 l 1
 663 141 l 1
 663 418 l 1xfe80
 653 420 641 425 632 434 c 2
 615 451 l 2
 608 458 603 467 603 480 c 0
 603 501 622 525 641 544 c 2
 697 601 l 2
 718 622 740 637 740 637 c 1
 757 620 l 1xff
240 213 m 1
 223 230 l 1
 223 540 l 1
 320 637 l 1
 337 620 l 1
 297 580 l 1
 297 270 l 1
 240 213 l 1
EndSplineSet
EndChar
StartChar: Y
Encoding: 89 89 57
Width: 560
Flags: W
HStem: -187 74<91.1364 310.802> -37 21G<263 300> 113 73<172 208.825> 513 21G<3 40> 563 74<77.6875 128.282>
VStem: 148 24<186 539> 223 74<270 540> 423 74<-100 106 140 565>
AnchorPoint: "abvmark" 360 700 basechar 0
LayerCount: 2
Back
SplineSet
40 550 m 1
 40 550 67 600 99 600 c 3
 128 600 142 575 160 575 c 3
 182 575 200 600 201 600 c 1025
160 550 m 1
 160 175 l 1025
260 250 m 1
 260 560 l 1
 300 600 l 1025
80 100 m 17
 80 100 110 150 140 150 c 3
 299 150 300 0 300 0 c 1
 460 160 l 1025
40 -200 m 17
 40 -200 53 -150 200 -150 c 3
 330 -150 380 -200 380 -200 c 9
 460 -120 l 1
 460 585 l 1025
445 600 m 25
 475 570 l 1049
EndSplineSet
Fore
SplineSet
408 580 m 1
 465 637 l 1
 480 622 l 1
 497 605 l 1
 512 590 l 1
 497 575 l 1
 497 180 l 1
 497 -100 l 1
 360 -237 l 1
 360 -237 310 -187 180 -187 c 0
 107 -187 67 -199 45 -212 c 1
 20 -237 l 1
 3 -220 l 1
 3 -220 4 -214 12 -207 c 2
 69 -150 l 2
 84 -135 122 -113 220 -113 c 0
 350 -113 400 -163 400 -163 c 2
 400 -163 420 -143 423 -140 c 2
 423 106 l 1
 280 -37 l 1
 263 -20 l 2
 263 -20 263 35 227 79 c 1
 204 98 169 113 120 113 c 0
 116 113 112 112 107 110 c 2
 60 63 l 1
 43 80 l 1
 43 80 53 96 67 110 c 2
 123 167 l 2
 124 168 l 0
 131 175 140 181 148 184 c 1
 148 539 l 2
 145 538 143 538 140 538 c 0
 122 538 108 563 79 563 c 0
 75 563 72 562 68 561 c 2
 20 513 l 1
 3 530 l 1
 3 530 13 548 27 562 c 2
 83 618 l 2
 93 628 106 637 119 637 c 0
 148 637 162 612 180 612 c 0
 191 612 201 618 208 624 c 2
 220 636 l 2
 220 637 l 0
 221 637 l 2
 238 620 l 1
 236 618 l 2
 235 617 233 615 231 613 c 2
 231 612 l 2
 174 556 l 2
 173 555 173 555 172 554 c 2
 172 186 l 1
 221 184 253 167 275 145 c 2
 292 128 l 2
 317 103 328 72 333 50 c 1
 423 140 l 1
 423 565 l 1
 408 580 l 1
240 213 m 1
 223 230 l 1
 223 540 l 1
 320 637 l 1
 337 620 l 1
 297 580 l 1
 297 270 l 1
 240 213 l 1
EndSplineSet
EndChar
StartChar: Z
Encoding: 90 90 58
Width: 560
Flags: W
HStem: 23 54<84.2521 335.626> 273 54<303.558 392.395> 298 54<167.668 238.472> 523 54<187.25 432.235> 607 20G<76 208 448 507>
AnchorPoint: "blwmark" 240 0 basechar 0
AnchorPoint: "abvmark" 280 700 basechar 0
LayerCount: 2
Back
SplineSet
120 275 m 25
 120 275 165 325 200 325 c 27
 263 325 297 300 360 300 c 27
 395 300 440 350 440 350 c 1049
500 80 m 1
 420 0 l 1
 420 0 358 50 160 50 c 3
 102 50 40 0 40 0 c 1
 480 600 l 1
 480 600 411 550 360 550 c 3
 192 550 80 600 80 600 c 1025
EndSplineSet
Fore
SplineSet
516 107 m 1xd8
 527 96 l 1
 404 -27 l 1
 404 -27 342 23 144 23 c 0
 86 23 24 -27 24 -27 c 1
 13 -16 l 1
 239 292 l 1
 223 296 204 298 184 298 c 0
 161 298 134 276 117 261 c 2
 104 248 l 1
 93 259 l 1
 93 259 95 262 99 266 c 2
 142 308 l 2
 156 322 189 352 216 352 c 0xb8
 239 352 259 348 277 344 c 1
 428 551 l 1
 404 538 371 523 344 523 c 0
 176 523 64 573 64 573 c 1
 53 584 l 1
 96 627 l 1
 96 627 208 577 376 577 c 0
 427 577 496 627 496 627 c 1
 507 616 l 1
 303 337 l 1
 325 331 348 327 376 327 c 0
 399 327 427 349 443 364 c 2
 456 377 l 1
 467 366 l 2
 467 366 465 364 461 360 c 2
 461 359 l 2
 418 317 l 2
 404 303 371 273 344 273 c 0
 313 273 289 280 265 286 c 1
 93 52 l 1
 116 64 147 77 176 77 c 0
 374 77 436 27 436 27 c 1
 516 107 l 1xd8
EndSplineSet
EndChar
StartChar: backslash
Encoding: 92 92 60
Width: 400
Flags: W
HStem: -177 21G<333 364>
LayerCount: 2
Back
SplineSet
360 -150 m 25
 40 700 l 1049
EndSplineSet
Fore
SplineSet
344 -177 m 1
 333 -166 l 1
 13 684 l 1
 56 727 l 1
 67 716 l 1
 387 -134 l 1
 344 -177 l 1
EndSplineSet
EndChar
StartChar: asciicircum
Encoding: 94 94 62
Width: 480
Flags: W
HStem: 617 20G<240 277>
LayerCount: 2
Back
SplineSet
80 300 m 25
 240 600 l 25
 400 300 l 1049
EndSplineSet
Fore
SplineSet
60 263 m 1
 43 280 l 1
 203 580 l 1
 260 637 l 1
 277 620 l 1
 437 320 l 1
 380 263 l 1
 363 280 l 1
 229 531 l 1
 117 320 l 1
 60 263 l 1
EndSplineSet
EndChar
StartChar: underscore
Encoding: 95 95 63
Width: 560
Flags: W
HStem: -187 74<100 460>
LayerCount: 2
Back
SplineSet
80 -150 m 25
 480 -150 l 1049
EndSplineSet
Fore
SplineSet
43 -170 m 1
 100 -113 l 1
 500 -113 l 1
 517 -130 l 1
 460 -187 l 1
 60 -187 l 1
 43 -170 l 1
EndSplineSet
EndChar
StartChar: grave
Encoding: 96 96 64
Width: 320
Flags: W
HStem: 513 224
VStem: 63 74<650.188 680>
LayerCount: 2
Back
SplineSet
100 700 m 17
 100 600 220 550 220 550 c 1049
EndSplineSet
Fore
SplineSet
120 737 m 1
 137 720 l 1
 137 683 154 652 174 629 c 0
 206 601 240 587 240 587 c 2
 257 570 l 1
 200 513 l 1
 200 513 159 530 125 564 c 2
 108 581 l 2
 84 605 63 638 63 680 c 1
 120 737 l 1
EndSplineSet
EndChar
StartChar: b
Encoding: 98 98 66
Width: 320
Flags: W
HStem: 407 20G<156 196> 407 20G<156 196>
VStem: 53 54<64 336 358 599> 213 54<96 336>
AnchorPoint: "blwmark" 160 0 basechar 0
AnchorPoint: "abvmark" 160 700 basechar 0
LayerCount: 2
Back
SplineSet
70 625 m 25
 90 605 l 1049
80 615 m 9
 80 80 l 25
 160 0 l 25
 240 80 l 25
 240 320 l 25
 160 400 l 1
 80 320 l 1049
EndSplineSet
Fore
SplineSet
107 336 m 1x30
 107 96 l 2
 107 58 156 47 176 27 c 1
 213 64 l 1
 213 304 l 2
 213 342 164 353 144 373 c 1
 107 336 l 1x30
107 358 m 1
 176 427 l 1xb0
 267 336 l 1
 267 96 l 1
 144 -27 l 1
 53 64 l 1
 53 599 l 1
 43 609 l 1
 86 652 l 1
 96 642 l 1
 107 631 l 1
 117 621 l 1
 107 611 l 1
 107 358 l 1
EndSplineSet
EndChar
StartChar: c
Encoding: 99 99 67
Width: 280
Flags: W
HStem: 407 20G<156 196> 407 20G<156 196>
VStem: 53 54<64 304>
AnchorPoint: "blwmark" 160 0 basechar 0
AnchorPoint: "abvmark" 160 500 basechar 0
LayerCount: 2
Back
SplineSet
240 320 m 9
 160 400 l 25
 80 320 l 25
 80 80 l 25
 160 0 l 25
 240 80 l 1041
EndSplineSet
Fore
SplineSet
267 336 m 1xa0
 224 293 l 1
 144 373 l 1
 107 336 l 1
 107 96 l 2
 107 58 156 47 176 27 c 1
 256 107 l 1
 267 96 l 1
 144 -27 l 1
 53 64 l 1
 53 304 l 1
 176 427 l 1
 267 336 l 1xa0
EndSplineSet
EndChar
StartChar: d
Encoding: 100 100 68
Width: 320
Flags: W
HStem: 417 20G<160 199.167> 417 20G<160 199.167> 513 74<122.755 176.437>
VStem: 43 74<65.1574 300 574 626.5> 203 74<100 300 413 492.735>
AnchorPoint: "blwmark" 160 0 basechar 0
AnchorPoint: "abvmark" 200 700 basechar 0
LayerCount: 2
Back
SplineSet
240 320 m 1
 160 400 l 25
 80 320 l 1
 80 80 l 25
 160 0 l 25
 240 80 l 1
 240 450 l 10
 240 500 195 550 160 550 c 0
 125 550 80 563 80 600 c 27
 80 623 100 630 113 650 c 1049
EndSplineSet
Fore
SplineSet
203 300 m 1x38
 140 363 l 1
 117 340 l 1
 117 100 l 2
 117 66 162 55 180 37 c 1
 203 60 l 1
 203 300 l 1x38
203 413 m 1
 203 430 l 2
 203 454 192 480 177 498 c 0
 165 508 152 513 140 513 c 0
 116 513 88 519 72 535 c 2
 55 552 l 2
 48 559 43 568 43 580 c 0
 43 594 51 602 59 610 c 2
 65 617 l 2
 69 621 73 625 76 630 c 2
 133 687 l 1
 150 670 l 1
 146 664 142 660 137 655 c 0
 137 654 l 2
 130 648 l 2
 123 641 117 633 117 620 c 0
 117 613 119 606 122 601 c 0
 138 591 161 587 180 587 c 0
 195 587 211 578 225 564 c 2
 226 564 l 2
 226 563 l 1
 243 546 l 2
 262 527 277 499 277 470 c 2
 277 100 l 1
 140 -37 l 1
 43 60 l 1
 43 300 l 1
 180 437 l 1xb8
 203 413 l 1
EndSplineSet
EndChar
StartChar: e
Encoding: 101 101 69
Width: 280
Flags: W
HStem: 417 20G<160 200> 417 20G<160 200>
VStem: 43 74<100 140 174 300>
AnchorPoint: "blwmark" 160 0 basechar 0
AnchorPoint: "abvmark" 160 500 basechar 0
LayerCount: 2
Back
SplineSet
240 80 m 9
 160 0 l 25
 80 80 l 25
 80 320 l 25
 160 400 l 25
 240 320 l 1
 240 280 l 9
 80 120 l 1049
EndSplineSet
Fore
SplineSet
117 174 m 1x20
 203 260 l 1
 203 300 l 1
 140 363 l 1
 117 340 l 1
 117 174 l 1x20
117 140 m 1
 117 100 l 1
 180 37 l 1
 260 117 l 1
 277 100 l 1
 140 -37 l 1
 43 60 l 1
 43 300 l 1
 180 437 l 1xa0
 277 340 l 1
 277 300 l 1
 117 140 l 1
EndSplineSet
EndChar
StartChar: i
Encoding: 105 105 73
Width: 160
Flags: W
HStem: 407 20G<66 96> 407 20G<66 96> 553 21G<63 94>
VStem: 53 54<28 372>
AnchorPoint: "blwmark" 80 0 basechar 0
LayerCount: 2
Back
SplineSet
90 620 m 25
 110 600 l 25
 90 580 l 1049
70 20 m 25
 90 0 l 25
 110 20 l 1049
90 380 m 25
 70 400 l 25
 50 380 l 1049
80 390 m 9
 80 10 l 1025
EndSplineSet
Fore
SplineSet
63 604 m 1x30
 106 647 l 1
 137 616 l 1
 74 553 l 1
 63 564 l 1
 83 584 l 1
 63 604 l 1x30
107 406 m 1
 117 396 l 1
 107 386 l 1
 107 28 l 1
 126 47 l 1
 137 36 l 1
 74 -27 l 1
 64 -17 l 1
 53 -6 l 1
 43 4 l 1
 53 14 l 1
 53 372 l 1
 34 353 l 1
 23 364 l 1
 86 427 l 1xb0
 96 417 l 1
 107 406 l 1
EndSplineSet
Substitution2: "Dotless forms-1" dotlessi
EndChar
StartChar: j
Encoding: 106 106 74
Width: 160
Flags: W
HStem: 407 20G<66 96> 407 20G<66 96> 553 21G<63 94>
VStem: 53 54<-94 372>
LayerCount: 2
Back
SplineSet
90 620 m 25
 110 600 l 25
 90 580 l 1049
90 380 m 25
 70 400 l 25
 50 380 l 1049
80 390 m 1
 80 -110 l 9
 60 -130 l 1049
EndSplineSet
Fore
SplineSet
63 604 m 1x30
 106 647 l 1
 137 616 l 1
 74 553 l 1
 63 564 l 1
 83 584 l 1
 63 604 l 1x30
107 406 m 1
 117 396 l 1
 107 386 l 1
 107 -94 l 1
 44 -157 l 1
 33 -146 l 1
 53 -126 l 1
 53 372 l 1
 34 353 l 1
 23 364 l 1
 86 427 l 1xb0
 96 417 l 1
 107 406 l 1
EndSplineSet
Substitution2: "Dotless forms-1" dotlessj
EndChar
StartChar: k
Encoding: 107 107 75
Width: 320
Flags: W
HStem: 422 20G<226 256> 622 20G<66 96>
VStem: 53 54<36 213 237 589> 213 54<36 184 366 389>
AnchorPoint: "blwmark" 160 0 basechar 0
AnchorPoint: "abvmark" 160 700 basechar 0
LayerCount: 2
Back
SplineSet
230 415 m 25
 250 395 l 1049
70 615 m 25
 90 595 l 1049
70 615 m 25
 90 595 l 1049
80 200 m 1
 240 350 l 9
 240 405 l 1049
160 275 m 1
 240 200 l 1
 240 20 l 1025
230 30 m 25
 250 10 l 1049
70 30 m 25
 90 10 l 1049
70 615 m 25
 90 595 l 1049
80 605 m 9
 80 20 l 1049
EndSplineSet
Fore
SplineSet
203 399 m 1
 246 442 l 1
 256 432 l 1
 267 421 l 1
 277 411 l 1
 267 401 l 1
 267 366 l 1
 224 323 l 1
 189 290 l 1
 256 227 l 1
 267 216 l 1
 267 36 l 1
 277 26 l 1
 234 -17 l 1
 224 -7 l 1
 213 4 l 1
 203 14 l 1
 213 24 l 1
 213 184 l 1
 144 248 l 1
 107 213 l 1
 107 36 l 1
 117 26 l 1
 74 -17 l 1
 64 -7 l 1
 53 4 l 1
 43 14 l 1
 53 24 l 1
 53 184 l 1
 53 589 l 1
 43 599 l 1
 86 642 l 1
 96 632 l 1
 107 621 l 1
 117 611 l 1
 107 601 l 1
 107 237 l 1
 213 337 l 1
 213 389 l 1
 203 399 l 1
EndSplineSet
EndChar
StartChar: l
Encoding: 108 108 76
Width: 160
Flags: W
HStem: 622 20G<66 96>
VStem: 53 54<28 589>
AnchorPoint: "blwmark" 80 0 basechar 0
AnchorPoint: "abvmark" 80 700 basechar 0
LayerCount: 2
Back
SplineSet
70 20 m 25
 90 0 l 25
 110 20 l 1049
70 615 m 25
 90 595 l 1049
80 605 m 9
 80 10 l 1049
EndSplineSet
Fore
SplineSet
43 599 m 1
 86 642 l 1
 96 632 l 1
 107 621 l 1
 117 611 l 1
 107 601 l 1
 107 28 l 1
 126 47 l 1
 137 36 l 1
 74 -27 l 1
 64 -17 l 1
 53 -6 l 1
 43 4 l 1
 53 14 l 1
 53 589 l 1
 43 599 l 1
EndSplineSet
EndChar
StartChar: m
Encoding: 109 109 77
Width: 480
Flags: W
HStem: 417 20G<65 100 180 220 340 380> 417 20G<65 100 180 220 340 380>
VStem: 43 74<35 320 354 365> 203 74<35 320> 363 74<35 348.522>
CounterMasks: 1 38
AnchorPoint: "blwmark" 240 0 basechar 0
AnchorPoint: "abvmark" 240 500 basechar 0
LayerCount: 2
Back
SplineSet
385 30 m 25
 415 0 l 1049
400 15 m 1
 400 340 l 25
 340 400 l 1
 240 300 l 1049
225 30 m 25
 255 0 l 1049
240 15 m 1
 240 340 l 25
 180 400 l 1
 80 300 l 1049
65 30 m 25
 95 0 l 1049
95 370 m 25
 65 400 l 1049
80 385 m 9
 80 15 l 1025
EndSplineSet
Fore
SplineSet
117 405 m 1xb8
 132 390 l 1
 117 375 l 1
 117 354 l 1
 200 437 l 1
 277 360 l 1
 277 354 l 1
 360 437 l 1
 437 360 l 1
 437 35 l 1
 452 20 l 1
 395 -37 l 1
 380 -22 l 1
 363 -5 l 1
 348 10 l 1
 363 25 l 1
 363 320 l 2
 363 343 332 351 320 363 c 1
 277 320 l 1
 277 35 l 1
 292 20 l 1
 235 -37 l 1
 220 -22 l 1
 203 -5 l 1
 188 10 l 1
 203 25 l 1
 203 280 l 1
 203 320 l 2
 203 343 172 351 160 363 c 1
 117 320 l 1
 117 35 l 1
 132 20 l 1
 75 -37 l 1
 60 -22 l 1
 43 -5 l 1
 28 10 l 1
 43 25 l 1
 43 280 l 1
 43 365 l 1
 28 380 l 1
 85 437 l 1
 100 422 l 1
 117 405 l 1xb8
EndSplineSet
Substitution2: "Stylistic alternates-1" m.alt
EndChar
StartChar: o
Encoding: 111 111 79
Width: 320
Flags: W
HStem: 407 20G<156 196> 407 20G<156 196>
VStem: 53 54<64 304> 213 54<96 336>
AnchorPoint: "blwmark" 160 0 basechar 0
AnchorPoint: "abvmark" 160 500 basechar 0
LayerCount: 2
Back
SplineSet
160 400 m 25
 80 320 l 25
 80 80 l 25
 160 0 l 25
 240 80 l 25
 240 320 l 25
 160 400 l 25
EndSplineSet
Fore
SplineSet
144 373 m 1x30
 107 336 l 1
 107 96 l 2
 107 58 156 47 176 27 c 1
 213 64 l 1
 213 304 l 2
 213 342 164 353 144 373 c 1x30
53 304 m 1
 176 427 l 1xb0
 267 336 l 1
 267 96 l 1
 144 -27 l 1
 53 64 l 1
 53 304 l 1
EndSplineSet
EndChar
StartChar: p
Encoding: 112 112 80
Width: 320
Flags: W
HStem: -187 21G<43 80> 417 20G<65 100 160 200> 417 20G<65 100 160 200>
VStem: 43 74<-130 -15 77 340> 203 74<100 334.843>
AnchorPoint: "abvmark" 160 500 basechar 0
LayerCount: 2
Back
SplineSet
40 0 m 1
 40 0 77 40 100 40 c 0
 123 40 160 0 160 0 c 9
 240 80 l 1
 240 320 l 25
 160 400 l 1
 80 320 l 1049
65 400 m 25
 95 370 l 1049
80 385 m 1
 80 -150 l 1025
EndSplineSet
Fore
SplineSet
28 380 m 1xd8
 85 437 l 1
 100 422 l 1
 117 405 l 1
 132 390 l 1
 117 375 l 1
 117 374 l 1
 180 437 l 1
 277 340 l 1
 277 100 l 1
 140 -37 l 1
 131 -28 l 2
 127 -24 122 -19 117 -15 c 1
 117 -130 l 1
 60 -187 l 1
 43 -170 l 1
 43 -15 l 1
 38 -19 33 -24 29 -28 c 2
 20 -37 l 1
 3 -20 l 1
 3 -20 5 -18 8 -15 c 2
 43 20 l 1
 43 300 l 1
 43 365 l 1
 28 380 l 1xd8
117 340 m 1
 117 77 l 2
 118 77 119 77 120 77 c 0
 138 77 166 51 176 41 c 2
 180 37 l 1
 203 60 l 1
 203 300 l 2
 203 334 158 345 140 363 c 1
 117 340 l 1
EndSplineSet
EndChar
StartChar: s
Encoding: 115 115 83
Width: 320
Flags: W
HStem: 13 54<72.8754 127.873> 361 26<238.236 254> 407 20G<156 187 276 307> 407 20G<156 187 276 307>
VStem: 53 54<261 304> 213 54<96 139>
AnchorPoint: "blwmark" 160 0 basechar 0
AnchorPoint: "abvmark" 160 500 basechar 0
LayerCount: 2
Back
SplineSet
280 400 m 17
 280 400 248 360 220 360 c 24
 192 360 160 400 160 400 c 9
 80 320 l 1
 80 240 l 1
 240 160 l 1
 240 80 l 1
 160 0 l 17
 160 0 128 40 100 40 c 24
 72 40 40 0 40 0 c 1025
EndSplineSet
Fore
SplineSet
296 427 m 1xec
 307 416 l 1
 307 416 303 411 296 404 c 2
 254 361 l 2
 253 361 l 0
 241 349 221 333 204 333 c 0
 186 333 167 349 155 361 c 2
 144 372 l 2
 144 372 111 340 107 336 c 2
 107 261 l 1
 256 187 l 1
 267 176 l 1
 267 96 l 1
 144 -27 l 1
 133 -16 l 1
 133 -16 131 -13 128 -9 c 0
 116 2 99 13 84 13 c 0
 71 13 57 4 47 -4 c 2
 24 -27 l 1
 13 -16 l 1
 13 -16 17 -11 24 -4 c 2
 66 39 l 2
 78 51 98 67 116 67 c 0
 134 67 152 51 164 39 c 0
 176 27 l 1
 213 64 l 1
 213 139 l 1
 64 213 l 1
 53 224 l 1
 53 304 l 1
 176 427 l 1
 187 416 l 2
 187 416 189 413 192 409 c 0
 204 398 221 387 236 387 c 0
 249 387 262 395 273 404 c 2
 296 427 l 1xec
EndSplineSet
EndChar
StartChar: u
Encoding: 117 117 85
Width: 320
Flags: W
HStem: 417 20G<65 100 225 260> 417 20G<65 100 225 260>
VStem: 43 74<51.4784 365> 203 74<40 46 80 365>
AnchorPoint: "blwmark" 160 0 basechar 0
AnchorPoint: "abvmark" 160 500 basechar 0
LayerCount: 2
Back
SplineSet
95 370 m 25
 65 400 l 1049
300 40 m 25
 260 0 l 1
 240 20 l 17
 240 385 l 1025
255 370 m 25
 225 400 l 1049
80 385 m 25
 80 60 l 1
 140 0 l 25
 240 100 l 1049
EndSplineSet
Fore
SplineSet
320 77 m 1xb0
 337 60 l 1
 240 -37 l 1
 203 0 l 1
 203 46 l 1
 120 -37 l 1
 43 40 l 1
 43 365 l 1
 28 380 l 1
 85 437 l 1
 100 422 l 1
 117 405 l 1
 132 390 l 1
 117 375 l 1
 117 80 l 2
 117 57 148 49 160 37 c 1
 203 80 l 1
 203 365 l 1
 188 380 l 1
 245 437 l 1
 260 422 l 1
 277 405 l 1
 292 390 l 1
 277 375 l 1
 277 120 l 1
 277 40 l 1
 280 37 l 1
 320 77 l 1xb0
EndSplineSet
EndChar
StartChar: w
Encoding: 119 119 87
Width: 480
Flags: W
HStem: 417 20G<65 100 225 260> 417 20G<65 100 225 260 420 441>
VStem: 43 74<65.1574 365> 203 74<65.1574 365> 323 74<424.02 504.707> 363 74<100 390.117>
AnchorPoint: "blwmark" 240 0 basechar 0
LayerCount: 2
Back
SplineSet
255 370 m 25
 225 400 l 1049
240 385 m 25
 240 80 l 1
 320 0 l 25
 400 80 l 1
 400 380 l 17
 410 361 360 423 360 472 c 8
 360 509.5 403.5 550 404 550 c 1033
95 370 m 25
 65 400 l 1049
80 385 m 25
 80 80 l 1
 160 0 l 25
 240 80 l 1025
EndSplineSet
Fore
SplineSet
117 405 m 1xb4
 132 390 l 1
 117 375 l 1
 117 100 l 2
 117 66 162 55 180 37 c 1
 203 60 l 1
 203 365 l 1
 188 380 l 1
 245 437 l 1
 260 422 l 1
 277 405 l 1
 292 390 l 1
 277 375 l 1
 277 100 l 2
 277 66 322 55 340 37 c 1
 363 60 l 1
 363 357 l 1
 363 358 l 2xb4
 355 366 323 413 323 452 c 0xb8
 323 483 352 515 363 526 c 2xb4
 420 583 l 2
 424 587 l 2
 441 570 l 1
 431 560 l 2
 419 546 397 519 397 492 c 0xb8
 397 462 416 427 428 409 c 1
 437 400 l 2
 438 398 438 396 438 396 c 0
 437 395 438 396 437 395 c 2
 437 100 l 1
 300 -37 l 1
 220 43 l 1
 140 -37 l 1
 43 60 l 1
 43 365 l 1
 28 380 l 1
 85 437 l 1
 100 422 l 1
 117 405 l 1xb4
EndSplineSet
Substitution2: "Dotless forms-1" w.alt
EndChar
StartChar: x
Encoding: 120 120 88
Width: 320
Flags: W
HStem: 407 20G<76 116 236 276> 407 20G<76 116 236 276>
VStem: 133 54<96 160.1 240.147 304>
AnchorPoint: "blwmark" 160 0 basechar 0
AnchorPoint: "abvmark" 160 500 basechar 0
LayerCount: 2
Back
SplineSet
60 175 m 25
 60 175 98 225 120 225 c 24
 155 225 165 175 200 175 c 24
 222 175 260 225 261 225 c 1049
160 320 m 9
 240 400 l 25
 280 360 l 1049
160 80 m 9
 240 0 l 1
 280 40 l 1049
40 360 m 25
 80 400 l 25
 160 320 l 25
 160 80 l 25
 80 0 l 25
 40 40 l 1049
EndSplineSet
Fore
SplineSet
24 333 m 1xa0
 13 344 l 1
 96 427 l 1
 176 347 l 1
 256 427 l 1
 307 376 l 1
 264 333 l 1
 224 373 l 1
 187 336 l 1
 187 216 l 2
 188 215 189 214 190 213 c 0
 198 207 205 202 216 202 c 0
 222 202 228 206 234 210 c 2
 276 252 l 2
 277 252 l 2
 288 241 l 1
 284 236 276 226 265 215 c 2
 222 172 l 2
 211 161 198 150 187 148 c 1
 187 96 l 1
 256 27 l 1
 296 67 l 1
 307 56 l 1
 224 -27 l 1
 144 53 l 1
 64 -27 l 1
 13 24 l 1
 56 67 l 1
 96 27 l 1
 133 64 l 1
 133 184 l 2
 132 185 131 186 130 187 c 0
 123 193 114 198 104 198 c 0
 99 198 95 196 88 192 c 0
 87 191 l 1
 44 148 l 1
 33 159 l 1
 33 159 44 173 57 186 c 2
 99 229 l 2
 110 240 123 250 133 252 c 1
 133 304 l 1
 64 373 l 1
 24 333 l 1xa0
EndSplineSet
EndChar
StartChar: y
Encoding: 121 121 89
Width: 320
Flags: W
HStem: -237 74<162.719 196.891> -187 74<78 127> 417 20G<65 100 225 260> 417 20G<65 100 225 260>
VStem: 43 74<100 365> 203 74<-156.367 26 60 365>
AnchorPoint: "abvmark" 160 500 basechar 0
LayerCount: 2
Back
SplineSet
95 370 m 25
 65 400 l 1049
255 370 m 25
 225 400 l 1049
40 -200 m 17
 40 -200 70 -150 100 -150 c 8
 130.5 -150 149 -200 180 -200 c 24
 206.5 -200 240 -150 240 -150 c 1
 240 385 l 1025
240 80 m 9
 160 0 l 25
 80 80 l 1
 80 385 l 1049
EndSplineSet
Fore
SplineSet
20 -237 m 1x8c
 3 -220 l 1
 3 -220 13 -204 27 -190 c 2
 83 -133 l 2
 84 -132 l 0
 95 -121 107 -113 120 -113 c 0x4c
 134 -113 144 -123 155 -134 c 2
 168 -146 l 2
 178 -155 188 -163 200 -163 c 0
 203 -163 l 2
 203 26 l 1
 140 -37 l 1
 43 60 l 1
 43 365 l 1
 28 380 l 1
 85 437 l 1
 100 422 l 1
 117 405 l 1
 132 390 l 1
 117 375 l 1
 117 100 l 1
 180 37 l 1
 203 60 l 1
 203 365 l 1
 188 380 l 1
 245 437 l 1
 260 422 l 1
 277 405 l 1
 292 390 l 1
 277 375 l 1
 277 100 l 1
 277 -130 l 1
 277 -130 267 -145 253 -159 c 2
 196 -216 l 2
 185 -227 172 -237 160 -237 c 0xac
 146 -237 135 -227 124 -216 c 2
 112 -204 l 2
 102 -195 92 -187 80 -187 c 0x4c
 76 -187 72 -188 67 -190 c 2
 20 -237 l 1x8c
EndSplineSet
EndChar
StartChar: z
Encoding: 122 122 90
Width: 280
Flags: W
HStem: -227 54<122.588 159.857> -177 54<37.0729 84.6558> 333 54<72.084 124.651> 407 20G<36 67 170 196> 407 20G<36 67 170 196>
VStem: 173 54<-158.554 83>
AnchorPoint: "abvmark" 120 500 basechar 0
LayerCount: 2
Back
SplineSet
40 400 m 17
 40 400 65 360 100 360 c 0
 122 360 160 400 160 400 c 1
 200 360 l 1
 80 200 l 1
 200 100 l 1
 200 -150 l 1
 200 -150 162 -200 140 -200 c 0
 114 -200 97 -150 60 -150 c 16
 30 -150 0 -200 0 -200 c 1025
EndSplineSet
Fore
SplineSet
56 427 m 1xb4
 67 416 l 1
 67 416 70 411 76 404 c 0
 86 395 100 387 116 387 c 0
 133 387 160 411 170 421 c 2
 176 427 l 1
 227 376 l 1
 108 217 l 1
 216 127 l 1
 227 116 l 1
 227 -134 l 1
 227 -134 216 -148 203 -161 c 2
 161 -204 l 2
 149 -216 134 -227 124 -227 c 0xb4
 114 -227 107 -220 98 -211 c 2
 87 -200 l 2
 86 -200 l 0
 84 -198 81 -195 80 -194 c 0
 70 -184 59 -177 44 -177 c 0x64
 39 -177 33 -179 29 -181 c 0
 28 -183 27 -184 27 -184 c 1
 -16 -227 l 1xa4
 -27 -216 l 2
 -27 -216 -18 -200 -4 -186 c 2
 -3 -185 l 2
 39 -143 l 2
 49 -133 63 -123 76 -123 c 0x64
 93 -123 105 -133 116 -144 c 0
 116 -145 l 2
 128 -156 l 2
 130 -158 132 -160 134 -162 c 0
 141 -168 148 -173 156 -173 c 0
 161 -173 165 -171 172 -167 c 0
 173 -166 l 1
 173 83 l 1
 64 173 l 1
 53 184 l 1
 173 344 l 1
 144 373 l 1
 142 370 l 2
 133 361 103 333 84 333 c 0
 65 333 50 344 39 355 c 0
 28 367 l 2
 19 376 13 384 13 384 c 1
 56 427 l 1xb4
EndSplineSet
EndChar
StartChar: braceleft
Encoding: 123 123 91
Width: 240
Flags: W
HStem: -177 21G<152 204>
VStem: 93 54<-80 180 346 604>
LayerCount: 2
Back
SplineSet
200 700 m 25
 120 620 l 1
 120 330 l 25
 40 250 l 25
 120 200 l 25
 120 -100 l 1
 200 -150 l 1049
EndSplineSet
Fore
SplineSet
216 727 m 1
 227 716 l 1
 147 636 l 1
 147 346 l 1
 69 268 l 1
 136 227 l 1
 147 216 l 1
 147 -80 l 1
 216 -123 l 1
 227 -134 l 1
 184 -177 l 1
 104 -127 l 1
 93 -116 l 1
 93 180 l 1
 24 223 l 1
 13 234 l 1
 93 314 l 1
 93 604 l 1
 216 727 l 1
EndSplineSet
EndChar
StartChar: bar
Encoding: 124 124 92
Width: 200
Flags: W
HStem: -187 21G<63 100>
VStem: 63 74<-130 680>
LayerCount: 2
Back
SplineSet
100 -150 m 25
 100 700 l 1049
EndSplineSet
Fore
SplineSet
80 -187 m 1
 63 -170 l 1
 63 680 l 1
 120 737 l 1
 137 720 l 1
 137 -130 l 1
 80 -187 l 1
EndSplineSet
EndChar
StartChar: braceright
Encoding: 125 125 93
Width: 240
Flags: W
HStem: -187 21G<3 40>
VStem: 83 74<-50 200 376 624>
LayerCount: 2
Back
SplineSet
40 700 m 25
 120 650 l 1
 120 350 l 25
 200 300 l 25
 120 220 l 25
 120 -70 l 1
 40 -150 l 1049
EndSplineSet
Fore
SplineSet
3 680 m 1
 60 737 l 1
 140 687 l 1
 157 670 l 1
 157 376 l 1
 220 337 l 1
 237 320 l 1
 157 240 l 1
 157 -50 l 1
 20 -187 l 1
 3 -170 l 1
 83 -90 l 1
 83 200 l 1
 159 276 l 1
 100 313 l 1
 83 330 l 1
 83 624 l 1
 20 663 l 1
 3 680 l 1
EndSplineSet
EndChar
StartChar: asciitilde
Encoding: 126 126 94
Width: 560
Flags: W
HStem: 263 74<236.237 428.216> 288 74<131.369 323.763>
LayerCount: 2
Back
SplineSet
80 275 m 17
 80 275 125 325 160 325 c 27
 254 325 306 300 400 300 c 27
 435 300 480 350 480 350 c 1033
EndSplineSet
Fore
SplineSet
60 238 m 1x40
 43 255 l 1
 43 255 45 258 49 262 c 2
 106 318 l 2
 119 331 153 362 180 362 c 0x40
 274 362 326 337 420 337 c 0
 444 337 472 360 487 374 c 2
 500 387 l 1
 517 370 l 2
 517 370 515 368 511 364 c 2
 511 363 l 2
 454 307 l 2
 441 294 407 263 380 263 c 0x80
 286 263 234 288 140 288 c 0
 117 288 89 266 73 251 c 2
 60 238 l 1x40
EndSplineSet
EndChar
StartChar: sterling
Encoding: 163 163 203
Width: 440
Flags: W
HStem: 23 54<78.959 141 148 254.235> 273 54<188.099 281.758> 548 54<252.32 302.007> 573 54<195.428 252.32>
VStem: 133 54<116 285 341.766 563.333>
LayerCount: 2
Back
SplineSet
321 600 m 1
 320 600 302 575 280 575 c 3
 262 575 248 600 219 600 c 3
 187 600 160 550 160 550 c 1
 160 100 l 1025
400 80.7998046875 m 1
 320 0 l 17
 320 0 279 50 120 50 c 3
 65 50 40 0 40 0 c 1033
80 275 m 17
 80 275 112 325 140 325 c 27
 187 325 213 300 260 300 c 27
 288 300 320 350 320 350 c 1033
EndSplineSet
Fore
SplineSet
64 248 m 1xd8
 53 259 l 1
 53 259 63 275 77 289 c 2
 119 331 l 2
 120 332 l 0
 124 336 129 340 133 343 c 1
 133 534 l 1
 133 534 143 552 157 566 c 2
 199 609 l 2
 209 619 222 627 235 627 c 0xd8
 264 627 278 602 296 602 c 0xe8
 307 602 316 607 324 614 c 2
 336 626 l 2
 337 627 l 2xd8
 348 616 l 1
 346 614 l 2
 344 612 343 610 341 608 c 2
 298 566 l 2
 291 559 278 548 264 548 c 0xe8
 246 548 232 573 203 573 c 0
 198 573 194 572 190 570 c 0
 188 567 187 566 187 566 c 1
 187 348 l 1
 217 341 240 327 276 327 c 0
 281 327 286 329 291 331 c 0
 292 333 293 334 293 334 c 1
 336 377 l 1
 347 366 l 1
 347 366 337 350 323 336 c 2
 281 294 l 2
 270 283 256 273 244 273 c 0
 222 273 204 279 187 285 c 1
 187 116 l 1
 148 77 l 1
 281 75 326 36 334 28 c 2
 335 27 l 1
 373 65 l 1
 416 108 l 1
 427 96 l 1
 347 16 l 1
 304 -27 l 1
 301 -24 l 2
 289 -13 239 23 104 23 c 0
 88 23 76 19 65 13 c 2
 24 -27 l 1
 13 -16 l 1
 13 -16 19 -4 31 8 c 2
 73 50 l 2
 86 63 107 77 136 77 c 0
 138 77 139 77 141 77 c 2
 133 84 l 1
 133 298 l 2
 130 298 127 298 124 298 c 0
 119 298 115 297 109 294 c 0
 108 293 107 291 107 291 c 1
 64 248 l 1xd8
EndSplineSet
EndChar
StartChar: currency
Encoding: 164 164 207
Width: 400
Flags: W
HStem: 448 21G<93 124> 507 20G<176 230.762> 607 20G<36 67 356 387>
VStem: 53 54<200 384> 293 54<216 400>
LayerCount: 2
Back
SplineSet
360 0 m 25
 280 125 l 1049
40 0 m 25
 120 125 l 1049
360 600 m 25
 280 475 l 1049
40 600 m 25
 120 475 l 1049
180 500 m 25
 80 400 l 25
 80 180 l 25
 220 100 l 25
 320 200 l 25
 320 420 l 25
 180 500 l 25
EndSplineSet
Fore
SplineSet
164 473 m 1
 107 416 l 1
 107 200 l 1
 236 127 l 2
 236 127 287 178 293 184 c 1
 293 400 l 1
 164 473 l 1
53 384 m 1
 196 527 l 1
 269 485 l 1
 333 584 l 1
 376 627 l 1
 387 616 l 1
 307 491 l 1
 290 473 l 1
 336 447 l 1
 347 436 l 1
 347 216 l 1
 204 73 l 1
 131 115 l 1
 67 16 l 1
 24 -27 l 1
 13 -16 l 1
 93 109 l 1
 110 127 l 1
 64 153 l 1
 53 164 l 1
 53 384 l 1
56 627 m 1
 67 616 l 1
 147 491 l 1
 104 448 l 1
 93 459 l 1
 13 584 l 1
 56 627 l 1
344 -27 m 1
 333 -16 l 1
 253 109 l 1
 296 152 l 1
 307 141 l 1
 387 16 l 1
 344 -27 l 1
EndSplineSet
EndChar
StartChar: brokenbar
Encoding: 166 166 205
Width: 200
Flags: W
HStem: -187 21G<63 100>
VStem: 63 74<-130 180 370 680>
LayerCount: 2
Back
SplineSet
100 -150 m 17
 100 200 l 1025
100 350 m 1
 100 700 l 1033
EndSplineSet
Fore
SplineSet
80 313 m 1
 63 330 l 1
 63 680 l 1
 120 737 l 1
 137 720 l 1
 137 370 l 1
 80 313 l 1
80 -187 m 1
 63 -170 l 1
 63 180 l 1
 120 237 l 1
 137 220 l 1
 137 -130 l 1
 80 -187 l 1
EndSplineSet
EndChar
StartChar: section
Encoding: 167 167 206
Width: 400
Flags: W
HStem: -197 74<87.5315 185.256> 623 74<217.631 315.604>
VStem: 43 74<170 300 480 600> 283 74<-100 20 200 330>
LayerCount: 2
Back
SplineSet
160 400 m 25
 80 320 l 25
 80 140 l 25
 320 50 l 25
 320 -120 l 25
 240 -200 l 17
 240 -200 176 -160 130 -160 c 27
 92 -160 40 -200 40 -200 c 1033
360 700 m 17
 360 700 315 660 280 660 c 27
 231 660 160 700 160 700 c 9
 80 620 l 25
 80 450 l 25
 320 360 l 25
 320 180 l 25
 240 100 l 1049
EndSplineSet
Fore
SplineSet
397 720 m 1
 340 663 l 1
 340 663 295 623 260 623 c 0
 211 623 140 663 140 663 c 2
 140 663 120 643 117 640 c 2
 117 480 l 1
 340 397 l 1
 357 380 l 1
 357 200 l 1
 270 113 l 1
 340 87 l 1
 357 70 l 1
 357 -100 l 1
 220 -237 l 1
 220 -237 156 -197 110 -197 c 0
 72 -197 20 -237 20 -237 c 1
 3 -220 l 1
 60 -163 l 1
 60 -163 112 -123 150 -123 c 0
 196 -123 260 -163 260 -163 c 1
 283 -140 l 1
 283 20 l 1
 60 103 l 1
 43 120 l 1
 43 300 l 1
 130 387 l 1
 60 413 l 1
 43 430 l 1
 43 600 l 1
 180 737 l 1
 180 737 251 697 300 697 c 0
 335 697 380 737 380 737 c 1
 397 720 l 1
245 122 m 1
 283 160 l 1
 283 330 l 1
 155 378 l 1
 117 340 l 1
 117 170 l 1
 245 122 l 1
EndSplineSet
EndChar
StartChar: dieresis
Encoding: 168 168 101
Width: 320
Flags: W
HStem: 543 74
VStem: 43 234
LayerCount: 2
Back
SplineSet
230 590 m 25
 250 570 l 1049
70 590 m 25
 90 570 l 1049
EndSplineSet
Fore
SplineSet
43 574 m 1
 86 617 l 1
 117 586 l 1
 74 543 l 1
 43 574 l 1
203 574 m 1
 246 617 l 1
 277 586 l 1
 234 543 l 1
 203 574 l 1
EndSplineSet
EndChar
StartChar: ordfeminine
Encoding: 170 170 210
Width: 320
Flags: W
HStem: 173 54<56 264> 498 54<159.094 213> 553 21G<73 104> 557 20G<136 167>
VStem: 53 54<376 474> 213 54<327.14 362 384 498 552 651>
LayerCount: 2
Back
SplineSet
40 200 m 25
 280 200 l 1049
100 580 m 17
 80 640 l 1
 140 700 l 1
 240 675 l 1
 240 320 l 1
 260 300 l 1
 300 340 l 1049
240 400 m 25
 140 300 l 1
 80 360 l 1
 80 490 l 1
 140 550 l 1
 140 550 155 525 200 525 c 3
 176.9921875 525 240 525 240 525 c 1033
EndSplineSet
Fore
SplineSet
210 552 m 0xdc
 211 552 l 2
 213 552 l 1
 213 651 l 1
 124 673 l 1
 107 656 l 1
 127 596 l 1
 84 553 l 1xec
 73 564 l 1
 53 624 l 1
 156 727 l 1
 256 702 l 1
 267 691 l 1
 267 541 l 1
 267 416 l 1
 267 336 l 2
 267 332 273 330 276 327 c 2
 316 367 l 1
 327 356 l 1
 244 273 l 1
 213 304 l 1
 213 362 l 1
 124 273 l 1
 53 344 l 1
 53 474 l 1
 156 577 l 1
 167 566 l 2
 177 559 186 552 210 552 c 0xdc
13 184 m 1
 56 227 l 1
 296 227 l 1
 307 216 l 1
 264 173 l 1
 24 173 l 1
 13 184 l 1
213 498 m 1
 179 498 l 0
 151 499 136 510 129 517 c 0
 129 518 l 2
 124 523 l 1
 107 506 l 1
 107 376 l 1
 156 327 l 1
 213 384 l 1
 213 498 l 1
EndSplineSet
EndChar
StartChar: guillemotleft
Encoding: 171 171 215
Width: 440
Flags: W
HStem: 23 329
LayerCount: 2
Back
SplineSet
380 325 m 17
 380 325 363 295 340 275 c 0
 264 207 240 200 240 200 c 1
 240 200 291 174 360 100 c 0
 377 82 400 50 400 50 c 1033
180 325 m 17
 180 325 163 295 140 275 c 0
 64 207 40 200 40 200 c 1
 40 200 91 174 160 100 c 0
 177 82 200 50 200 50 c 1033
EndSplineSet
Fore
SplineSet
196 352 m 1
 207 341 l 1
 207 341 193 316 174 297 c 2
 131 255 l 2
 130 254 131 254 130 253 c 0
 128 251 126 250 124 248 c 0
 107 233 92 220 81 211 c 1
 99 198 125 178 157 146 c 2
 169 135 l 1
 169 134 l 2
 175 128 181 122 187 116 c 0
 204 98 227 66 227 66 c 1
 184 23 l 1
 173 34 l 1
 173 34 150 66 133 84 c 0
 129 89 124 93 120 98 c 0
 64 153 24 173 24 173 c 1
 13 184 l 1
 56 227 l 2
 56 227 75 233 137 286 c 0
 146 298 153 309 153 309 c 1
 196 352 l 1
396 352 m 1
 407 341 l 1
 407 341 393 316 374 297 c 2
 331 255 l 2
 330 254 331 254 330 253 c 0
 328 251 326 250 324 248 c 0
 307 233 292 220 281 211 c 1
 299 198 325 178 357 146 c 2
 369 135 l 1
 369 134 l 2
 375 128 381 122 387 116 c 0
 404 98 427 66 427 66 c 1
 384 23 l 1
 373 34 l 1
 373 34 350 66 333 84 c 0
 329 89 324 93 320 98 c 0
 264 153 224 173 224 173 c 1
 213 184 l 1
 256 227 l 2
 256 227 275 233 337 286 c 0
 346 298 353 309 353 309 c 1
 396 352 l 1
EndSplineSet
EndChar
StartChar: logicalnot
Encoding: 172 172 225
Width: 480
Flags: W
HStem: 363 74<100 363>
VStem: 363 74<220 363>
LayerCount: 2
Back
SplineSet
80 400 m 25
 400 400 l 25
 400 200 l 1049
EndSplineSet
Fore
SplineSet
43 380 m 1
 100 437 l 1
 420 437 l 1
 437 420 l 1
 437 220 l 1
 380 163 l 1
 363 180 l 1
 363 363 l 1
 60 363 l 1
 43 380 l 1
EndSplineSet
EndChar
StartChar: macron
Encoding: 175 175 227
Width: 320
Flags: W
HStem: 513 74<80 240>
VStem: 23 274
LayerCount: 2
Back
SplineSet
60 550 m 1
 260 550 l 1049
EndSplineSet
Fore
SplineSet
23 530 m 1
 80 587 l 1
 280 587 l 1
 297 570 l 1
 240 513 l 1
 40 513 l 1
 23 530 l 1
EndSplineSet
EndChar
StartChar: degree
Encoding: 176 176 229
Width: 400
Flags: W
HStem: 388 74<169.376 250.349> 688 74<149.651 230.624>
VStem: 43 74<523.737 649.068> 283 74<500.932 626.263>
LayerCount: 2
Back
SplineSet
80 600 m 0
 80 660 132 725 180 725 c 0
 260 725 320 650 320 550 c 0
 320 490 268 425 220 425 c 0
 140 425 80 500 80 600 c 0
EndSplineSet
Fore
SplineSet
43 580 m 0
 43 615 62 652 86 677 c 2
 142 733 l 2
 143 734 l 2
 160 751 180 762 200 762 c 0
 234 762 265 748 289 724 c 2
 306 707 l 2
 337 675 357 627 357 570 c 0
 357 535 338 498 314 473 c 2
 258 417 l 2
 257 416 l 2
 240 399 220 388 200 388 c 0
 166 388 135 402 111 426 c 2
 94 443 l 2
 63 475 43 523 43 580 c 0
117 620 m 0
 117 568 133 523 160 491 c 1
 182 472 210 462 240 462 c 0
 249 462 257 464 266 468 c 1
 276 486 283 509 283 530 c 0
 283 582 267 627 240 659 c 1
 218 678 190 688 160 688 c 0
 151 688 143 686 134 682 c 1
 124 664 117 641 117 620 c 0
EndSplineSet
EndChar
StartChar: plusminus
Encoding: 177 177 213
Width: 480
Flags: W
HStem: -2 54<96 384> 348 54<96 213 267 384> 582 20G<236 267>
VStem: 213 54<191 348 402 559>
LayerCount: 2
Back
SplineSet
80 25 m 25
 400 25 l 1049
240 575 m 25
 240 175 l 1049
80 375 m 25
 400 375 l 1049
EndSplineSet
Fore
SplineSet
53 359 m 1
 96 402 l 1
 213 402 l 1
 213 559 l 1
 256 602 l 1
 267 591 l 1
 267 402 l 1
 416 402 l 1
 427 391 l 1
 384 348 l 1
 267 348 l 1
 267 191 l 1
 224 148 l 1
 213 159 l 1
 213 348 l 1
 64 348 l 1
 53 359 l 1
53 9 m 1
 96 52 l 1
 416 52 l 1
 427 41 l 1
 384 -2 l 1
 64 -2 l 1
 53 9 l 1
EndSplineSet
EndChar
StartChar: paragraph
Encoding: 182 182 226
Width: 480
Flags: W
HStem: -177 54<218.846 272 288 353.092> 73 54<148.963 211.985> 573 54<169.9 252.32>
VStem: 53 54<183.666 482.376> 272 16<-123 549> 353 54<-59 544>
LayerCount: 2
Back
SplineSet
240 150 m 17
 240 150 232 100 180 100 c 3
 112 100 80 178 80 350 c 3
 80 469 113 600 219 600 c 3
 248 600 262 575 280 575 c 3
 302 575 320 600 321 600 c 1025
280 550 m 1
 280 -125 l 1025
420 600 m 1
 380 560 l 1
 380 -75 l 1025
440 -200 m 1
 440 -200 338 -150 260 -150 c 3
 205 -150 180 -200 180 -200 c 1025
EndSplineSet
Fore
SplineSet
467 -184 m 1
 424 -227 l 1
 424 -227 322 -177 244 -177 c 0
 228 -177 216 -181 205 -187 c 2
 164 -227 l 1
 153 -216 l 1
 153 -216 159 -204 171 -192 c 2
 213 -150 l 2
 226 -137 245 -124 272 -123 c 1
 272 549 l 2
 270 548 267 548 264 548 c 0
 246 548 232 573 203 573 c 0
 182 573 165 568 149 559 c 1
 118 510 107 436 107 366 c 0
 107 251 121 178 151 142 c 0
 163 132 179 127 196 127 c 0
 202 127 206 128 212 129 c 0
 213 132 213 134 213 134 c 1
 256 177 l 1
 267 166 l 1
 267 166 264 147 249 132 c 2
 207 89 l 2
 198 80 184 73 164 73 c 0
 144 73 128 80 114 94 c 2
 103 105 l 2
 102 105 l 2
 69 139 53 213 53 334 c 0
 53 417 69 507 115 553 c 2
 158 595 l 2
 178 615 203 627 235 627 c 0
 264 627 278 602 296 602 c 0
 307 602 317 608 324 614 c 2
 336 626 l 2
 337 627 l 2
 348 616 l 1
 346 614 l 2
 345 613 343 611 341 609 c 2
 341 608 l 2
 298 566 l 2
 295 563 292 560 288 557 c 1
 288 -124 l 1
 364 -129 456 -173 456 -173 c 1
 467 -184 l 1
436 627 m 1
 447 616 l 1
 407 576 l 1
 407 -59 l 1
 364 -102 l 1
 353 -91 l 1
 353 544 l 1
 436 627 l 1
EndSplineSet
EndChar
StartChar: periodcentered
Encoding: 183 183 212
Width: 240
Flags: W
HStem: 268 104
VStem: 68 104
LayerCount: 2
Back
SplineSet
105 335 m 25
 135 305 l 1049
EndSplineSet
Fore
SplineSet
68 315 m 1
 125 372 l 1
 172 325 l 1
 115 268 l 1
 68 315 l 1
EndSplineSet
EndChar
StartChar: cedilla
Encoding: 184 184 102
Width: 320
Flags: W
HStem: -202 54<57.3158 155.777>
VStem: 13 254
LayerCount: 2
Back
SplineSet
160 0 m 25
 140 -25 l 1
 240 -100 l 1
 160 -200 l 1
 160 -200 139 -175 100 -175 c 3
 52 -175 40 -200 40 -200 c 1025
EndSplineSet
Fore
SplineSet
176 27 m 1
 187 16 l 1
 168 -8 l 1
 256 -73 l 1
 267 -84 l 1
 187 -184 l 1
 144 -227 l 1
 140 -223 l 2
 132 -216 113 -202 84 -202 c 0
 61 -202 46 -208 38 -213 c 2
 24 -227 l 1
 13 -216 l 2
 13 -216 14 -213 18 -209 c 2
 19 -208 l 2
 61 -166 l 2
 68 -159 85 -148 116 -148 c 0
 144 -148 163 -161 171 -168 c 1
 212 -117 l 1
 124 -52 l 1
 113 -41 l 1
 133 -16 l 1
 176 27 l 1
EndSplineSet
EndChar
StartChar: multiply
Encoding: 215 215 223
Width: 480
Flags: W
HStem: 507 20G<76 107 396 427>
LayerCount: 2
Back
SplineSet
400 500 m 25
 80 100 l 1049
80 500 m 25
 400 100 l 1049
EndSplineSet
Fore
SplineSet
96 527 m 1
 107 516 l 1
 252 334 l 1
 373 484 l 1
 416 527 l 1
 427 516 l 1
 267 316 l 1
 427 116 l 1
 384 73 l 1
 373 84 l 1
 228 266 l 1
 107 116 l 1
 64 73 l 1
 53 84 l 1
 213 284 l 1
 53 484 l 1
 96 527 l 1
EndSplineSet
EndChar
StartChar: Oslash
Encoding: 216 216 182
Width: 640
Flags: W
HStem: -37 74<247.843 366.137> 455 21G<203 228> 617 20G<248 277 367 396.5 560 597>
VStem: 63 74<177.827 400.525> 228 24<71 159 241 463 543 567> 304 74<120 254 306 346 399 530> 485 74<198.688 449.54>
AnchorPoint: "abvmark" 360 700 basechar 0
LayerCount: 2
Back
SplineSet
560 600 m 25
 80 0 l 1049
240 550 m 1
 240 100 l 1025
342 550 m 1
 340 100 l 1025
240 600 m 1
 240 600 100 480 100 300 c 3
 100 134 176 0 320 0 c 3
 415 0 522 142 522 300 c 3
 522 512 449 600 360 600 c 3
 290 600 240 492 240 492 c 1025
EndSplineSet
Fore
SplineSet
277 620 m 1
 251 594 l 2
 250 593 248 591 247 590 c 2
 252 590 l 1
 252 543 l 2
 253 544 253 544 254 545 c 2
 254 546 l 2
 311 603 l 2
 330 622 354 637 380 637 c 0
 413 637 443 625 469 599 c 2
 485 582 l 2
 492 575 500 567 506 558 c 1
 523 580 l 1
 580 637 l 1
 597 620 l 1
 523 527 l 1
 545 479 559 411 559 320 c 0
 559 221 516 128 461 72 c 2
 461 71 l 2
 404 15 l 2
 372 -17 335 -37 300 -37 c 0
 244 -37 198 -16 163 19 c 2
 146 36 l 2
 143 39 140 42 137 45 c 1
 117 20 l 1
 60 -37 l 1
 43 -20 l 1
 117 72 l 1
 82 126 63 199 63 280 c 0
 63 427 157 535 191 569 c 2
 248 625 l 2
 260 637 l 1
 277 620 l 1
338 563 m 1
 324 563 311 558 300 552 c 1
 285 530 277 512 277 512 c 2
 252 487 l 1
 252 241 l 1
 304 306 l 1
 305 530 l 1
 338 563 l 1
379 557 m 1
 378 399 l 1
 449 488 l 1
 441 506 431 521 420 534 c 0
 407 545 394 552 379 557 c 1
228 567 m 1
 187 515 137 428 137 320 c 0
 137 254 149 192 173 142 c 1
 228 211 l 1
 228 463 l 1
 220 455 l 1
 203 472 l 2
 203 472 212 491 228 514 c 1
 228 567 l 1
228 71 m 1
 228 159 l 1
 190 112 l 1
 196 102 204 92 211 84 c 0
 216 79 222 75 228 71 c 1
245 60 m 1
 272 45 304 37 340 37 c 0
 365 37 391 47 415 64 c 1
 457 120 485 197 485 280 c 0
 485 351 477 408 463 452 c 1
 378 346 l 1
 377 120 l 1
 320 63 l 1
 303 80 l 1
 304 254 l 1
 252 189 l 1
 252 60 l 1
 245 60 l 1
EndSplineSet
EndChar
StartChar: eth
Encoding: 240 240 181
Width: 320
Flags: W
HStem: 407 20G<156 195.474> 407 20G<156 195.474> 523 54<144 176>
VStem: 53 54<64 304 578 620.802> 213 54<96 304 389 496.507>
AnchorPoint: "blwmark" 160 0 basechar 0
AnchorPoint: "abvmark" 200 700 basechar 0
LayerCount: 2
Back
SplineSet
250 640 m 1
 60 450 l 1025
240 320 m 1
 160 400 l 25
 80 320 l 1
 80 80 l 25
 160 0 l 25
 240 80 l 1
 240 450 l 10
 240 500 195 550 160 550 c 0
 125 550 80 563 80 600 c 27
 80 623 100 630 113 650 c 1049
EndSplineSet
Fore
SplineSet
213 304 m 1x38
 144 373 l 1
 107 336 l 1
 107 96 l 2
 107 58 156 47 176 27 c 1
 213 64 l 1
 213 304 l 1x38
213 389 m 1
 213 434 l 2
 213 460 201 486 185 505 c 0
 172 516 157 523 144 523 c 1
 44 423 l 1
 33 434 l 1
 123 525 l 1
 105 528 87 534 76 545 c 2
 65 556 l 2
 58 563 53 572 53 584 c 0
 53 598 61 607 69 615 c 2
 75 621 l 2
 79 625 83 629 86 634 c 2
 129 677 l 1
 140 666 l 1
 136 660 131 654 127 650 c 2
 120 643 l 2
 113 636 107 629 107 616 c 0
 107 607 110 599 114 593 c 0
 130 581 155 577 176 577 c 2
 266 667 l 1
 277 656 l 1
 194 573 l 1
 203 569 213 562 221 554 c 2
 222 553 l 1
 233 542 l 2
 252 523 267 495 267 466 c 2
 267 96 l 1
 144 -27 l 1
 53 64 l 1
 53 304 l 1
 176 427 l 1xb8
 213 389 l 1
EndSplineSet
EndChar
StartChar: divide
Encoding: 247 247 224
Width: 480
Flags: W
HStem: 273 54<96 384> 468 21G<214 254> 522 20G<226 266>
LayerCount: 2
Back
SplineSet
230 105 m 25
 250 85 l 1049
80 300 m 25
 400 300 l 1049
230 515 m 25
 250 495 l 1049
EndSplineSet
Fore
SplineSet
203 499 m 1
 246 542 l 1
 277 511 l 1
 234 468 l 1
 203 499 l 1
53 284 m 1
 96 327 l 1
 416 327 l 1
 427 316 l 1
 384 273 l 1
 64 273 l 1
 53 284 l 1
203 89 m 1
 246 132 l 1
 277 101 l 1
 234 58 l 1
 203 89 l 1
EndSplineSet
EndChar
StartChar: oslash
Encoding: 248 248 183
Width: 320
Flags: W
HStem: 417 20G<160 200 280 317> 417 20G<160 200 280 317>
VStem: 43 74<169 300> 203 74<100 231>
AnchorPoint: "blwmark" 160 0 basechar 0
AnchorPoint: "abvmark" 160 500 basechar 0
LayerCount: 2
Back
SplineSet
280 400 m 25
 40 0 l 1049
160 400 m 25
 80 320 l 25
 80 80 l 25
 160 0 l 25
 240 80 l 25
 240 320 l 25
 160 400 l 25
EndSplineSet
Fore
SplineSet
140 363 m 1x30
 117 340 l 1
 117 169 l 1
 202 311 l 1
 194 337 156 347 140 363 c 1x30
43 300 m 1
 180 437 l 1
 241 376 l 1
 243 380 l 1
 300 437 l 1xb0
 317 420 l 1
 272 345 l 1
 277 340 l 1
 277 100 l 1
 140 -37 l 1
 79 24 l 1
 77 20 l 1
 20 -37 l 1
 3 -20 l 1
 48 55 l 1
 43 60 l 1
 43 300 l 1
118 89 m 1
 126 63 164 53 180 37 c 1
 203 60 l 1
 203 231 l 1
 118 89 l 1
EndSplineSet
EndChar
StartChar: hbar
Encoding: 295 295 964
Width: 320
Flags: W
HStem: 417 20G<180 220> 417 20G<180 220> 438 74<40 43 117 140>
VStem: 43 74<35 320 354 438 512 590> 203 74<35 348.522>
AnchorPoint: "abvmark" 160 700 basechar 0
AnchorPoint: "blwmark" 160 0 basechar 0
LayerCount: 2
Back
SplineSet
225 30 m 25
 255 0 l 1049
65 30 m 25
 95 0 l 1049
65 625 m 25
 95 595 l 1049
80 610 m 9
 80 15 l 1049
240 15 m 25
 240 340 l 25
 180 400 l 1
 80 300 l 1049
160 475 m 25
 20 475 l 1049
EndSplineSet
Fore
SplineSet
197 495 m 1xb8
 140 438 l 1
 117 438 l 1
 117 354 l 1
 200 437 l 1
 277 360 l 1
 277 35 l 1
 292 20 l 1
 235 -37 l 1
 220 -22 l 1
 203 -5 l 1
 188 10 l 1
 203 25 l 1
 203 320 l 2
 203 343 172 351 160 363 c 1
 117 320 l 1
 117 35 l 1
 132 20 l 1
 75 -37 l 1
 60 -22 l 1
 52 -13 l 1
 28 10 l 1
 43 25 l 1
 43 280 l 1
 43 438 l 1
 0 438 l 1
 -17 455 l 1
 40 512 l 1
 43 512 l 1
 43 590 l 1
 28 605 l 1
 85 662 l 1
 100 647 l 1
 117 630 l 1
 132 615 l 1
 117 600 l 1
 117 512 l 1
 180 512 l 1
 197 495 l 1xb8
EndSplineSet
EndChar
StartChar: Lslash
Encoding: 321 321 288
Width: 560
Flags: W
HStem: -37 21G<3 40 268 400> 13 74<83.9052 148 172 283.844> 417 20G<352.333 397> 417 20G<352.333 397> 513 21G<3 40> 563 74<77.6875 128.282>
VStem: 148 24<87 226 288 539> 223 74<170 280 325 332 377 540> 403 74<157.001 262.404> 430 47<239.494 269>
AnchorPoint: "abvmark" 320 700 basechar 0
AnchorPoint: "blwmark" 280 0 basechar 0
LayerCount: 2
Back
SplineSet
40 550 m 1
 40 550 67 600 99 600 c 3
 128 600 142 575 160 575 c 3
 182 575 200 600 201 600 c 1025
160 550 m 1
 160 75 l 1025
260 150 m 1
 260 560 l 1
 300 600 l 1025
480 300 m 1
 480 300 440 268.799804688 440 240 c 3
 440 191.200195312 480 80.7998046875 480 80.7998046875 c 1
 400 0 l 17
 400 0 279 50 120 50 c 3
 65 50 40 0 40 0 c 1033
360 400 m 25
 80 200 l 1049
EndSplineSet
Fore
SplineSet
397 420 m 1xef80
 340 363 l 1
 297 332 l 1
 297 170 l 1
 240 113 l 1
 223 130 l 1
 223 280 l 1
 172 243 l 1
 172 86 l 1
 310 80 412 40 419 37 c 1
 443 61 l 1
 443 61 403 171 403 220 c 0xef80
 403 237 418 256 430 268 c 0
 430 269 l 2xef40
 487 325 l 2
 494 332 500 337 500 337 c 1
 517 320 l 1
 493 296 l 2
 484 285 477 272 477 260 c 0
 477 211 517 101 517 101 c 1
 437 20 l 1
 380 -37 l 1
 380 -37 259 13 100 13 c 0
 84 13 70 8 60 3 c 2
 20 -37 l 1
 3 -20 l 2
 3 -20 8 -9 20 3 c 2
 21 4 l 2
 78 60 l 2
 91 73 111 87 140 87 c 0
 143 87 145 87 148 87 c 2
 148 226 l 1
 60 163 l 1
 43 180 l 1
 100 237 l 1
 148 271 l 1
 148 539 l 2
 145 538 143 538 140 538 c 0
 122 538 108 563 79 563 c 0
 75 563 72 562 68 561 c 2
 20 513 l 1
 3 530 l 1
 3 530 13 548 27 562 c 2
 83 618 l 2
 93 628 106 637 119 637 c 0
 148 637 162 612 180 612 c 0
 191 612 201 618 208 624 c 2
 220 636 l 2
 220 637 l 0
 221 637 l 2
 238 620 l 1
 236 618 l 2
 235 617 233 615 231 613 c 2
 231 612 l 2
 174 556 l 2
 173 555 173 555 172 554 c 2
 172 288 l 1
 223 325 l 1
 223 540 l 1
 320 637 l 1
 337 620 l 1
 297 580 l 1
 297 377 l 1
 380 437 l 1
 397 420 l 1xef80
EndSplineSet
EndChar
StartChar: lslash
Encoding: 322 322 291
Width: 160
Flags: W
VStem: 43 74<39 256 290 330 364 590>
LayerCount: 2
Back
SplineSet
140 370 m 25
 20 250 l 1049
65 30 m 25
 95 0 l 25
 125 30 l 1049
65 625 m 25
 95 595 l 1049
80 610 m 9
 80 15 l 1049
EndSplineSet
Fore
SplineSet
28 605 m 1
 85 662 l 1
 100 647 l 1
 117 630 l 1
 132 615 l 1
 117 600 l 1
 117 364 l 1
 160 407 l 1
 177 390 l 1
 117 330 l 1
 117 39 l 1
 145 67 l 1
 162 50 l 1
 75 -37 l 1
 60 -22 l 1
 52 -13 l 1
 28 10 l 1
 43 25 l 1
 43 256 l 1
 0 213 l 1
 -17 230 l 1
 43 290 l 1
 43 590 l 1
 28 605 l 1
EndSplineSet
EndChar
StartChar: Eng
Encoding: 330 330 599
Width: 560
Flags: W
HStem: -187 74<90.9432 310.802> -37 21G<3 40 183 220> 13 74<83.9052 147.937> 513 21G<3 40> 563 74<77.6875 128.282>
VStem: 148 24<87 539> 223 74<60 540> 423 74<-100 451>
AnchorPoint: "abvmark" 320 700 basechar 0
LayerCount: 2
Back
SplineSet
40 550 m 1
 40 550 67 600 99 600 c 3
 128 600 142 575 160 575 c 3
 182 575 200 600 201 600 c 1025
160 550 m 1
 160 75 l 1025
40 0 m 17
 40 0 65 50 120 50 c 3
 198 50 220 0 220 0 c 1
 260 40 l 1
 260 560 l 1
 300 600 l 1
 460 475 l 1
 460 -120 l 1
 380 -200 l 1
 380 -200 330 -150 200 -150 c 3
 53 -150 40 -200 40 -200 c 1033
EndSplineSet
Fore
SplineSet
20 -37 m 1
 3 -20 l 1
 3 -20 9 -8 21 4 c 2
 78 60 l 2
 91 73 111 87 140 87 c 0
 143 87 145 87 148 87 c 2
 148 539 l 2
 145 538 143 538 140 538 c 0
 122 538 108 563 79 563 c 0
 75 563 72 562 68 561 c 2
 20 513 l 1
 3 530 l 1
 3 530 13 548 27 562 c 2
 83 618 l 2
 93 628 106 637 119 637 c 0
 148 637 162 612 180 612 c 0
 191 612 201 618 208 624 c 2
 220 636 l 2
 220 637 l 0
 221 637 l 2
 238 620 l 1
 236 618 l 2
 235 617 233 615 231 613 c 2
 231 612 l 2
 174 556 l 2
 173 555 173 555 172 554 c 2
 172 84 l 1
 196 79 213 68 223 58 c 1
 223 540 l 1
 320 637 l 1
 480 512 l 1
 497 495 l 1
 497 -100 l 1
 360 -237 l 1
 360 -237 310 -187 180 -187 c 0
 107 -187 66 -200 45 -212 c 1
 20 -237 l 1
 3 -220 l 2
 3 -220 5 -214 12 -207 c 2
 69 -150 l 2
 84 -135 122 -113 220 -113 c 0
 350 -113 400 -163 400 -163 c 1
 423 -140 l 1
 423 451 l 1
 297 550 l 1
 297 60 l 1
 200 -37 l 1
 183 -20 l 2
 183 -20 181 -16 177 -10 c 0
 162 2 137 13 100 13 c 0
 84 13 71 9 60 3 c 2
 20 -37 l 1
EndSplineSet
EndChar
StartChar: eng
Encoding: 331 331 600
Width: 320
Flags: W
HStem: -237 74<167.109 194.728> -187 74<78 120.79> 423 20G<65 100 180 220>
VStem: 43 74<35 326 360 371> 203 74<-154.554 326>
AnchorPoint: "abvmark" 160 500 basechar 0
LayerCount: 2
Back
SplineSet
80 306 m 25
 180 406 l 1
 240 346 l 1
 240 -150 l 1
 240 -150 202 -200 180 -200 c 0
 154 -200 137 -150 100 -150 c 16
 70 -150 40 -200 40 -200 c 1033
65 30 m 25
 95 0 l 1049
95 376 m 25
 65 406 l 1049
80 391 m 9
 80 15 l 1025
EndSplineSet
Fore
SplineSet
117 411 m 1xb8
 132 396 l 1
 117 381 l 1
 117 360 l 1
 200 443 l 1
 277 366 l 1
 277 -130 l 1
 277 -130 266 -144 253 -157 c 2
 197 -213 l 2
 185 -225 171 -237 160 -237 c 0xb8
 150 -237 143 -230 134 -221 c 2
 117 -204 l 2
 116 -204 l 0
 115 -202 l 0
 105 -193 94 -187 80 -187 c 0x78
 76 -187 71 -188 67 -190 c 2
 20 -237 l 1xb8
 3 -220 l 1
 3 -220 13 -204 27 -190 c 2
 83 -133 l 2
 94 -122 107 -113 120 -113 c 0x78
 137 -113 149 -123 160 -134 c 0
 161 -135 l 2
 178 -152 l 2
 178 -152 178 -152 179 -153 c 0
 186 -159 193 -163 200 -163 c 0
 201 -163 201 -163 203 -163 c 2
 203 326 l 1
 160 369 l 1
 117 326 l 1
 117 35 l 1
 132 20 l 1
 75 -37 l 1
 60 -22 l 1
 43 -5 l 1
 28 10 l 1
 43 25 l 1
 43 286 l 1
 43 371 l 1
 28 386 l 1
 85 443 l 1
 100 428 l 1
 117 411 l 1xb8
EndSplineSet
EndChar
StartChar: florin
Encoding: 402 402 260
Width: 320
Flags: W
HStem: -187 74<-62 -13.5> 363 74<100 122 200 260> 573 74<297.428 342.096>
LayerCount: 2
Back
SplineSet
-100 -200 m 17
 -100 -200 -70 -150 -40 -150 c 8
 -3 -150 3 -200 40 -200 c 24
 70 -200 100 -150 100 -150 c 1
 180 570 l 1
 260 650 l 17
 260 650 292 610 320 610 c 24
 348 610 380 650 381 650 c 1033
80 400 m 25
 280 400 l 1049
EndSplineSet
Fore
SplineSet
43 380 m 1
 100 437 l 1
 131 437 l 1
 143 550 l 1
 280 687 l 1
 297 670 l 1
 297 670 297 669 299 667 c 0
 311 657 326 647 340 647 c 0
 355 647 372 659 383 669 c 2
 400 686 l 2
 401 687 l 2
 418 670 l 1
 415 667 l 2
 413 665 411 662 408 659 c 2
 351 603 l 2
 339 591 319 573 300 573 c 0
 282 573 264 589 252 601 c 0
 240 613 l 1
 217 590 l 1
 200 437 l 1
 300 437 l 1
 317 420 l 1
 260 363 l 1
 192 363 l 1
 137 -130 l 1
 137 -130 127 -146 113 -160 c 2
 57 -217 l 2
 46 -228 33 -237 20 -237 c 0
 7 -237 -2 -231 -10 -223 c 2
 -27 -206 l 2
 -31 -202 -34 -198 -37 -194 c 0
 -43 -190 -51 -187 -60 -187 c 0
 -64 -187 -68 -188 -73 -190 c 2
 -120 -237 l 1
 -137 -220 l 1
 -137 -220 -127 -204 -113 -190 c 2
 -57 -133 l 2
 -56 -132 l 0
 -45 -121 -33 -113 -20 -113 c 0
 -7 -113 2 -119 10 -127 c 2
 27 -144 l 2
 27 -145 l 0
 30 -148 34 -153 37 -156 c 0
 43 -161 51 -163 60 -163 c 0
 64 -163 l 2
 122 363 l 1
 60 363 l 1
 43 380 l 1
EndSplineSet
EndChar
StartChar: hv
Encoding: 405 405 514
Width: 480
Flags: W
HStem: 407 20G<176 216> 407 20G<176 216 419 431>
VStem: 53 54<26 316 338 599> 213 54<96 354.693> 333 54<420.743 506.87> 373 54<96 394.86>
AnchorPoint: "blwmark" 240 0 basechar 0
AnchorPoint: "abvmark" 240 700 basechar 0
LayerCount: 2
Back
SplineSet
404 550 m 17
 404 550 360 507 360 472 c 16
 360 423 400 380 400 380 c 9
 400 80 l 1
 320 0 l 25
 240 80 l 1
 240 340 l 25
 180 400 l 1
 80 300 l 1049
70 20 m 25
 90 0 l 1049
70 625 m 25
 90 605 l 1049
80 615 m 9
 80 10 l 1049
EndSplineSet
Fore
SplineSet
43 609 m 1xb4
 86 652 l 1
 96 642 l 1
 107 631 l 1
 117 621 l 1
 107 611 l 1
 107 338 l 1
 196 427 l 1
 267 356 l 1
 267 96 l 1
 336 27 l 1
 373 64 l 1
 373 364 l 1xb4
 373 364 333 407 333 456 c 0
 333 489 373 530 377 534 c 2
 419 576 l 2
 420 577 l 1
 431 566 l 1
 424 559 387 520 387 488 c 0xb8
 387 439 427 396 427 396 c 1
 427 96 l 1
 304 -27 l 1
 213 64 l 1
 213 324 l 2
 213 351 178 359 164 373 c 1
 107 316 l 1
 107 26 l 1
 117 16 l 1
 74 -27 l 1
 64 -17 l 1
 53 -6 l 1
 43 4 l 1
 53 14 l 1
 53 284 l 1
 53 599 l 1
 43 609 l 1xb4
EndSplineSet
EndChar
StartChar: dotlessj
Encoding: 567 567 98
Width: 160
Flags: W
HStem: 417 20G<65 100> 417 20G<65 100>
VStem: 43 74<-90 361>
AnchorPoint: "abvmark" 80 500 basechar 0
LayerCount: 2
Back
SplineSet
95 370 m 25
 65 400 l 25
 35 370 l 1049
80 385 m 1
 80 -110 l 9
 50 -140 l 1049
EndSplineSet
Fore
SplineSet
117 405 m 1xa0
 132 390 l 1
 117 375 l 1
 117 -90 l 1
 30 -177 l 1
 13 -160 l 1
 43 -130 l 1
 43 361 l 1
 15 333 l 1
 -2 350 l 1
 85 437 l 1
 100 422 l 1
 117 405 l 1xa0
EndSplineSet
EndChar
StartChar: ascript
Encoding: 593 593 348
Width: 320
Flags: W
HStem: 354 41<196.237 210> 407 20G<156 187 236 267> 407 20G<156 187 236 267>
VStem: 53 54<45.3073 304> 213 54<36 62 84 357>
AnchorPoint: "blwmark" 160 0 basechar 0
AnchorPoint: "abvmark" 180 500 basechar 0
LayerCount: 2
Back
SplineSet
300 40 m 25
 260 0 l 1
 240 20 l 1
 240 400 l 1
 240 400 222 368 200 368 c 0
 178 368 160 400 160 400 c 9
 80 320 l 1
 80 60 l 17
 140 0 l 1
 240 100 l 1049
EndSplineSet
Fore
SplineSet
213 357 m 1x98
 210 354 l 2
 209 354 l 0
 202 347 193 341 184 341 c 0
 174 341 166 347 159 354 c 2
 148 365 l 1
 148 366 l 2
 147 366 l 0
 145 368 143 370 142 371 c 2
 107 336 l 1
 107 76 l 2
 107 49 142 41 156 27 c 1
 213 84 l 1
 213 357 l 1x98
213 62 m 1
 124 -27 l 1
 53 44 l 1
 53 304 l 1
 176 427 l 1
 187 416 l 2
 187 416 190 410 196 403 c 0
 201 399 209 395 216 395 c 0
 220 395 222 395 226 397 c 2
 256 427 l 1xd8
 267 416 l 1
 267 36 l 1
 276 27 l 1
 316 67 l 1
 327 56 l 1
 244 -27 l 1
 213 4 l 1
 213 62 l 1
EndSplineSet
EndChar
StartChar: Rsmallcap
Encoding: 640 640 854
Width: 360
Flags: W
HStem: 417 20G<65 100 160 204> 417 20G<65 100 160 204>
VStem: 43 74<35 340>
AnchorPoint: "blwmark" 180 0 basechar 0
AnchorPoint: "abvmark" 160 500 basechar 0
LayerCount: 2
Back
SplineSet
65 30 m 25
 95 0 l 1049
65 400 m 25
 95 370 l 1049
80 385 m 9
 80 15 l 1025
320 40 m 25
 280 0 l 1
 280 0 263 79 240 125 c 24
 223 159 180 200 180 200 c 1025
160 180 m 1
 280 300 l 1
 160 400 l 1
 80 320 l 1049
EndSplineSet
Fore
SplineSet
140 143 m 1xa0
 123 160 l 1
 143 180 l 1
 200 237 l 1
 242 279 l 1
 140 363 l 2
 140 363 120 343 117 340 c 2
 117 35 l 1
 132 20 l 1
 75 -37 l 1
 60 -22 l 1
 43 -5 l 1
 28 10 l 1
 43 25 l 1
 43 300 l 1
 43 365 l 1
 28 380 l 1
 85 437 l 1
 100 422 l 1
 117 405 l 1
 132 390 l 1
 117 375 l 1
 117 374 l 1
 180 437 l 1
 300 337 l 1
 317 320 l 1
 217 220 l 1
 221 216 l 2
 232 205 263 172 277 145 c 0
 291 116 303 75 310 47 c 1
 340 77 l 1
 357 60 l 1
 260 -37 l 1
 243 -20 l 1
 243 -20 226 59 203 105 c 0
 193 125 174 148 160 163 c 1
 140 143 l 1xa0
EndSplineSet
EndChar
StartChar: circumflex
Encoding: 710 710 100
Width: 320
Flags: W
HStem: 488 249
VStem: 123 74<628.627 680>
LayerCount: 2
Back
SplineSet
240 525 m 25
 240 525 160 600 160 700 c 1
 160 550 80 525 80 525 c 1025
EndSplineSet
Fore
SplineSet
277 545 m 1
 220 488 l 1
 220 488 219 489 218 490 c 2
 201 507 l 2
 194 514 172 537 153 572 c 1
 151 570 150 568 148 566 c 2
 91 509 l 2
 75 493 60 488 60 488 c 1
 43 505 l 1
 99 561 l 2
 102 568 106 576 109 584 c 0
 118 608 123 639 123 680 c 1
 180 737 l 1
 197 720 l 1
 197 698 201 677 207 658 c 0
 225 602 261 562 273 549 c 2
 277 545 l 1
EndSplineSet
EndChar
StartChar: breve
Encoding: 728 728 265
Width: 320
Flags: W
HStem: 498 54<127.587 203.799> 607 20G<76 107 256 287>
VStem: 53 54<574.939 591>
LayerCount: 2
Back
SplineSet
80 600 m 17
 80 600 92 525 180 525 c 3
 216 525 260 600 260 600 c 1033
EndSplineSet
Fore
SplineSet
96 627 m 1
 107 616 l 1
 107 616 110 594 127 574 c 0
 142 561 164 552 196 552 c 0
 203 552 210 555 216 558 c 0
 227 572 233 584 233 584 c 2
 276 627 l 1
 287 616 l 2
 287 616 270 587 248 564 c 2
 247 563 l 2
 205 521 l 2
 192 508 177 498 164 498 c 0
 128 498 105 511 90 526 c 2
 79 537 l 2
 58 558 53 584 53 584 c 1
 96 627 l 1
EndSplineSet
EndChar
StartChar: ogonek
Encoding: 731 731 283
Width: 320
Flags: W
HStem: -227 254
VStem: 73 54<-130 -76>
LayerCount: 2
Back
SplineSet
160 0 m 25
 100 -60 l 1
 100 -150 l 9
 180 -200 l 25
 220 -160 l 1049
EndSplineSet
Fore
SplineSet
176 27 m 1
 187 16 l 1
 127 -44 l 1
 127 -130 l 1
 196 -173 l 2
 196 -173 231 -138 236 -133 c 1
 247 -144 l 1
 164 -227 l 1
 84 -177 l 1
 73 -166 l 1
 73 -76 l 1
 176 27 l 1
EndSplineSet
EndChar
StartChar: tilde
Encoding: 732 732 168
Width: 320
Flags: W
HStem: 498 21G<13 44> 523 54<144.134 241.758> 548 54<78.272 175.866> 607 20G<276 307>
VStem: 13 294
LayerCount: 2
Back
SplineSet
40 525 m 17
 40 525 72 575 100 575 c 27
 147 575 173 550 220 550 c 27
 248 550 280 600 280 600 c 1033
EndSplineSet
Fore
SplineSet
24 498 m 1xb8
 13 509 l 1
 13 509 23 525 37 539 c 2
 79 581 l 2
 80 582 l 0
 91 593 104 602 116 602 c 0xb8
 163 602 189 577 236 577 c 0
 241 577 246 579 251 581 c 0
 252 583 253 584 253 584 c 1
 296 627 l 1
 307 616 l 1
 307 616 297 600 283 586 c 2
 241 544 l 2
 230 533 216 523 204 523 c 0xd8
 157 523 131 548 84 548 c 0
 79 548 75 547 69 544 c 0
 68 543 67 541 67 541 c 1
 24 498 l 1xb8
EndSplineSet
EndChar
StartChar: ringbelow
Encoding: 755 755 886
Width: 320
Flags: W
HStem: -302 54<136.088 211.696> -102 54<108.304 183.912>
VStem: 53 54<-217.464 -102.853> 213 54<-247.147 -132.536>
LayerCount: 2
Back
SplineSet
80 -150 m 0
 80 -90 92 -75 140 -75 c 0
 200 -75 240 -125 240 -200 c 0
 240 -260 228 -275 180 -275 c 0
 120 -275 80 -225 80 -150 c 0
EndSplineSet
Fore
SplineSet
53 -166 m 0
 53 -133 57 -114 68 -103 c 2
 110 -60 l 2
 119 -51 134 -48 156 -48 c 0
 182 -48 204 -57 221 -74 c 2
 232 -86 l 2
 254 -108 267 -142 267 -184 c 0
 267 -217 263 -236 252 -247 c 2
 210 -290 l 2
 201 -299 186 -302 164 -302 c 0
 138 -302 116 -293 99 -276 c 2
 88 -264 l 2
 66 -242 53 -208 53 -166 c 0
107 -134 m 0
 107 -173 117 -205 136 -227 c 0
 152 -240 173 -248 196 -248 c 0
 202 -248 206 -248 211 -247 c 1
 212 -239 213 -228 213 -216 c 0
 213 -177 203 -145 184 -123 c 0
 168 -110 147 -102 124 -102 c 0
 118 -102 114 -102 109 -103 c 1
 108 -111 107 -122 107 -134 c 0
EndSplineSet
EndChar
StartChar: hookcmb
Encoding: 777 777 381
Width: 0
Flags: W
HStem: 473 254 573 21G<-247 -216>
VStem: -107 54<596 651>
AnchorPoint: "abvmark" -160 500 mark 0
LayerCount: 2
Back
SplineSet
-160 500 m 1
 -80 580 l 1
 -80 675 l 1
 -180 700 l 25
 -240 640 l 1
 -220 600 l 1049
EndSplineSet
Fore
SplineSet
-176 473 m 1xa0
 -187 484 l 1
 -107 564 l 1
 -107 651 l 1
 -196 673 l 2
 -196 673 -211 658 -213 656 c 2
 -193 616 l 1
 -236 573 l 1x60
 -247 584 l 1
 -267 624 l 1
 -164 727 l 1
 -64 702 l 1
 -53 691 l 1
 -53 596 l 1
 -176 473 l 1xa0
EndSplineSet
EndChar
StartChar: dotbelowcmb
Encoding: 803 803 357
Width: 0
VWidth: 400
Flags: W
HStem: -167 74
VStem: -197 74
AnchorPoint: "blwmark" -160 0 mark 0
LayerCount: 2
Back
SplineSet
-170 -120 m 25
 -150 -140 l 1049
EndSplineSet
Fore
SplineSet
-197 -136 m 1
 -154 -93 l 1
 -123 -124 l 1
 -166 -167 l 1
 -197 -136 l 1
EndSplineSet
EndChar
StartChar: breveinvertedbelowcmb
Encoding: 815 815 537
Width: 0
VWidth: 400
Flags: W
HStem: -152 54<-183.799 -107.587>
VStem: -87 54<-191 -174.939>
AnchorPoint: "blwmark" -160 0 mark 0
LayerCount: 2
Back
SplineSet
-60 -200 m 17
 -60 -200 -72 -125 -160 -125 c 3
 -196 -125 -240 -200 -240 -200 c 1033
EndSplineSet
Fore
SplineSet
-76 -227 m 1
 -87 -216 l 1
 -87 -216 -90 -194 -107 -174 c 0
 -122 -161 -144 -152 -176 -152 c 0
 -183 -152 -190 -155 -196 -158 c 0
 -207 -172 -213 -184 -213 -184 c 2
 -256 -227 l 1
 -267 -216 l 2
 -267 -216 -250 -187 -228 -164 c 2
 -227 -163 l 2
 -185 -121 l 2
 -172 -108 -157 -98 -144 -98 c 0
 -108 -98 -85 -111 -70 -126 c 2
 -59 -137 l 2
 -38 -158 -33 -184 -33 -184 c 1
 -76 -227 l 1
EndSplineSet
EndChar
StartChar: Germandbls
Encoding: 7838 7838 136
Width: 560
Flags: W
HStem: -167 54<201.681 361.133> -27 21G<13 44.5 193 224> 23 54<78.473 151.321> 523 21G<13 44> 573 54<77.8262 132.32> 573 36<79 114.391>
VStem: 152 16<76 549> 233 54<56 544> 453 54<-124 205 371 456>
AnchorPoint: "abvmark" 320 700 basechar 0
LayerCount: 2
Back
SplineSet
40 0 m 17
 40 0 65 50 120 50 c 3
 198 50 220 0 220 0 c 1
 260 40 l 1
 260 560 l 1
 300 600 l 1
 480 475 l 1
 480 355 l 1
 400 275 l 9
 480 225 l 25
 480 -140 l 25
 420 -200 l 1
 399 -160 333 -140 280 -140 c 3
 178 -140 140 -200 140 -200 c 1025
40 550 m 1
 40 550 67 600 99 600 c 3
 128 600 142 575 160 575 c 3
 182 575 200 600 201 600 c 1025
160 550 m 1
 160 75 l 1025
EndSplineSet
Fore
SplineSet
24 523 m 1xfb80
 13 534 l 1
 13 534 23 552 37 566 c 2
 79 609 l 2
 80 609 l 0xf780
 90 619 102 627 115 627 c 0
 144 627 158 602 176 602 c 0
 187 602 197 608 204 614 c 2
 216 626 l 2
 217 627 l 2xfb80
 228 616 l 1
 226 614 l 2
 225 613 223 611 221 609 c 2xf780
 221 608 l 2
 178 566 l 2
 175 563 172 560 168 557 c 1
 168 74 l 1
 194 68 212 56 222 46 c 2
 233 34 l 1
 233 544 l 1
 316 627 l 1
 496 502 l 1
 507 491 l 1
 507 371 l 1
 429 293 l 1
 496 252 l 1
 507 241 l 1
 507 -124 l 1
 404 -227 l 1
 393 -216 l 2
 391 -212 388 -208 385 -204 c 0
 355 -179 306 -167 264 -167 c 0
 208 -167 171 -185 150 -201 c 2
 124 -227 l 1
 113 -216 l 1
 113 -216 116 -211 124 -203 c 2
 167 -160 l 2
 185 -142 225 -113 296 -113 c 0
 341 -113 394 -128 422 -156 c 2
 434 -167 l 2
 435 -168 437 -169 438 -171 c 2
 453 -156 l 1
 453 205 l 1
 384 248 l 1
 373 259 l 1
 453 339 l 1
 453 456 l 1
 287 571 l 1
 287 56 l 1
 204 -27 l 1
 193 -16 l 2
 193 -16 190 -11 184 -3 c 0
 169 9 144 23 104 23 c 0
 88 23 77 19 65 13 c 2
 24 -27 l 1
 13 -16 l 1
 13 -16 19 -4 31 8 c 2
 73 50 l 2
 74 51 l 0
 87 64 108 77 136 77 c 0
 142 77 147 77 152 76 c 1
 152 549 l 2
 150 548 147 548 144 548 c 0
 126 548 112 573 83 573 c 0
 78 573 75 572 70 570 c 0
 69 568 67 566 67 566 c 1
 24 523 l 1xfb80
EndSplineSet
EndChar
StartChar: figuredash
Encoding: 8210 8210 908
Width: 320
Flags: W
HStem: 163 74<100 220>
VStem: 43 234
LayerCount: 2
Back
SplineSet
80 200 m 25
 240 200 l 1049
EndSplineSet
Fore
SplineSet
43 180 m 1
 100 237 l 1
 260 237 l 1
 277 220 l 1
 220 163 l 1
 60 163 l 1
 43 180 l 1
EndSplineSet
EndChar
StartChar: emdash
Encoding: 8212 8212 258
Width: 480
Flags: W
HStem: 163 74<60 420>
LayerCount: 2
Back
SplineSet
40 200 m 25
 440 200 l 1049
EndSplineSet
Fore
SplineSet
3 180 m 1
 60 237 l 1
 460 237 l 1
 477 220 l 1
 420 163 l 1
 20 163 l 1
 3 180 l 1
EndSplineSet
EndChar
StartChar: horizontalbar
Encoding: 8213 8213 909
Width: 560
Flags: W
HStem: 173 54<56 504>
LayerCount: 2
Back
SplineSet
40 200 m 25
 520 200 l 1049
EndSplineSet
Fore
SplineSet
13 184 m 1
 56 227 l 1
 536 227 l 1
 547 216 l 1
 504 173 l 1
 24 173 l 1
 13 184 l 1
EndSplineSet
EndChar
StartChar: quoteright
Encoding: 8217 8217 255
Width: 240
Flags: W
HStem: 438 179
VStem: 51 118
LayerCount: 2
Back
SplineSet
102.5 580 m 25
 132.5 550 l 1
 132.5 520 l 25
 87.5 475 l 1049
EndSplineSet
Fore
SplineSet
66 560 m 1
 122 617 l 1
 169 570 l 1
 169 540 l 1
 68 438 l 1
 51 455 l 1
 96 500 l 1
 96 530 l 1
 66 560 l 1
EndSplineSet
EndChar
StartChar: quotereversed
Encoding: 8219 8219 928
Width: 240
Flags: W
HStem: 438 179
VStem: 71 118
LayerCount: 2
Back
SplineSet
137.5 580 m 25
 107.5 550 l 1
 107.5 520 l 25
 152.5 475 l 1049
EndSplineSet
Fore
SplineSet
118 617 m 1
 174 560 l 1
 144 530 l 1
 144 500 l 2
 144 499 185 459 189 455 c 1
 172 438 l 1
 71 540 l 1
 71 570 l 1
 118 617 l 1
EndSplineSet
EndChar
StartChar: quotedblleft
Encoding: 8220 8220 251
Width: 400
Flags: W
HStem: 408 179
VStem: 71 278
LayerCount: 2
Back
SplineSet
137.5 445 m 25
 107.5 475 l 1
 107.5 505 l 25
 152.5 550 l 1049
297.5 445 m 25
 267.5 475 l 1
 267.5 505 l 25
 312.5 550 l 1049
EndSplineSet
Fore
SplineSet
334 465 m 1
 278 408 l 1
 231 455 l 1
 231 485 l 1
 332 587 l 1
 349 570 l 1
 304 525 l 1
 304 495 l 1
 334 465 l 1
174 465 m 1
 118 408 l 1
 71 455 l 1
 71 485 l 1
 172 587 l 1
 189 570 l 1
 144 525 l 1
 144 495 l 1
 174 465 l 1
EndSplineSet
EndChar
StartChar: quotedblright
Encoding: 8221 8221 252
Width: 400
Flags: W
HStem: 473 124
VStem: 68 244
LayerCount: 2
Back
SplineSet
265 570 m 25
 285 550 l 1
 285 530 l 25
 255 500 l 1049
105 570 m 25
 125 550 l 1
 125 530 l 25
 95 500 l 1049
EndSplineSet
Fore
SplineSet
78 554 m 1
 121 597 l 1
 152 566 l 1
 152 546 l 1
 79 473 l 1
 68 484 l 1
 98 514 l 1
 98 534 l 1
 78 554 l 1
238 554 m 1
 281 597 l 1
 312 566 l 1
 312 546 l 1
 239 473 l 1
 228 484 l 1
 258 514 l 1
 258 534 l 1
 238 554 l 1
EndSplineSet
EndChar
StartChar: quotedblbase
Encoding: 8222 8222 253
Width: 400
VWidth: 450
Flags: W
HStem: -77 124
VStem: 68 244
LayerCount: 2
Back
SplineSet
265 20 m 25
 285 0 l 1
 285 -20 l 25
 255 -50 l 1049
105 20 m 25
 125 0 l 1
 125 -20 l 25
 95 -50 l 1049
EndSplineSet
Fore
SplineSet
78 4 m 1
 121 47 l 1
 152 16 l 1
 152 -4 l 1
 79 -77 l 1
 68 -66 l 1
 98 -36 l 1
 98 -16 l 1
 78 4 l 1
238 4 m 1
 281 47 l 1
 312 16 l 1
 312 -4 l 1
 239 -77 l 1
 228 -66 l 1
 258 -36 l 1
 258 -16 l 1
 238 4 l 1
EndSplineSet
EndChar
StartChar: quotedblrev
Encoding: 8223 8223 929
Width: 400
Flags: W
HStem: 438 179
VStem: 71 278
LayerCount: 2
Back
SplineSet
137.5 580 m 25
 107.5 550 l 1
 107.5 520 l 25
 152.5 475 l 1049
297.5 580 m 25
 267.5 550 l 1
 267.5 520 l 25
 312.5 475 l 1049
EndSplineSet
Fore
SplineSet
278 617 m 1
 334 560 l 1
 304 530 l 1
 304 500 l 2
 304 499 345 459 349 455 c 1
 332 438 l 1
 231 540 l 1
 231 570 l 1
 278 617 l 1
118 617 m 1
 174 560 l 1
 144 530 l 1
 144 500 l 2
 144 499 185 459 189 455 c 1
 172 438 l 1
 71 540 l 1
 71 570 l 1
 118 617 l 1
EndSplineSet
EndChar
StartChar: dagger
Encoding: 8224 8224 262
Width: 320
Flags: W
HStem: -187 21G<123 160> 417 20G<40 80 205 280> 417 20G<40 80 205 280> 617 20G<180 217>
VStem: 123 74<-130 326.958>
LayerCount: 2
Back
SplineSet
40 400 m 25
 80 360 l 25
 240 400 l 25
 280 360 l 1049
140 560 m 1
 140 560 150 463 152 400 c 24
 158 186 160 -150 160 -150 c 1
 160 -150 162 186 168 400 c 24
 170 478 180 600 180 600 c 9
 140 560 l 1
EndSplineSet
Fore
SplineSet
103 540 m 1xd8
 200 637 l 1
 217 620 l 1
 217 620 207 501 205 423 c 1
 260 437 l 1
 317 380 l 1
 260 323 l 1
 220 363 l 1
 203 359 l 1
 198 148 197 -130 197 -130 c 2
 140 -187 l 1
 123 -170 l 1
 123 -170 121 124 116 337 c 1
 60 323 l 1
 3 380 l 1
 60 437 l 1
 100 397 l 1
 114 400 l 1
 111 462 103 540 103 540 c 1xd8
EndSplineSet
EndChar
StartChar: daggerdbl
Encoding: 8225 8225 263
Width: 320
Flags: W
HStem: 417 20G<40 80 201 280> 417 20G<40 80 201 280> 617 20G<180 217>
VStem: 103 114<-147 -23.5937 423.594 547> 121 79<-139.974 -22 62 158.168 314.21 338 422 539.974>
LayerCount: 2
Back
SplineSet
40 40 m 25
 80 0 l 25
 240 40 l 25
 280 0 l 1049
40 400 m 25
 80 360 l 25
 240 400 l 25
 280 360 l 1049
140 560 m 1
 140 560 151 524 152 500 c 24
 158 383 160 200 160 200 c 1
 160 200 162 383 168 500 c 24
 170 539 180 600 180 600 c 9
 140 560 l 1
180 -160 m 1
 180 -160 169 -124 168 -100 c 24
 162 17 160 200 160 200 c 1
 160 200 158 17 152 -100 c 24
 150 -139 140 -200 140 -200 c 9
 180 -160 l 1
EndSplineSet
Fore
SplineSet
217 -140 m 1xb0
 120 -237 l 1
 103 -220 l 1xb0
 103 -220 113 -159 115 -120 c 0
 117 -90 118 -56 119 -22 c 1
 60 -37 l 1
 3 20 l 1
 60 77 l 1
 100 37 l 1
 121 42 l 1xa8
 123 117 123 180 123 180 c 1
 123 180 122 254 120 338 c 1
 60 323 l 1
 3 380 l 1
 60 437 l 1
 100 397 l 1
 118 401 l 1
 117 429 116 456 115 480 c 0
 114 504 103 540 103 540 c 1xb0
 200 637 l 1xa8
 217 620 l 1xb0
 217 620 207 559 205 520 c 0
 203 490 202 456 201 422 c 1
 260 437 l 1
 317 380 l 1
 260 323 l 1
 220 363 l 1
 199 358 l 1
 197 283 197 220 197 220 c 2
 197 220 198 146 200 62 c 1xa8
 260 77 l 1
 317 20 l 1
 260 -37 l 1
 220 3 l 1
 202 -1 l 1
 203 -29 204 -56 205 -80 c 0
 206 -104 217 -140 217 -140 c 1xb0
EndSplineSet
EndChar
StartChar: bullet
Encoding: 8226 8226 259
Width: 240
Flags: W
HStem: 238 144
VStem: 48 144
LayerCount: 2
Back
SplineSet
100 345 m 25
 155 290 l 25
 140 275 l 25
 85 330 l 25
 100 345 l 25
EndSplineSet
Fore
SplineSet
120 382 m 1
 192 310 l 1
 120 238 l 1
 48 310 l 1
 120 382 l 1
EndSplineSet
EndChar
StartChar: perthousand
Encoding: 8240 8240 244
Width: 840
Flags: W
HStem: -187 21G<3 40 360 400 640 680>
VStem: 43 74<415.157 600> 203 74<450 634.843> 283 74<-84.8426 100> 443 74<-50 134.843> 563 74<-84.8426 100> 723 74<-50 134.843>
LayerCount: 2
Back
SplineSet
680 200 m 25
 600 120 l 25
 600 -70 l 25
 680 -150 l 25
 760 -70 l 25
 760 120 l 25
 680 200 l 25
400 200 m 25
 320 120 l 25
 320 -70 l 25
 400 -150 l 25
 480 -70 l 25
 480 120 l 25
 400 200 l 25
40 -150 m 25
 520 700 l 1049
160 700 m 25
 80 620 l 25
 80 430 l 25
 160 350 l 25
 240 430 l 25
 240 620 l 25
 160 700 l 25
EndSplineSet
Fore
SplineSet
140 663 m 1
 117 640 l 1
 117 450 l 2
 117 416 162 405 180 387 c 1
 203 410 l 1
 203 600 l 2
 203 634 158 645 140 663 c 1
43 600 m 1
 180 737 l 1
 277 640 l 1
 277 450 l 1
 140 313 l 1
 43 410 l 1
 43 600 l 1
20 -187 m 1
 3 -170 l 1
 483 680 l 1
 540 737 l 1
 557 720 l 1
 77 -130 l 1
 20 -187 l 1
380 163 m 1
 357 140 l 1
 357 -50 l 2
 357 -84 402 -95 420 -113 c 1
 443 -90 l 1
 443 100 l 2
 443 134 398 145 380 163 c 1
283 100 m 1
 420 237 l 1
 517 140 l 1
 517 -50 l 1
 380 -187 l 1
 283 -90 l 1
 283 100 l 1
660 163 m 1
 637 140 l 1
 637 -50 l 2
 637 -84 682 -95 700 -113 c 1
 723 -90 l 1
 723 100 l 2
 723 134 678 145 660 163 c 1
563 100 m 1
 700 237 l 1
 797 140 l 1
 797 -50 l 1
 660 -187 l 1
 563 -90 l 1
 563 100 l 1
EndSplineSet
EndChar
StartChar: guilsinglleft
Encoding: 8249 8249 242
Width: 240
Flags: W
VStem: 3 234
LayerCount: 2
Back
SplineSet
180 325 m 17
 180 325 163 295 140 275 c 0
 64 207 40 200 40 200 c 1
 40 200 91 174 160 100 c 0
 177 82 200 50 200 50 c 1033
EndSplineSet
Fore
SplineSet
200 362 m 1
 217 345 l 1
 217 345 203 321 184 302 c 2
 128 245 l 1
 127 245 l 2
 126 244 127 244 126 243 c 0
 124 241 122 240 120 238 c 0
 110 229 100 221 93 215 c 1
 111 202 135 183 162 156 c 2
 178 139 l 2
 184 133 191 127 197 120 c 0
 214 102 237 70 237 70 c 1
 180 13 l 1
 163 30 l 1
 163 30 140 62 123 80 c 0
 120 84 116 88 113 91 c 0
 58 144 20 163 20 163 c 1
 3 180 l 1
 60 237 l 2
 60 237 77 241 131 287 c 0
 138 296 143 305 143 305 c 1
 200 362 l 1
EndSplineSet
EndChar
StartChar: guilsinglright
Encoding: 8250 8250 243
Width: 240
Flags: W
VStem: 3 234
LayerCount: 2
Back
SplineSet
60 325 m 17
 60 325 77 295 100 275 c 0
 176 207 200 200 200 200 c 1
 200 200 149 174 80 100 c 0
 63 82 40 50 40 50 c 1033
EndSplineSet
Fore
SplineSet
80 362 m 1
 97 345 l 1
 97 345 107 327 122 310 c 0
 173 264 200 246 212 240 c 0
 217 237 220 237 220 237 c 1
 237 220 l 1
 180 163 l 1
 180 163 150 147 108 110 c 0
 93 92 77 70 77 70 c 2
 20 13 l 1
 3 30 l 1
 3 30 26 62 43 80 c 0
 49 86 54 92 59 97 c 0
 60 98 60 98 61 99 c 2
 62 99 l 1
 118 156 l 2
 128 166 138 175 147 183 c 1
 131 194 110 211 80 238 c 0
 78 240 76 242 74 244 c 0
 73 245 l 2
 56 262 l 2
 37 281 23 305 23 305 c 1
 80 362 l 1
EndSplineSet
EndChar
StartChar: bracketquillleft
Encoding: 8261 8261 916
Width: 240
Flags: W
HStem: -187 74<117 180> 263 74<117 180> 663 74<117 180>
VStem: 43 74<-113 263 337 663>
LayerCount: 2
Back
SplineSet
200 300 m 25
 80 300 l 1049
200 700 m 25
 80 700 l 25
 80 -150 l 25
 200 -150 l 1033
EndSplineSet
Fore
SplineSet
237 720 m 1
 180 663 l 1
 117 663 l 1
 117 337 l 1
 220 337 l 1
 237 320 l 1
 180 263 l 1
 117 263 l 1
 117 -113 l 1
 220 -113 l 1
 237 -130 l 1
 180 -187 l 1
 60 -187 l 1
 43 -170 l 1
 43 280 l 1
 43 680 l 1
 100 737 l 1
 220 737 l 1
 237 720 l 1
EndSplineSet
EndChar
StartChar: et
Encoding: 8266 8266 960
Width: 320
Flags: W
HStem: -187 21G<83 120> 313 74<120.012 210.774> 417 20G<60 128 260 317> 417 20G<60 128 260 317>
VStem: 83 74<-130 55.3491>
LayerCount: 2
Back
SplineSet
60 400 m 1
 60 400 110 350 180 350 c 3
 223 350 280 400 280 400 c 1
 280 400 120 176 120 -100 c 3
 120 -150 l 1025
EndSplineSet
Fore
SplineSet
23 380 m 1xe8
 80 437 l 1
 80 437 130 387 200 387 c 0
 243 387 300 437 300 437 c 1
 317 420 l 1
 317 420 157 196 157 -80 c 2
 157 -130 l 1
 100 -187 l 1
 83 -170 l 1
 83 -120 l 2
 83 77 165 249 212 330 c 1
 196 321 176 313 160 313 c 0
 90 313 40 363 40 363 c 1
 23 380 l 1xe8
EndSplineSet
EndChar
StartChar: paragraphrev
Encoding: 8267 8267 951
Width: 560
Flags: W
HStem: 63 74<331 392.932> 538 99<96.0768 147.25> 538 21G<3 40 316.5 330> 563 56<83 118.391> 563 49<332.437 395.812>
VStem: 148 24<-114.952 539> 223 74<-55 82 163 540> 424 74<186.49 546.341>
LayerCount: 2
Back
SplineSet
40 550 m 1
 40 550 65 600 99 600 c 3
 128 600 142 575 160 575 c 3
 182 575 200 600 201 600 c 1025
160 550 m 1
 160 -125 l 1025
320 -200 m 1
 320 -200 218 -150 140 -150 c 3
 85 -150 60 -200 60 -200 c 1025
301 150 m 17
 301 150 309 100 361 100 c 3
 429 100 461 178 461 350 c 3
 461 469 456 600 402 600 c 3
 373 600 359 575 341 575 c 3
 319 575 301 600 300 600 c 1
 260 560 l 1
 260 -75 l 1025
EndSplineSet
Fore
SplineSet
297 82 m 1xc7
 297 -55 l 1
 240 -112 l 1
 223 -95 l 1
 223 540 l 1
 320 637 l 2xc7
 320 636 l 0
 332 624 l 2
 339 618 350 612 361 612 c 0x8f
 379 612 393 637 422 637 c 0
 431 637 437 633 444 627 c 2
 445 627 l 2
 462 610 l 2
 495 577 498 469 498 370 c 0
 498 249 482 173 449 140 c 2
 392 84 l 2
 378 70 361 63 341 63 c 0
 321 63 308 70 299 79 c 2
 297 82 l 1xc7
297 163 m 1
 321 187 l 1
 338 170 l 1
 338 170 339 161 344 152 c 0
 345 150 347 148 348 146 c 0
 357 141 367 137 381 137 c 0
 387 137 394 138 399 139 c 1
 416 180 424 243 424 330 c 0
 424 421 421 519 396 560 c 0
 392 562 387 563 382 563 c 0
 353 563 339 538 321 538 c 0xaf
 312 538 303 543 297 548 c 1
 297 163 l 1
357 -180 m 1
 300 -237 l 1
 300 -237 198 -187 120 -187 c 0
 104 -187 90 -192 80 -197 c 2
 40 -237 l 1
 23 -220 l 2
 23 -220 28 -209 40 -197 c 2
 41 -196 l 2
 98 -140 l 2
 109 -129 125 -117 148 -114 c 1
 148 539 l 2
 145 538 143 538 140 538 c 0xc7
 122 538 108 563 79 563 c 0x8f
 75 563 73 563 69 562 c 2
 20 513 l 1
 3 530 l 1
 3 530 12 548 26 562 c 2
 83 619 l 2
 84 619 l 0x97
 94 629 106 637 119 637 c 0xc7
 148 637 162 612 180 612 c 0x8f
 191 612 201 618 208 624 c 2
 220 636 l 2
 220 637 l 0
 221 637 l 2xc7
 238 620 l 1
 236 618 l 2
 235 617 233 615 231 613 c 2
 231 612 l 2
 174 556 l 2
 173 555 173 555 172 554 c 2
 172 -114 l 1
 248 -119 340 -163 340 -163 c 1
 357 -180 l 1
EndSplineSet
EndChar
StartChar: dotcross
Encoding: 8284 8284 954
Width: 480
Flags: W
HStem: 273 54<56 213 267 424> 452 20G<126 166 236 267 326 366>
VStem: 213 54<66 273 327 534>
LayerCount: 2
Back
SplineSet
240 550 m 25
 240 50 l 1049
40 300 m 25
 440 300 l 1049
330 445 m 25
 350 425 l 1049
330 175 m 25
 350 155 l 1049
130 445 m 25
 150 425 l 1049
130 175 m 25
 150 155 l 1049
EndSplineSet
Fore
SplineSet
103 159 m 1
 146 202 l 1
 177 171 l 1
 134 128 l 1
 103 159 l 1
103 429 m 1
 146 472 l 1
 177 441 l 1
 134 398 l 1
 103 429 l 1
303 159 m 1
 346 202 l 1
 377 171 l 1
 334 128 l 1
 303 159 l 1
303 429 m 1
 346 472 l 1
 377 441 l 1
 334 398 l 1
 303 429 l 1
13 284 m 1
 56 327 l 1
 213 327 l 1
 213 534 l 1
 256 577 l 1
 267 566 l 1
 267 327 l 1
 456 327 l 1
 467 316 l 1
 424 273 l 1
 267 273 l 1
 267 66 l 1
 224 23 l 1
 213 34 l 1
 213 273 l 1
 24 273 l 1
 13 284 l 1
EndSplineSet
EndChar
StartChar: Euro
Encoding: 8364 8364 264
Width: 440
Flags: W
HStem: 198 54<56 93 147 264> 348 54<56 93 147 304> 498 21G<337.333 384> 607 20G<276 322.667>
VStem: 93 54<120 198 252 348 402 424>
LayerCount: 2
Back
SplineSet
40 225 m 25
 280 225 l 1049
40 375 m 25
 320 375 l 1049
380 525 m 9
 280 600 l 25
 120 440 l 25
 120 100 l 25
 280 0 l 25
 400 120 l 1041
EndSplineSet
Fore
SplineSet
407 541 m 1
 364 498 l 1
 264 573 l 2
 264 573 158 467 147 456 c 1
 147 402 l 1
 336 402 l 1
 347 391 l 1
 304 348 l 1
 147 348 l 1
 147 252 l 1
 296 252 l 1
 307 241 l 1
 264 198 l 1
 147 198 l 1
 147 120 l 1
 296 27 l 2
 296 27 366 97 373 104 c 2
 416 147 l 1
 427 136 l 1
 264 -27 l 1
 104 73 l 1
 93 84 l 1
 93 198 l 1
 24 198 l 1
 13 209 l 1
 56 252 l 1
 93 252 l 1
 93 348 l 1
 24 348 l 1
 13 359 l 1
 56 402 l 1
 93 402 l 1
 93 424 l 1
 296 627 l 1
 396 552 l 1
 407 541 l 1
EndSplineSet
EndChar
StartChar: proportion
Encoding: 8759 8759 898
Width: 480
Flags: W
LayerCount: 2
Back
SplineSet
345 350 m 25
 375 320 l 1049
345 30 m 25
 375 0 l 1049
105 350 m 25
 135 320 l 1049
105 30 m 25
 135 0 l 1049
EndSplineSet
Fore
SplineSet
68 10 m 1
 125 67 l 1
 172 20 l 1
 115 -37 l 1
 68 10 l 1
68 330 m 1
 125 387 l 1
 172 340 l 1
 115 283 l 1
 68 330 l 1
308 10 m 1
 365 67 l 1
 412 20 l 1
 355 -37 l 1
 308 10 l 1
308 330 m 1
 365 387 l 1
 412 340 l 1
 355 283 l 1
 308 330 l 1
EndSplineSet
EndChar
StartChar: bracketangleleft
Encoding: 9296 9296 930
Width: 320
Flags: W
HStem: -187 21G<243 280>
VStem: 3 314
LayerCount: 2
Back
SplineSet
260 675 m 17
 260 675 196 554 180 525 c 0
 144 459 40 250 40 250 c 1
 40 250 163 60 200 0 c 0
 214 -22 280 -150 280 -150 c 1033
EndSplineSet
Fore
SplineSet
280 712 m 1
 297 695 l 1
 297 695 233 574 217 545 c 0
 181 479 77 270 77 270 c 1
 77 270 200 80 237 20 c 0
 251 -2 317 -130 317 -130 c 1
 260 -187 l 1
 243 -170 l 1
 243 -170 177 -42 163 -20 c 0
 126 40 3 230 3 230 c 1
 3 230 107 439 143 505 c 0
 159 534 223 655 223 655 c 1
 280 712 l 1
EndSplineSet
EndChar
StartChar: bracketangleright
Encoding: 9297 9297 931
Width: 320
Flags: W
HStem: -187 21G<3 40>
VStem: 3 314
LayerCount: 2
Back
SplineSet
60 675 m 17
 60 675 124 554 140 525 c 0
 176 459 280 250 280 250 c 1
 280 250 157 60 120 0 c 0
 106 -22 40 -150 40 -150 c 1033
EndSplineSet
Fore
SplineSet
80 712 m 1
 97 695 l 1
 97 695 161 574 177 545 c 0
 213 479 317 270 317 270 c 1
 317 270 194 80 157 20 c 0
 143 -2 77 -130 77 -130 c 1
 20 -187 l 1
 3 -170 l 1
 3 -170 69 -42 83 -20 c 0
 120 40 243 230 243 230 c 1
 243 230 139 439 103 505 c 0
 87 534 23 655 23 655 c 1
 80 712 l 1
EndSplineSet
EndChar
StartChar: FleuronCenter
Encoding: 10086 10086 955
Width: 560
Flags: W
HStem: 467 20G<169 185> 538 21G<3 40 378 500> 617 20G<60 314 520 557>
VStem: 23 274<91 304.5>
LayerCount: 2
Back
SplineSet
320 700 m 1
 320 700 360 644 360 600 c 27
 360 521 280 425 280 425 c 1025
40 575 m 25
 60 600 l 25
 500 575 l 25
 520 600 l 1049
440 100 m 1
 440 100 367 0 280 0 c 3
 183 0 60 141 60 300 c 27
 60 376 99 450 160 450 c 27
 210 450 240 325 240 325 c 1
 240 325 270 450 320 450 c 27
 364 450 400 399 400 350 c 3
 400 277 349 244 300 200 c 8
 266 169 260 128 260 75 c 19
 260 47 300 25 300 25 c 1025
EndSplineSet
Fore
SplineSet
460 137 m 1
 477 120 l 1
 477 120 466 105 448 87 c 2
 391 30 l 2
 361 1 313 -37 260 -37 c 0
 249 -37 239 -35 228 -32 c 0
 198 -23 168 -4 140 24 c 2
 123 41 l 2
 67 97 23 185 23 280 c 0
 23 329 40 378 68 406 c 2
 124 462 l 2
 139 477 158 487 180 487 c 0
 190 487 199 482 208 473 c 2
 225 456 l 2
 226 455 l 0
 236 445 245 431 252 416 c 1
 269 439 307 493 319 547 c 1
 45 563 l 1
 20 538 l 1
 3 555 l 1
 23 580 l 1
 80 637 l 1
 314 623 l 1
 302 654 283 680 283 680 c 1
 340 737 l 1
 357 720 l 1
 357 720 397 664 397 620 c 0
 397 619 l 2
 515 612 l 1
 540 637 l 1
 557 620 l 1
 537 595 l 1
 480 538 l 1
 378 544 l 1
 369 523 358 502 347 486 c 1
 362 484 376 477 388 465 c 2
 405 447 l 0
 424 428 437 399 437 370 c 0
 437 325 417 295 390 268 c 2
 334 211 l 2
 333 211 l 2
 327 205 321 200 316 195 c 0
 300 168 297 135 297 95 c 0
 297 87 301 77 306 71 c 0
 314 65 320 62 320 62 c 2
 337 45 l 1
 334 42 l 1
 359 49 381 62 401 78 c 0
 403 80 l 1
 460 137 l 1
EndSplineSet
EndChar
StartChar: FleuronRight
Encoding: 10087 10087 956
Width: 640
Flags: W
HStem: 477 30G<116 147 327.5 347.5>
VStem: 93 54<41 159.111> 102 53<111.5 202 268 379.727> 113 54<334.9 459>
LayerCount: 2
Back
SplineSet
40 150 m 25
 60 200 l 25
 260 300 l 1049
140 0 m 25
 120 25 l 25
 140 475 l 25
 120 500 l 1049
600 350 m 1
 600 350 498 25 360 25 c 27
 299 25 240 74 240 150 c 27
 240 212 340 250 340 250 c 1
 340 250 240 288 240 350 c 27
 240 405 281 450 320 450 c 3
 378 450 405 386 440 325 c 8
 463 285 461 225 500 225 c 3
 534 225 580 325 580 325 c 1025
EndSplineSet
Fore
SplineSet
571 327 m 2x90
 573 332 573 334 573 334 c 1
 616 377 l 1
 627 366 l 1
 627 366 621 349 612 324 c 0
 589 263 541 149 478 86 c 2
 435 44 l 2
 435 43 l 2
 407 15 376 -2 344 -2 c 0
 313 -2 282 11 260 33 c 2
 249 45 l 0
 228 67 213 97 213 134 c 0
 213 155 224 173 239 188 c 2
 281 230 l 2
 284 233 288 236 291 239 c 1
 277 247 263 257 250 270 c 2
 246 274 l 1
 244 273 l 1
 155 229 l 1xa0
 147 41 l 1xc0
 167 16 l 1
 124 -27 l 1
 113 -16 l 1x90
 93 9 l 1xc0
 102 202 l 1xa0
 76 189 l 1
 67 166 l 1
 24 123 l 1
 13 134 l 1
 33 184 l 1
 76 227 l 1
 103 241 l 1
 113 459 l 1x90
 93 484 l 1
 136 527 l 1
 147 516 l 1xc0
 167 491 l 1
 157 268 l 1
 223 301 l 1
 217 311 213 322 213 334 c 0
 213 365 226 394 244 412 c 2
 287 454 l 2
 301 468 319 477 336 477 c 0
 359 477 376 468 392 452 c 2
 403 440 l 2
 427 416 446 378 467 341 c 0
 483 314 487 276 500 256 c 0
 504 253 510 252 516 252 c 0
 518 252 521 253 522 253 c 0
 540 280 553 309 553 309 c 2
 571 327 l 2x90
EndSplineSet
EndChar
StartChar: bracketwhiteright
Encoding: 10215 10215 919
Width: 320
Flags: W
HStem: -177 54<56 132 148 213> 673 54<56 132 148 213>
VStem: 132 16<-123 673> 213 54<-123 673>
LayerCount: 2
Back
SplineSet
140 650 m 25
 140 -100 l 1049
40 700 m 25
 240 700 l 25
 240 -150 l 25
 40 -150 l 1033
EndSplineSet
Fore
SplineSet
13 684 m 1
 56 727 l 1
 256 727 l 1
 267 716 l 1
 267 -134 l 1
 224 -177 l 1
 24 -177 l 1
 13 -166 l 1
 56 -123 l 1
 132 -123 l 1
 132 673 l 1
 24 673 l 1
 13 684 l 1
148 -123 m 1
 213 -123 l 1
 213 673 l 1
 148 673 l 1
 148 -123 l 1
EndSplineSet
EndChar
StartChar: luslst
Encoding: 11788 11788 902
Width: 240
Flags: W
HStem: 423 304
VStem: 13 214
LayerCount: 2
Back
SplineSet
40 700 m 25
 200 450 l 1049
EndSplineSet
Fore
SplineSet
56 727 m 1
 67 716 l 1
 227 466 l 1
 184 423 l 1
 173 434 l 1
 13 684 l 1
 56 727 l 1
EndSplineSet
EndChar
StartChar: ruslst
Encoding: 11789 11789 903
Width: 240
Flags: W
HStem: 423 304
VStem: 13 214
LayerCount: 2
Back
SplineSet
40 450 m 25
 200 700 l 1049
EndSplineSet
Fore
SplineSet
24 423 m 1
 13 434 l 1
 173 684 l 1
 216 727 l 1
 227 716 l 1
 67 466 l 1
 24 423 l 1
EndSplineSet
EndChar
StartChar: ramus
Encoding: 11801 11801 911
Width: 480
Flags: W
HStem: -177 21G<53 84> 513 20G<171 202> 595 20G<454 485>
VStem: 33 54<112.831 334> 148 54<308.605 490> 261 54<556.246 646>
LayerCount: 2
Back
SplineSet
288 662 m 1
 288 662 288 625 288 600 c 27
 288 551 316 475 316 475 c 1
 316 475 388 516 428 550 c 24
 444 564 458 588 458 588 c 1025
60 350 m 1
 60 350 60 274 60 225 c 27
 60 127 123 -25 123 -25 c 1
 123 -25 261 57 340 125 c 24
 372 153 400 200 400 200 c 1025
175 506 m 1
 175 506 175 449 175 412 c 27
 175 339 220 225 220 225 c 1
 220 225 326 287 385 338 c 24
 409 359 430 394 430 394 c 1025
80 -150 m 25
 400 700 l 1049
EndSplineSet
Fore
SplineSet
64 -177 m 1
 53 -166 l 1
 99 -44 l 1
 96 -41 l 1
 96 -41 33 111 33 209 c 2
 33 334 l 1
 76 377 l 1
 87 366 l 1
 87 241 l 2
 87 179 112 94 131 41 c 1
 194 209 l 1
 193 209 l 1
 193 209 148 323 148 396 c 2
 148 490 l 1
 191 533 l 1
 202 522 l 1
 202 428 l 2
 202 388 215 336 227 297 c 1
 289 460 l 1
 286 469 261 538 261 584 c 2
 261 646 l 1
 304 689 l 1
 315 678 l 1
 315 616 l 2
 315 597 319 575 324 554 c 1
 373 684 l 1
 416 727 l 1
 427 716 l 1
 351 513 l 1
 370 525 400 544 424 562 c 0
 428 568 431 572 431 572 c 1
 474 615 l 1
 485 604 l 1
 485 604 474 585 461 571 c 0
 460 570 460 570 459 569 c 2
 417 527 l 2
 416 526 413 524 412 523 c 0
 390 504 358 483 334 468 c 1
 257 265 l 1
 287 284 344 319 385 352 c 1
 396 366 403 378 403 378 c 2
 446 421 l 1
 457 410 l 1
 457 410 440 383 420 362 c 0
 419 361 420 361 419 360 c 2
 376 318 l 2
 374 316 371 313 369 311 c 0
 332 279 276 243 240 220 c 1
 164 17 l 1
 205 42 286 95 343 141 c 1
 361 163 373 184 373 184 c 1
 416 227 l 1
 427 216 l 1
 427 216 404 177 376 149 c 2
 334 107 l 2
 331 104 327 101 324 98 c 0
 272 53 194 2 147 -27 c 1
 107 -134 l 1
 64 -177 l 1
EndSplineSet
EndChar
StartChar: barquillleft
Encoding: 11808 11808 920
Width: 240
Flags: W
HStem: -177 21G<53 84> 273 54<107 184>
VStem: 53 54<-134 273 327 684>
LayerCount: 2
Back
SplineSet
200 300 m 25
 80 300 l 1049
80 700 m 25
 80 -150 l 1049
EndSplineSet
Fore
SplineSet
96 727 m 1
 107 716 l 1
 107 327 l 1
 216 327 l 1
 227 316 l 1
 184 273 l 1
 107 273 l 1
 107 -134 l 1
 64 -177 l 1
 53 -166 l 1
 53 284 l 1
 53 684 l 1
 96 727 l 1
EndSplineSet
EndChar
StartChar: brackettopleft
Encoding: 11810 11810 922
Width: 240
Flags: W
HStem: 673 54<107 184>
VStem: 53 54<316 673>
LayerCount: 2
Back
SplineSet
200 700 m 25
 80 700 l 17
 80 300 l 1025
EndSplineSet
Fore
SplineSet
227 716 m 1
 184 673 l 1
 107 673 l 1
 107 316 l 1
 64 273 l 1
 53 284 l 1
 53 684 l 1
 96 727 l 1
 216 727 l 1
 227 716 l 1
EndSplineSet
EndChar
StartChar: brackettopright
Encoding: 11811 11811 923
Width: 240
Flags: W
HStem: 673 54<56 133>
VStem: 133 54<316 673>
LayerCount: 2
Back
SplineSet
40 700 m 25
 160 700 l 17
 160 300 l 1025
EndSplineSet
Fore
SplineSet
13 684 m 1
 56 727 l 1
 176 727 l 1
 187 716 l 1
 187 316 l 1
 144 273 l 1
 133 284 l 1
 133 673 l 1
 24 673 l 1
 13 684 l 1
EndSplineSet
EndChar
StartChar: bracketbottomright
Encoding: 11813 11813 925
Width: 240
Flags: W
HStem: -177 54<56 133>
VStem: 133 54<-123 284>
LayerCount: 2
Back
SplineSet
160 300 m 1
 160 -150 l 9
 40 -150 l 1033
EndSplineSet
Fore
SplineSet
176 327 m 1
 187 316 l 1
 187 -134 l 1
 144 -177 l 1
 24 -177 l 1
 13 -166 l 1
 56 -123 l 1
 133 -123 l 1
 133 284 l 1
 176 327 l 1
EndSplineSet
EndChar
StartChar: Ubracketright
Encoding: 11815 11815 913
Width: 400
Flags: W
HStem: -27 54<56 215.166> 373 54<56 216.904>
VStem: 293 54<114.774 282.6>
LayerCount: 2
Back
SplineSet
40 400 m 1
 160 400 l 26
 248 400 320 310 320 200 c 27
 320 90 248 0 160 0 c 26
 40 0 l 1025
EndSplineSet
Fore
SplineSet
13 384 m 1
 56 427 l 1
 176 427 l 2
 214 427 248 410 275 383 c 2
 286 372 l 2
 287 371 l 0
 324 334 347 279 347 216 c 0
 347 153 324 96 287 59 c 2
 244 17 l 2
 216 -10 181 -27 144 -27 c 2
 24 -27 l 1
 13 -16 l 1
 56 27 l 1
 176 27 l 2
 204 27 230 36 253 52 c 1
 278 87 293 133 293 184 c 0
 293 244 271 298 238 335 c 0
 212 359 179 373 144 373 c 2
 24 373 l 1
 13 384 l 1
EndSplineSet
EndChar
StartChar: fivedots
Encoding: 11821 11821 935
Width: 480
Flags: W
VStem: 83 314
LayerCount: 2
Back
SplineSet
230 185 m 25
 250 165 l 1049
350 185 m 25
 370 165 l 1049
230 25 m 25
 250 5 l 1049
230 345 m 25
 250 325 l 1049
110 185 m 25
 130 165 l 1049
EndSplineSet
Fore
SplineSet
83 169 m 1
 126 212 l 1
 157 181 l 1
 114 138 l 1
 83 169 l 1
203 329 m 1
 246 372 l 1
 277 341 l 1
 234 298 l 1
 203 329 l 1
203 9 m 1
 246 52 l 1
 277 21 l 1
 234 -22 l 1
 203 9 l 1
323 169 m 1
 366 212 l 1
 397 181 l 1
 354 138 l 1
 323 169 l 1
203 169 m 1
 246 212 l 1
 277 181 l 1
 234 138 l 1
 203 169 l 1
EndSplineSet
EndChar
StartChar: a_a
Encoding: 42803 42803 336
Width: 480
Flags: W
HStem: 417 20G<140 240 300 400> 417 20G<140 240 300 400>
VStem: 43 74<80 170> 203 74<80 188 263 342> 363 74<40 46 80 188 263 342>
CounterMasks: 1 38
AnchorPoint: "abvmark" 240 500 basechar 0
AnchorPoint: "blwmark" 240 0 basechar 0
LayerCount: 2
Back
SplineSet
240 340 m 1
 300 400 l 1
 400 375 l 1
 400 20 l 1
 420 0 l 1
 460 40 l 1049
400 100 m 25
 300 0 l 1
 240 60 l 1
 240 190 l 1
 300 250 l 1
 300 250 315 225 360 225 c 3
 355.99609375 225 400 225 400 225 c 1033
100 280 m 17
 80 340 l 1
 140 400 l 1
 240 375 l 1
 240 100 l 9
 140 0 l 1
 80 60 l 1
 80 190 l 1
 140 250 l 1
 140 250 155 225 200 225 c 3
 195.995781714 225 240 225 240 225 c 1033
EndSplineSet
Fore
SplineSet
180 188 m 1x38
 149 188 132 201 125 208 c 2
 120 213 l 1
 117 210 l 1
 117 80 l 1
 160 37 l 1
 203 80 l 1
 203 170 l 1
 203 188 l 1
 180 188 l 1x38
277 120 m 1
 277 80 l 1
 320 37 l 1
 363 80 l 1
 363 188 l 1
 340 188 l 2
 309 188 292 201 285 208 c 2
 280 213 l 1
 277 210 l 1
 277 120 l 1
277 244 m 1
 320 287 l 1
 331 276 l 2
 338 271 348 265 363 263 c 1
 363 342 l 1
 280 363 l 1
 277 360 l 1
 277 244 l 1
203 46 m 1
 120 -37 l 1
 43 40 l 1
 43 170 l 1
 160 287 l 1
 171 276 l 2
 178 271 188 265 203 263 c 1
 203 320 l 1
 203 342 l 1
 120 363 l 1
 117 360 l 1
 137 300 l 1
 80 243 l 1
 63 260 l 1
 43 320 l 1
 160 437 l 1
 260 412 l 1
 277 395 l 1
 277 394 l 1
 320 437 l 1xb8
 420 412 l 1
 437 395 l 1
 437 245 l 1
 437 120 l 1
 437 40 l 2
 437 40 439 38 440 37 c 2
 480 77 l 1
 497 60 l 1
 400 -37 l 1
 363 0 l 1
 363 46 l 1
 280 -37 l 1
 203 40 l 1
 203 46 l 1
EndSplineSet
LCarets2: 1 240 
Ligature2: "Historic ligatures-1" a a
EndChar
StartChar: a_o
Encoding: 42805 42805 341
Width: 480
Flags: W
HStem: 198 54<159.094 213> 407 20G<136 236 316 356> 407 20G<136 236 316 356>
VStem: 53 54<76 174> 213 54<84 198 252 336> 373 54<96 336>
CounterMasks: 1 1c
AnchorPoint: "blwmark" 240 0 basechar 0
AnchorPoint: "abvmark" 240 500 basechar 0
LayerCount: 2
Back
SplineSet
100 280 m 17
 80 340 l 1
 140 400 l 1
 240 375 l 1
 240 100 l 9
 140 0 l 1
 80 60 l 1
 80 190 l 1
 140 250 l 1
 140 250 155 225 200 225 c 3
 176.991563428 225 240 225 240 225 c 1033
320 400 m 25
 240 320 l 25
 240 80 l 25
 320 0 l 25
 400 80 l 25
 400 320 l 25
 320 400 l 25
EndSplineSet
Fore
SplineSet
184 198 m 2x9c
 183 198 184 198 183 198 c 2
 184 198 l 2x9c
213 84 m 1
 213 198 l 1
 179 198 l 2
 151 199 136 210 129 217 c 0
 129 218 l 2
 124 223 l 1
 107 206 l 1
 107 76 l 1
 156 27 l 1
 213 84 l 1
214 63 m 1
 124 -27 l 1
 53 44 l 1
 53 174 l 1
 156 277 l 1
 167 266 l 2
 176 259 190 253 213 252 c 1
 213 304 l 1
 213 351 l 1
 124 373 l 1
 107 356 l 1
 127 296 l 1
 84 253 l 1
 73 264 l 1
 53 324 l 1
 156 427 l 1
 256 402 l 1
 267 391 l 1
 267 358 l 1
 336 427 l 1xdc
 427 336 l 1
 427 96 l 1
 304 -27 l 1
 214 63 l 1
267 116 m 1
 267 96 l 2
 267 58 316 47 336 27 c 1
 373 64 l 1
 373 304 l 2
 373 342 324 353 304 373 c 1
 267 336 l 1
 267 116 l 1
EndSplineSet
LCarets2: 1 240 
Ligature2: "Historic ligatures-1" a o
EndChar
StartChar: a_v
Encoding: 42809 42809 345
Width: 480
Flags: W
HStem: 567 20G<423 441>
VStem: 43 74<80 170> 203 74<100 188 263 342> 323 74<422.229 502.786> 363 74<100 388.594>
AnchorPoint: "blwmark" 240 0 basechar 0
AnchorPoint: "abvmark" 240 500 basechar 0
LayerCount: 2
Back
SplineSet
240 100 m 9
 140 0 l 1
 80 60 l 1
 80 190 l 1
 140 250 l 1
 140 250 155 225 200 225 c 3
 195.995781714 225 240 225 240 225 c 1033
404 550 m 17
 404 550 360 507 360 472 c 16
 360 423 400 375 400 375 c 9
 400 80 l 1
 320 0 l 25
 240 80 l 1
 240 375 l 17
 140 395 l 1
 80 335 l 1
 100 275 l 1033
EndSplineSet
Fore
SplineSet
441 570 m 1xf0
 434 563 397 524 397 492 c 0xf0
 397 443 437 395 437 395 c 1
 437 100 l 1
 300 -37 l 1
 210 53 l 1
 120 -37 l 1
 43 40 l 1
 43 170 l 1
 160 287 l 1
 171 276 l 2
 178 271 188 265 203 263 c 1
 203 342 l 1
 120 358 l 2
 117 355 l 2
 137 295 l 1
 80 238 l 1
 63 255 l 1
 43 315 l 1
 160 432 l 1
 260 412 l 1
 277 395 l 1
 277 245 l 1
 277 120 l 1
 277 100 l 1
 340 37 l 1
 363 60 l 1
 363 355 l 1xe8
 363 355 323 403 323 452 c 0
 323 485 362 525 367 530 c 0
 423 586 l 2
 424 587 l 1
 441 570 l 1xf0
203 80 m 1
 203 188 l 1
 180 188 l 2
 149 188 132 201 125 208 c 2
 120 213 l 1
 117 210 l 1
 117 80 l 1
 160 37 l 1
 203 80 l 1
EndSplineSet
LCarets2: 1 240 
Ligature2: "Historic ligatures-1" a v
EndChar
StartChar: a_y
Encoding: 42813 42813 346
Width: 480
Flags: W
HStem: -237 74<322.719 356.891> -187 74<238 287> 417 20G<140 240 385 420> 417 20G<140 240 385 420>
VStem: 43 74<80 170> 203 74<100 188 263 342> 363 74<-156.367 26 60 365>
CounterMasks: 1 0e
AnchorPoint: "abvmark" 240 500 basechar 0
LayerCount: 2
Back
SplineSet
240 100 m 9
 140 0 l 1
 80 60 l 1
 80 190 l 1
 140 250 l 1
 140 250 155 225 200 225 c 3
 195.995781714 225 240 225 240 225 c 1033
415 370 m 25
 385 400 l 1049
200 -200 m 17
 200 -200 230 -150 260 -150 c 8
 290.5 -150 309 -200 340 -200 c 24
 366.5 -200 400 -150 400 -150 c 1
 400 385 l 1025
400 80 m 9
 320 0 l 25
 240 80 l 1
 240 375 l 17
 140 400 l 1
 80 340 l 1
 100 280 l 1033
EndSplineSet
Fore
SplineSet
180 -237 m 1x8e
 163 -220 l 1
 163 -220 173 -204 187 -190 c 2
 243 -133 l 2
 244 -132 l 0
 255 -121 267 -113 280 -113 c 0x4e
 294 -113 304 -123 315 -134 c 2
 328 -146 l 2
 338 -155 348 -163 360 -163 c 0
 363 -163 l 2
 363 26 l 1
 300 -37 l 1
 210 53 l 1
 120 -37 l 1
 43 40 l 1
 43 170 l 1
 160 287 l 1
 171 276 l 2
 178 271 188 265 203 263 c 1
 203 342 l 1
 120 363 l 2
 117 360 l 2
 137 300 l 1
 80 243 l 1
 63 260 l 1
 43 320 l 1
 160 437 l 1
 260 412 l 1
 277 395 l 1
 277 245 l 1
 277 120 l 1
 277 100 l 1
 340 37 l 1
 363 60 l 1
 363 365 l 1
 348 380 l 1
 405 437 l 1
 420 422 l 1
 437 405 l 1
 452 390 l 1
 437 375 l 1
 437 100 l 1
 437 -130 l 1
 437 -130 427 -145 413 -159 c 2
 356 -216 l 2
 345 -227 332 -237 320 -237 c 0xae
 306 -237 295 -227 284 -216 c 2
 272 -204 l 2
 262 -195 252 -187 240 -187 c 0x4e
 236 -187 232 -188 227 -190 c 2
 180 -237 l 1x8e
203 80 m 1
 203 188 l 1
 180 188 l 2
 149 188 132 201 125 208 c 2
 120 213 l 1
 117 210 l 1
 117 80 l 1
 160 37 l 1
 203 80 l 1
EndSplineSet
LCarets2: 1 240 
Ligature2: "Historic ligatures-1" a y
EndChar
StartChar: kbar
Encoding: 42817 42817 862
Width: 320
Flags: W
HStem: 432 20G<226 256> 448 54<36 53 107 144>
VStem: 53 54<26 213 237 448 502 599> 213 54<26 184 366 399>
AnchorPoint: "abvmark" 160 700 basechar 0
AnchorPoint: "blwmark" 160 0 basechar 0
LayerCount: 2
Back
SplineSet
160 475 m 25
 20 475 l 1049
230 425 m 25
 250 405 l 1049
70 625 m 25
 90 605 l 1049
70 625 m 25
 90 605 l 1049
80 200 m 1
 240 350 l 9
 240 415 l 1049
160 275 m 1
 240 200 l 1
 240 10 l 1025
230 20 m 25
 250 0 l 1049
70 20 m 25
 90 0 l 1049
70 625 m 25
 90 605 l 1049
80 615 m 9
 80 10 l 1049
EndSplineSet
Fore
SplineSet
203 409 m 1x70
 246 452 l 1xb0
 256 442 l 1
 267 431 l 1
 277 421 l 1
 267 411 l 1
 267 366 l 1
 224 323 l 1
 189 290 l 1
 256 227 l 1
 267 216 l 1
 267 26 l 1
 277 16 l 1
 234 -27 l 1
 224 -17 l 1
 213 -6 l 1
 203 4 l 1
 213 14 l 1
 213 184 l 1
 144 248 l 1
 107 213 l 1
 107 26 l 1
 117 16 l 1
 74 -27 l 1
 64 -17 l 1
 53 -6 l 1
 43 4 l 1
 53 14 l 1
 53 184 l 1
 53 448 l 1
 4 448 l 1
 -7 459 l 1
 36 502 l 1
 53 502 l 1
 53 599 l 1
 43 609 l 1
 86 652 l 1
 96 642 l 1
 107 631 l 1
 117 621 l 1
 107 611 l 1
 107 502 l 1
 176 502 l 1
 187 491 l 1
 144 448 l 1
 107 448 l 1
 107 237 l 1
 213 337 l 1
 213 399 l 1
 203 409 l 1x70
EndSplineSet
EndChar
StartChar: kslash
Encoding: 42819 42819 863
Width: 320
Flags: W
HStem: 442 20G<225 260>
VStem: 43 74<35 216 253 590> 203 74<35 106 140 179 370 390>
AnchorPoint: "abvmark" 160 700 basechar 0
AnchorPoint: "blwmark" 160 0 basechar 0
LayerCount: 2
Back
SplineSet
300 220 m 25
 180 100 l 1049
225 425 m 25
 255 395 l 1049
65 625 m 25
 95 595 l 1049
65 625 m 25
 95 595 l 1049
80 200 m 1
 240 350 l 9
 240 410 l 1049
160 275 m 1
 240 200 l 1
 240 15 l 1025
225 30 m 25
 255 0 l 1049
65 30 m 25
 95 0 l 1049
65 625 m 25
 95 595 l 1049
80 610 m 9
 80 15 l 1049
EndSplineSet
Fore
SplineSet
188 405 m 1
 245 462 l 1
 260 447 l 1
 277 430 l 1
 292 415 l 1
 277 400 l 1
 277 370 l 1
 220 313 l 1
 199 294 l 1
 260 237 l 1
 277 220 l 1
 277 214 l 1
 320 257 l 1
 337 240 l 1
 277 180 l 1
 277 35 l 1
 292 20 l 1
 235 -37 l 1
 220 -22 l 1
 203 -5 l 1
 188 10 l 1
 203 25 l 1
 203 106 l 1
 160 63 l 1
 143 80 l 1
 203 140 l 1
 203 179 l 1
 140 238 l 1
 117 216 l 1
 117 35 l 1
 132 20 l 1
 75 -37 l 1
 60 -22 l 1
 52 -13 l 1
 28 10 l 1
 43 25 l 1
 43 180 l 1
 43 590 l 1
 28 605 l 1
 85 662 l 1
 100 647 l 1
 117 630 l 1
 132 615 l 1
 117 600 l 1
 117 253 l 1
 180 312 l 1
 203 334 l 1
 203 390 l 1
 188 405 l 1
EndSplineSet
EndChar
StartChar: lbroken
Encoding: 42823 42823 574
Width: 280
Flags: W
HStem: 407 20G<196 227> 407 20G<196 227>
VStem: 53 54<318 599> 173 54<28 362>
LayerCount: 2
Back
SplineSet
190 20 m 25
 210 0 l 25
 230 20 l 1049
70 625 m 25
 90 605 l 1049
80 615 m 1
 80 280 l 1
 200 400 l 1
 200 10 l 1025
EndSplineSet
Fore
SplineSet
43 609 m 1xb0
 86 652 l 1
 96 642 l 1
 107 631 l 1
 117 621 l 1
 107 611 l 1
 107 318 l 1
 216 427 l 1
 227 416 l 1
 227 28 l 1
 246 47 l 1
 257 36 l 1
 194 -27 l 1
 184 -17 l 1
 173 -6 l 1
 163 4 l 1
 173 14 l 1
 173 362 l 1
 64 253 l 1
 53 264 l 1
 53 599 l 1
 43 609 l 1xb0
EndSplineSet
EndChar
StartChar: lbar
Encoding: 42825 42825 865
Width: 160
Flags: W
HStem: 448 54<36 53 107 124>
VStem: 53 54<28 448 502 599>
AnchorPoint: "abvmark" 80 700 basechar 0
AnchorPoint: "blwmark" 80 0 basechar 0
LayerCount: 2
Back
SplineSet
70 20 m 25
 90 0 l 25
 110 20 l 1049
70 625 m 25
 90 605 l 1049
80 615 m 9
 80 10 l 1049
140 475 m 25
 20 475 l 1049
EndSplineSet
Fore
SplineSet
167 491 m 1
 124 448 l 1
 107 448 l 1
 107 28 l 1
 126 47 l 1
 137 36 l 1
 74 -27 l 1
 64 -17 l 1
 53 -6 l 1
 43 4 l 1
 53 14 l 1
 53 448 l 1
 4 448 l 1
 -7 459 l 1
 36 502 l 1
 53 502 l 1
 53 599 l 1
 43 609 l 1
 86 652 l 1
 96 642 l 1
 107 631 l 1
 117 621 l 1
 107 611 l 1
 107 502 l 1
 156 502 l 1
 167 491 l 1
EndSplineSet
EndChar
StartChar: oeloop
Encoding: 42829 42829 867
Width: 440
Flags: W
HStem: 417 20G<160 200 320 360> 417 20G<160 200 320 360>
VStem: 43 74<100 300> 203 74<100 140 174 300>
AnchorPoint: "abvmark" 240 500 basechar 0
AnchorPoint: "blwmark" 240 0 basechar 0
LayerCount: 2
Back
SplineSet
240 80 m 25
 240 320 l 25
 320 400 l 25
 400 320 l 1
 400 280 l 1
 240 120 l 1025
240 80 m 9
 160 0 l 1
 80 80 l 25
 80 320 l 25
 160 400 l 25
 240 320 l 1041
EndSplineSet
Fore
SplineSet
277 174 m 1x30
 363 260 l 1
 363 300 l 1
 300 363 l 1
 277 340 l 1
 277 174 l 1x30
260 357 m 1
 340 437 l 1
 437 340 l 1
 437 300 l 1
 277 140 l 1
 277 100 l 1
 220 43 l 1
 140 -37 l 1
 43 60 l 1
 43 300 l 1
 180 437 l 1xb0
 260 357 l 1
203 300 m 1
 140 363 l 1
 117 340 l 1
 117 100 l 1
 180 37 l 1
 203 60 l 1
 203 300 l 1
EndSplineSet
EndChar
StartChar: pbar
Encoding: 42833 42833 868
Width: 320
Flags: W
HStem: -187 21G<43 80> -112 74<40 43 117 140> 417 20G<65 100 160 200> 417 20G<65 100 160 200>
VStem: 43 74<-130 -112 -38 36 137 340> 203 74<81 334.843>
AnchorPoint: "abvmark" 160 500 basechar 0
LayerCount: 2
Back
SplineSet
40 50 m 1
 40 50 77 100 100 100 c 0
 165 100 200 0 200 0 c 9
 240 40 l 1
 240 320 l 25
 160 400 l 1
 80 320 l 1049
65 400 m 25
 95 370 l 1049
80 385 m 1
 80 -150 l 1025
160 -75 m 25
 20 -75 l 1049
EndSplineSet
Fore
SplineSet
197 -55 m 1xec
 140 -112 l 1
 117 -112 l 1
 117 -130 l 1
 60 -187 l 1
 43 -170 l 1
 43 -112 l 1
 0 -112 l 1
 -17 -95 l 1
 40 -38 l 1
 43 -38 l 1
 43 36 l 1
 20 13 l 1
 3 30 l 1
 3 30 14 44 27 57 c 2
 43 74 l 1
 43 300 l 1
 43 365 l 1
 28 380 l 1
 85 437 l 1
 100 422 l 1
 117 405 l 1
 132 390 l 1
 117 375 l 1
 117 374 l 1
 180 437 l 1
 277 340 l 1
 277 60 l 1
 180 -37 l 1
 163 -20 l 2
 163 -20 150 16 126 45 c 0
 123 48 120 50 117 52 c 2
 117 -38 l 1
 180 -38 l 1
 197 -55 l 1xec
117 340 m 1
 117 137 l 2
 118 137 119 137 120 137 c 0
 142 137 160 126 175 111 c 2
 191 94 l 1
 192 94 l 2
 192 93 l 0
 196 89 200 85 203 81 c 2
 203 300 l 2
 203 334 158 345 140 363 c 1
 117 340 l 1
EndSplineSet
EndChar
StartChar: pflourish
Encoding: 42835 42835 869
Width: 400
Flags: W
HStem: -177 21G<-7 11 133 164> 407 20G<146 176 236 276> 407 20G<146 176 236 276>
VStem: 33 54<-111.932 54.1699> 133 54<-134 15 113 336 358 374> 293 54<96 304>
AnchorPoint: "abvmark" 240 500 basechar 0
LayerCount: 2
Back
SplineSet
160 320 m 25
 240 400 l 1
 320 320 l 25
 320 80 l 1
 240 0 l 1
 240 0 186 100 20 100 c 1
 20 100 60 44 60 0 c 3
 60 -132 20 -150 20 -150 c 1033
150 400 m 25
 170 380 l 1049
160 390 m 1
 160 -150 l 1025
EndSplineSet
Fore
SplineSet
123 384 m 1xdc
 166 427 l 1
 176 417 l 1
 187 406 l 1
 197 396 l 1
 187 386 l 1
 187 358 l 1
 256 427 l 1
 347 336 l 1
 347 96 l 1
 224 -27 l 1
 213 -16 l 1
 213 -16 207 -5 195 8 c 0
 192 10 190 12 187 15 c 2
 187 -134 l 1
 144 -177 l 1
 133 -166 l 1
 133 48 l 1
 116 55 97 63 74 67 c 1
 81 50 87 33 87 16 c 0
 87 -83 64 -119 53 -130 c 2
 11 -172 l 2
 7 -176 4 -177 4 -177 c 1
 -7 -166 l 1
 6 -153 l 2
 18 -136 33 -99 33 -16 c 0
 33 28 -7 84 -7 84 c 1
 36 127 l 1
 74 127 106 121 133 113 c 1
 133 304 l 1
 133 374 l 1
 123 384 l 1xdc
187 336 m 1
 187 90 l 1
 207 79 221 67 232 56 c 2
 244 45 l 2
 250 39 254 34 258 29 c 1
 293 64 l 1
 293 304 l 1
 224 373 l 1
 187 336 l 1
EndSplineSet
EndChar
StartChar: rumrotunda
Encoding: 42845 42845 705
Width: 400
Flags: W
HStem: -177 21G<133 164> -27 54<279.5 328.822> 407 20G<76 107> 407 20G<76 107>
VStem: 253 54<43.1129 180>
LayerCount: 2
Back
SplineSet
240 225 m 1
 280 200 l 1
 280 200 280 139 280 100 c 27
 280 3 160 -150 160 -150 c 1025
360 50 m 17
 360 50 345 0 300 0 c 3
 225 0 200 40 200 40 c 9
 160 0 l 1
 80 220 l 25
 160 300 l 1
 80 400 l 1
 40 360 l 1049
EndSplineSet
Fore
SplineSet
376 77 m 1xe8
 387 66 l 1
 387 66 382 47 367 33 c 2
 324 -10 l 2
 315 -19 302 -27 284 -27 c 0
 275 -27 267 -26 259 -25 c 1
 226 -85 187 -134 187 -134 c 2
 144 -177 l 1
 133 -166 l 1
 133 -166 190 -94 225 -17 c 1
 208 -10 197 -1 191 5 c 2
 184 13 l 1
 144 -27 l 1
 133 -16 l 1
 53 204 l 1
 133 284 l 1
 63 372 l 1
 24 333 l 1
 13 344 l 1
 96 427 l 1
 107 416 l 1
 187 316 l 1
 107 236 l 1
 181 32 l 1
 216 67 l 1
 227 56 l 1
 227 56 227 54 228 53 c 0
 233 49 239 46 247 42 c 1
 251 57 253 71 253 84 c 2
 253 180 l 1
 224 198 l 1
 213 209 l 1
 256 252 l 1
 296 227 l 1
 307 216 l 1
 307 116 l 2
 307 90 299 59 286 29 c 1
 295 27 305 27 316 27 c 0
 322 27 326 28 331 29 c 0
 332 32 333 34 333 34 c 1
 376 77 l 1xe8
EndSplineSet
EndChar
StartChar: zvisigoth
Encoding: 42851 42851 839
Width: 280
Flags: W
HStem: -237 74<127.109 154.728> -187 74<38 80.7896> 417 20G<160 200> 417 20G<160 200>
VStem: 43 74<226 300> 163 74<-154.554 -27>
AnchorPoint: "abvmark" 160 500 basechar 0
LayerCount: 2
Back
SplineSet
240 320 m 9
 160 400 l 25
 80 320 l 1
 80 200 l 25
 160 150 l 25
 80 70 l 1
 200 0 l 1
 200 -150 l 1
 200 -150 162 -200 140 -200 c 0
 114 -200 97 -150 60 -150 c 16
 30 -150 0 -200 0 -200 c 1025
EndSplineSet
Fore
SplineSet
277 340 m 1xac
 220 283 l 1
 140 363 l 1
 117 340 l 1
 117 226 l 1
 180 187 l 1
 197 170 l 1
 121 94 l 1
 220 37 l 1
 237 20 l 1
 237 -130 l 1
 237 -130 226 -144 213 -157 c 2
 157 -213 l 2
 145 -225 131 -237 120 -237 c 0xac
 110 -237 103 -230 94 -221 c 2
 77 -204 l 2
 76 -204 l 0
 75 -202 l 0
 65 -193 54 -187 40 -187 c 0x4c
 36 -187 31 -188 27 -190 c 2
 -20 -237 l 1x8c
 -37 -220 l 1
 -37 -220 -27 -204 -13 -190 c 2
 43 -133 l 2
 54 -122 67 -113 80 -113 c 0x4c
 97 -113 109 -123 120 -134 c 0
 121 -135 l 2
 138 -152 l 2
 138 -152 138 -152 139 -153 c 0
 146 -159 153 -163 160 -163 c 0
 161 -163 161 -163 163 -163 c 2
 163 -27 l 1
 60 33 l 1
 43 50 l 1
 119 126 l 1
 60 163 l 1
 43 180 l 1
 43 300 l 1
 180 437 l 1
 277 340 l 1xac
EndSplineSet
EndChar
StartChar: thornbar
Encoding: 42853 42853 874
Width: 320
Flags: W
HStem: -177 21G<53 84> 407 20G<156 196> 407 20G<156 196> 448 54<36 53 107 144>
VStem: 53 54<-134 -1 65 336 358 448 502 599> 213 54<96 336>
AnchorPoint: "abvmark" 160 700 basechar 0
LayerCount: 2
Back
SplineSet
40 0 m 1
 40 0 77 40 100 40 c 0
 123 40 160 0 160 0 c 9
 240 80 l 1
 240 320 l 25
 160 400 l 1
 80 320 l 1049
70 625 m 25
 90 605 l 1049
80 615 m 1
 80 -150 l 1025
160 475 m 25
 20 475 l 1049
EndSplineSet
Fore
SplineSet
187 491 m 1xdc
 144 448 l 1
 107 448 l 1
 107 358 l 1
 176 427 l 1
 267 336 l 1
 267 96 l 1
 144 -27 l 1
 135 -18 l 2
 128 -11 118 -2 107 5 c 1
 107 -134 l 1
 64 -177 l 1
 53 -166 l 1
 53 -1 l 1
 46 -6 39 -13 34 -18 c 2
 24 -27 l 1
 13 -16 l 1
 13 -16 15 -14 18 -11 c 2
 53 25 l 1
 53 304 l 1
 53 448 l 1
 4 448 l 1
 -7 459 l 1
 36 502 l 1
 53 502 l 1
 53 599 l 1
 43 609 l 1
 86 652 l 1
 96 642 l 1
 107 631 l 1
 117 621 l 1
 107 611 l 1
 107 502 l 1
 176 502 l 1
 187 491 l 1xdc
107 336 m 1
 107 65 l 2
 110 66 113 67 116 67 c 0
 134 67 161 41 171 31 c 2
 176 27 l 1
 213 64 l 1
 213 304 l 2
 213 342 164 353 144 373 c 1
 107 336 l 1
EndSplineSet
EndChar
StartChar: vend
Encoding: 42857 42857 876
Width: 320
Flags: W
HStem: -187 21G<43 80> 417 20G<65 100 210 250> 417 20G<65 100 210 250>
VStem: 43 74<-130 -64 -30 10 44 365> 203 74<170 371.766>
AnchorPoint: "abvmark" 160 500 basechar 0
LayerCount: 2
Back
SplineSet
40 -50 m 9
 240 150 l 1
 240 370 l 25
 210 400 l 1025
65 400 m 25
 95 370 l 1049
80 385 m 1
 80 -150 l 1025
EndSplineSet
Fore
SplineSet
28 380 m 1xd8
 85 437 l 1
 100 422 l 1
 117 405 l 1
 132 390 l 1
 117 375 l 1
 117 44 l 1
 203 130 l 1
 203 350 l 2
 203 356 194 359 190 363 c 2
 173 380 l 1
 230 437 l 1
 277 390 l 1
 277 170 l 1
 117 10 l 1
 117 -130 l 1
 60 -187 l 1
 43 -170 l 1
 43 -64 l 1
 20 -87 l 1
 3 -70 l 1
 43 -30 l 1
 43 365 l 1
 28 380 l 1xd8
EndSplineSet
EndChar
StartChar: etfin
Encoding: 42859 42859 959
Width: 280
Flags: W
HStem: 407 20G<96 136> 407 20G<96 136>
VStem: 173 54<-24 81>
LayerCount: 2
Back
SplineSet
40 340 m 25
 100 400 l 1
 200 300 l 1
 80 180 l 1
 200 100 l 1
 200 -40 l 1
 0 -200 l 1025
EndSplineSet
Fore
SplineSet
24 313 m 1xa0
 13 324 l 1
 116 427 l 1
 227 316 l 1
 109 198 l 1
 216 127 l 1
 227 116 l 1
 227 -24 l 1
 184 -67 l 1
 -16 -227 l 1
 -27 -216 l 1
 16 -173 l 1
 173 -47 l 1
 173 81 l 1
 64 153 l 1
 53 164 l 1
 173 284 l 1
 84 373 l 1
 24 313 l 1xa0
EndSplineSet
EndChar
StartChar: is
Encoding: 42861 42861 957
Width: 360
Flags: W
HStem: -187 74<-62 -13.5>
VStem: 63 74<-157.356 98 138 177 217 550> 223 74<350 550>
LayerCount: 2
Back
SplineSet
-100 -200 m 17
 -100 -200 -70 -150 -40 -150 c 8
 -3 -150 3 -200 40 -200 c 24
 70 -200 100 -150 100 -150 c 1
 100 570 l 1
 180 650 l 25
 260 570 l 25
 260 330 l 25
 0 50 l 1049
EndSplineSet
Fore
SplineSet
137 217 m 1
 223 310 l 1
 223 550 l 1
 160 613 l 1
 137 590 l 1
 137 217 l 1
-120 -237 m 1
 -137 -220 l 1
 -137 -220 -127 -204 -113 -190 c 2
 -57 -133 l 2
 -56 -132 l 0
 -45 -121 -33 -113 -20 -113 c 0
 -7 -113 2 -119 10 -127 c 2
 27 -144 l 2
 27 -145 l 0
 30 -148 34 -153 37 -156 c 0
 43 -161 51 -163 60 -163 c 0
 63 -163 l 1
 63 98 l 1
 37 70 l 1
 -20 13 l 1
 -37 30 l 1
 63 138 l 1
 63 550 l 1
 200 687 l 1
 297 590 l 1
 297 350 l 1
 137 177 l 1
 137 -130 l 1
 137 -130 127 -146 113 -160 c 2
 57 -217 l 2
 46 -228 33 -237 20 -237 c 0
 7 -237 -2 -231 -10 -223 c 2
 -27 -206 l 2
 -31 -202 -34 -198 -37 -194 c 0
 -43 -190 -51 -187 -60 -187 c 0
 -64 -187 -68 -188 -73 -190 c 2
 -120 -237 l 1
EndSplineSet
EndChar
StartChar: dum
Encoding: 42865 42865 448
Width: 480
Flags: W
HStem: -177 21G<213 244> -27 54<359.5 408.776> 407 20G<156 195.474> 407 20G<156 195.474> 523 54<114.802 184.389>
VStem: 53 54<64 304 578 620.891> 213 54<38 42 64 304 389 496.507> 333 54<41.7031 180>
AnchorPoint: "abvmark" 200 700 basechar 0
LayerCount: 2
Back
SplineSet
320 225 m 1
 360 200 l 1
 360 200 360 139 360 100 c 27
 360 3 240 -150 240 -150 c 1025
240 320 m 1
 160 400 l 25
 80 320 l 1
 80 80 l 25
 160 0 l 17
 240 80 l 1025
113 650 m 25
 100 630 80 623 80 600 c 27
 80 563 125 550 160 550 c 0
 195 550 240 500 240 450 c 18
 240 0 l 9
 280 40 l 17
 280 40 305 0 380 0 c 3
 425 0 440 50 440 50 c 1033
EndSplineSet
Fore
SplineSet
129 677 m 1xef
 140 666 l 1
 136 660 131 654 127 650 c 2
 120 643 l 2
 113 635 107 628 107 616 c 0
 107 607 110 599 114 593 c 0
 131 581 155 577 176 577 c 0
 191 577 208 567 222 553 c 2
 233 542 l 2
 252 523 267 495 267 466 c 2
 267 336 l 1
 267 96 l 1
 267 38 l 1
 296 67 l 1
 307 56 l 1
 307 56 307 54 308 53 c 0
 313 49 319 45 327 41 c 1
 331 56 333 71 333 84 c 2
 333 180 l 1
 304 198 l 1
 293 209 l 1
 336 252 l 1
 376 227 l 1
 387 216 l 1
 387 116 l 2
 387 90 379 59 366 29 c 1
 375 28 385 27 396 27 c 0
 402 27 407 28 411 29 c 0
 412 32 413 34 413 34 c 1
 456 77 l 1
 467 66 l 2
 467 66 461 48 447 33 c 2
 404 -10 l 2
 395 -19 382 -27 364 -27 c 0
 355 -27 347 -26 339 -25 c 1
 306 -85 267 -134 267 -134 c 2
 224 -177 l 1
 213 -166 l 1
 213 -166 270 -94 305 -17 c 1
 288 -10 277 -1 271 5 c 0
 264 13 l 1
 224 -27 l 1
 213 -16 l 1
 213 42 l 1
 144 -27 l 1
 53 64 l 1
 53 304 l 1
 176 427 l 1
 213 389 l 1
 213 434 l 2
 213 460 201 486 185 505 c 0
 172 516 157 523 144 523 c 0
 120 523 92 530 76 545 c 2
 65 556 l 2
 58 563 53 572 53 584 c 0
 53 597 60 605 68 614 c 0
 69 615 l 2
 75 621 l 2
 78 625 83 629 86 634 c 2
 129 677 l 1xef
213 64 m 1
 213 304 l 1
 144 373 l 1
 107 336 l 1
 107 96 l 2
 107 58 156 47 176 27 c 1
 213 64 l 1
EndSplineSet
EndChar
StartChar: lum
Encoding: 42866 42866 573
Width: 339
Flags: W
HStem: -187 21G<63 100> -37 74<216.5 264.713>
VStem: 43 74<39 590> 183 74<56.8668 174>
LayerCount: 2
Back
SplineSet
180 225 m 1
 220 200 l 1
 220 200 220 139 220 100 c 27
 220 3 100 -150 100 -150 c 1025
300 50 m 17
 300 50 285 0 240 0 c 3
 165 0 135 40 135 40 c 9
 95 0 l 25
 65 30 l 1025
65 625 m 25
 95 595 l 1049
80 610 m 9
 80 15 l 1049
EndSplineSet
Fore
SplineSet
28 605 m 1
 85 662 l 1
 100 647 l 1
 117 630 l 1
 132 615 l 1
 117 600 l 1
 117 39 l 1
 155 77 l 1
 164 67 l 2
 168 64 174 60 181 56 c 1
 182 64 183 72 183 80 c 2
 183 174 l 1
 160 188 l 1
 143 205 l 1
 200 262 l 1
 240 237 l 1
 257 220 l 1
 257 120 l 2
 257 95 249 67 237 38 c 1
 244 37 252 37 260 37 c 0
 264 37 266 37 271 38 c 2
 320 87 l 1
 337 70 l 1
 337 70 332 52 317 37 c 2
 260 -20 l 2
 251 -29 238 -37 220 -37 c 0
 213 -37 206 -37 200 -36 c 1
 169 -89 137 -130 137 -130 c 2
 80 -187 l 1
 63 -170 l 1
 63 -170 118 -99 154 -24 c 1
 136 -16 124 -6 119 -1 c 2
 115 3 l 1
 75 -37 l 1
 60 -22 l 1
 52 -13 l 1
 28 10 l 1
 43 25 l 1
 43 590 l 1
 28 605 l 1
EndSplineSet
EndChar
StartChar: mum
Encoding: 42867 42867 587
Width: 659
Flags: W
HStem: -177 21G<393 424> -27 54<539.5 588.822> 407 20G<66 96 176 216 336 376> 407 20G<66 96 176 216 336 376>
VStem: 53 54<26 316 338 374> 213 54<26 316 338 354.693> 373 54<28 354.693> 513 54<40.7485 180>
LayerCount: 2
Back
SplineSet
400 10 m 1
 400 340 l 25
 340 400 l 1
 240 300 l 1041
230 20 m 9
 250 0 l 1041
240 10 m 1
 240 340 l 25
 180 400 l 1
 80 300 l 1041
70 20 m 9
 90 0 l 1041
90 380 m 9
 70 400 l 1041
80 390 m 9
 80 10 l 1025
500 225 m 1
 540 200 l 1
 540 200 540 139 540 100 c 27
 540 3 420 -150 420 -150 c 1025
620 50 m 17
 620 50 605 0 560 0 c 3
 485 0 450 40 450 40 c 9
 410 0 l 25
 390 20 l 1025
EndSplineSet
Fore
SplineSet
636 77 m 1xef
 647 66 l 1
 647 66 642 47 627 33 c 2
 584 -10 l 2
 575 -19 562 -27 544 -27 c 0
 535 -27 527 -26 519 -25 c 1
 486 -85 447 -134 447 -134 c 2
 404 -177 l 1
 393 -166 l 1
 393 -166 450 -93 485 -17 c 1
 457 -7 441 7 436 12 c 2
 434 13 l 1
 394 -27 l 1
 384 -17 l 1
 373 -6 l 1
 363 4 l 1
 373 14 l 1
 373 324 l 2
 373 351 338 359 324 373 c 1
 267 316 l 1
 267 26 l 1
 277 16 l 1
 234 -27 l 1
 224 -17 l 1
 213 -6 l 1
 203 4 l 1
 213 14 l 1
 213 284 l 1
 213 324 l 2
 213 351 178 359 164 373 c 1
 107 316 l 1
 107 26 l 1
 117 16 l 1
 74 -27 l 1
 64 -17 l 1
 53 -6 l 1
 43 4 l 1
 53 14 l 1
 53 284 l 1
 53 374 l 1
 43 384 l 1
 86 427 l 1
 96 417 l 1
 107 406 l 1
 117 396 l 1
 107 386 l 1
 107 338 l 1
 196 427 l 1
 267 356 l 1
 267 338 l 1
 356 427 l 1
 427 356 l 1
 427 28 l 1
 466 67 l 1
 469 64 l 2
 474 59 486 48 506 40 c 1
 510 56 513 70 513 84 c 2
 513 180 l 1
 484 198 l 1
 473 209 l 1
 516 252 l 1
 556 227 l 1
 567 216 l 1
 567 116 l 2
 567 90 558 59 545 29 c 1
 554 28 565 27 576 27 c 0
 582 27 586 28 591 29 c 0
 592 32 593 34 593 34 c 1
 636 77 l 1xef
EndSplineSet
EndChar
StartChar: num
Encoding: 42868 42868 597
Width: 499
Flags: W
HStem: -177 21G<233 264> -27 54<379.5 428.822> 407 20G<66 96 176 216> 407 20G<66 96 176 216>
VStem: 53 54<26 316 338 374> 213 54<28 354.693> 353 54<40.7485 180>
LayerCount: 2
Back
SplineSet
340 225 m 1
 380 200 l 1
 380 200 380 139 380 100 c 27
 380 3 260 -150 260 -150 c 1025
460 50 m 17
 460 50 445 0 400 0 c 3
 325 0 290 40 290 40 c 1
 250 0 l 25
 230 20 l 1025
240 10 m 1
 240 340 l 25
 180 400 l 1
 80 300 l 1049
70 20 m 25
 90 0 l 1049
90 380 m 25
 70 400 l 1049
80 390 m 9
 80 10 l 1025
EndSplineSet
Fore
SplineSet
476 77 m 1xee
 487 66 l 1
 487 66 482 48 467 33 c 2
 424 -10 l 2
 415 -19 402 -27 384 -27 c 0
 375 -27 367 -26 359 -25 c 1
 326 -85 287 -134 287 -134 c 2
 244 -177 l 1
 233 -166 l 1
 233 -166 290 -93 325 -17 c 1
 297 -7 281 7 276 12 c 2
 274 13 l 1
 234 -27 l 1
 224 -17 l 1
 213 -6 l 1
 203 4 l 1
 213 14 l 1
 213 324 l 2
 213 351 178 359 164 373 c 1
 107 316 l 1
 107 26 l 1
 117 16 l 1
 74 -27 l 1
 64 -17 l 1
 53 -6 l 1
 43 4 l 1
 53 14 l 1
 53 284 l 1
 53 374 l 1
 43 384 l 1
 86 427 l 1
 96 417 l 1
 107 406 l 1
 117 396 l 1
 107 386 l 1
 107 338 l 1
 196 427 l 1
 267 356 l 1
 267 28 l 1
 306 67 l 1
 309 64 l 2
 314 59 326 48 346 40 c 1
 350 56 353 70 353 84 c 2
 353 180 l 1
 324 198 l 1
 313 209 l 1
 356 252 l 1
 396 227 l 1
 407 216 l 1
 407 116 l 2
 407 90 398 59 385 29 c 1
 394 28 405 27 416 27 c 0
 422 27 426 28 431 29 c 0
 432 32 433 34 433 34 c 1
 476 77 l 1xee
EndSplineSet
EndChar
StartChar: rum
Encoding: 42869 42869 704
Width: 360
Flags: W
HStem: -177 21G<93 105> 407 20G<66 96 156 187 316 347> 407 20G<66 96 156 187 196 248 316 347>
VStem: 53 54<26 336 358 374> 213 54<71.1498 332.959 392 480>
LayerCount: 2
Back
SplineSet
200 525 m 1
 240 500 l 1
 240 500 240 406 240 250 c 3
 240 -37 120 -150 120 -150 c 1025
320 400 m 17
 320 400 305 350 260 350 c 3
 185 350 160 400 160 400 c 9
 80 320 l 1025
70 20 m 25
 90 0 l 1049
70 400 m 25
 90 380 l 1049
80 390 m 9
 80 10 l 1025
EndSplineSet
Fore
SplineSet
43 384 m 1xd8
 86 427 l 1
 96 417 l 1
 107 406 l 1
 117 396 l 1
 107 386 l 1
 107 358 l 1
 176 427 l 1
 187 416 l 1
 187 416 189 411 195 404 c 0
 200 400 206 396 213 392 c 1
 213 480 l 1
 184 498 l 1
 173 509 l 1
 216 552 l 1
 256 527 l 1
 267 516 l 1
 267 377 l 2
 270 377 273 377 276 377 c 0
 282 377 286 378 291 379 c 0
 292 382 293 384 293 384 c 1
 336 427 l 1
 347 416 l 1
 347 416 342 397 327 383 c 2
 284 340 l 2
 279 335 274 331 267 328 c 1
 267 266 l 2
 267 -8 158 -124 148 -134 c 2
 105 -176 l 2
 104 -177 l 1
 93 -166 l 1
 95 -164 l 2
 109 -149 213 -33 213 234 c 2
 213 326 l 1
 186 332 169 345 158 356 c 2
 147 367 l 2
 146 368 144 370 143 371 c 2
 107 336 l 1
 107 26 l 1
 117 16 l 1
 74 -27 l 1
 64 -17 l 1
 53 -6 l 1
 43 4 l 1
 53 14 l 1
 53 304 l 1
 53 374 l 1
 43 384 l 1xd8
EndSplineSet
EndChar
StartChar: Rumsmallcap
Encoding: 42870 42870 858
Width: 520
Flags: W
HStem: -187 21G<243 280> -37 74<396.5 444.713> 417 20G<65 100 160 204> 417 20G<65 100 160 204>
VStem: 43 74<35 340> 363 74<58.2001 174>
LayerCount: 2
Back
SplineSet
360 225 m 1
 400 200 l 1
 400 200 400 139 400 100 c 27
 400 3 280 -150 280 -150 c 1025
480 50 m 17
 480 50 465 0 420 0 c 3
 345 0 320 40 320 40 c 9
 280 0 l 1
 280 0 263 79 240 125 c 24
 223 159 180 200 180 200 c 1025
65 30 m 25
 95 0 l 1049
65 400 m 25
 95 370 l 1049
80 385 m 9
 80 15 l 1025
160 180 m 1
 280 300 l 1
 160 400 l 1
 80 320 l 1049
EndSplineSet
Fore
SplineSet
140 143 m 1xec
 123 160 l 1
 143 180 l 1
 200 237 l 1
 242 279 l 1
 140 363 l 2
 140 363 120 343 117 340 c 2
 117 35 l 1
 132 20 l 1
 75 -37 l 1
 60 -22 l 1
 43 -5 l 1
 28 10 l 1
 43 25 l 1
 43 300 l 1
 43 365 l 1
 28 380 l 1
 85 437 l 1
 100 422 l 1
 117 405 l 1
 132 390 l 1
 117 375 l 1
 117 374 l 1
 180 437 l 1
 300 337 l 1
 317 320 l 1
 217 220 l 1
 221 216 l 2
 232 205 263 172 277 145 c 0
 291 116 303 75 310 47 c 1
 340 77 l 1
 356 61 l 2
 358 60 359 58 361 57 c 1
 362 65 363 73 363 80 c 2
 363 174 l 1
 340 188 l 1
 323 205 l 1
 380 262 l 1
 420 237 l 1
 437 220 l 1
 437 120 l 2
 437 95 429 67 417 38 c 1
 424 37 432 37 440 37 c 0
 444 37 446 37 451 38 c 2
 500 87 l 1
 517 70 l 1
 517 70 512 52 497 37 c 2
 440 -20 l 2
 431 -29 418 -37 400 -37 c 0
 393 -37 386 -37 380 -36 c 1
 349 -89 317 -130 317 -130 c 2
 260 -187 l 1
 243 -170 l 1
 243 -170 298 -99 334 -23 c 1
 321 -17 312 -10 307 -5 c 2
 300 3 l 1
 260 -37 l 1
 243 -20 l 1
 243 -20 226 59 203 105 c 0
 193 125 174 148 160 163 c 1
 140 143 l 1xec
EndSplineSet
EndChar
StartChar: um
Encoding: 42872 42872 958
Width: 320
Flags: W
HStem: -187 21G<43 80> 417 20G<160 197 294 317> 417 20G<160 197 294 317>
VStem: 43 74<-130 -14 268 300> 203 74<100 132>
LayerCount: 2
Back
SplineSet
80 -150 m 25
 80 -92 80 -58 80 0 c 3
 80 141 280 400 280 400 c 1
 280 400 242 360 220 360 c 0
 185 360 160 400 160 400 c 9
 80 320 l 1
 80 240 l 1
 240 160 l 1
 240 80 l 1
 160 0 l 17
 160 0 128 40 100 40 c 24
 72 40 40 0 40 0 c 1025
EndSplineSet
Fore
SplineSet
154 250 m 1x98
 171 278 188 303 202 323 c 1
 200 323 201 323 200 323 c 0
 181 323 166 334 155 345 c 2
 139 362 l 1
 117 340 l 1
 117 268 l 1
 154 250 l 1x98
125 76 m 1
 141 73 157 60 168 49 c 0
 169 49 l 2
 180 37 l 1
 203 60 l 1
 203 132 l 1
 154 156 l 1
 142 129 132 101 125 76 c 1
43 -14 m 2
 20 -37 l 1
 3 -20 l 2
 3 -20 7 -15 14 -8 c 2
 49 27 l 1
 58 66 77 111 99 154 c 0
 103 162 107 170 111 178 c 1
 60 203 l 1
 43 220 l 1
 43 300 l 1
 180 437 l 1
 197 420 l 2
 197 420 199 416 203 411 c 0
 212 404 226 397 240 397 c 0
 257 397 282 420 294 431 c 2
 300 437 l 1xd8
 317 420 l 1
 317 420 259 345 206 254 c 0
 202 247 196 239 192 231 c 1
 260 197 l 1
 277 180 l 1
 277 100 l 1
 140 -37 l 1
 123 -20 l 1
 123 -20 123 -19 121 -17 c 0
 120 -16 118 -14 117 -13 c 2
 117 -130 l 1
 60 -187 l 1
 43 -170 l 1
 43 -20 l 2
 43 -18 43 -16 43 -14 c 2
EndSplineSet
EndChar
StartChar: thornbar_longs
Encoding: 59189 59189 885
Width: 320
Flags: W
HStem: -227 54<19.2066 62.9271> -177 54<-62.8828 -19.1811> 407 20G<156 196> 407 20G<156 196> 448 54<36 73 127 144> 583 54<212.127 267.076>
VStem: 73 54<-162.682 -10 50.8441 302 324 356 378 448 502 554> 213 54<96 336>
LayerCount: 2
Back
SplineSet
160 475 m 25
 20 475 l 1049
-100 -200 m 17
 -100 -200 -70 -150 -40 -150 c 8
 -3 -150 3 -200 40 -200 c 24
 70 -200 100 -150 100 -150 c 1
 100 570 l 1
 180 650 l 17
 180 650 212 610 240 610 c 24
 268 610 300 650 301 650 c 1033
40 0 m 1
 40 0 77 40 100 40 c 0
 123 40 160 0 160 0 c 9
 240 80 l 1
 240 320 l 25
 160 400 l 1
 80 320 l 1049
EndSplineSet
Fore
SplineSet
24 -27 m 1x8f
 13 -16 l 1
 13 -16 15 -14 18 -11 c 2
 60 31 l 2
 63 34 68 39 73 44 c 1
 73 302 l 1
 64 293 l 1
 53 304 l 1
 73 324 l 1
 73 448 l 1
 4 448 l 1
 -7 459 l 1
 36 502 l 1
 73 502 l 1
 73 554 l 1
 196 677 l 1
 207 666 l 1
 207 666 209 663 212 659 c 0
 224 648 241 637 256 637 c 0
 271 637 286 649 298 659 c 2
 316 676 l 2
 316 677 l 0
 317 677 l 2
 328 666 l 1
 326 663 l 2
 324 661 321 658 318 655 c 2
 276 613 l 2
 264 601 243 583 224 583 c 0
 206 583 188 599 176 611 c 0
 164 623 l 1
 127 586 l 1
 127 502 l 1
 176 502 l 1
 187 491 l 1
 144 448 l 1
 127 448 l 1
 127 378 l 1
 176 427 l 1
 267 336 l 1
 267 96 l 1
 144 -27 l 1
 135 -18 l 2
 133 -16 130 -13 127 -10 c 2
 127 -134 l 2
 127 -134 118 -150 104 -164 c 2
 103 -165 l 2
 61 -207 l 2
 51 -217 37 -227 24 -227 c 0xaf
 11 -227 2 -221 -6 -213 c 2
 -17 -201 l 2
 -22 -196 -26 -191 -31 -186 c 0
 -37 -181 -46 -177 -56 -177 c 0x4f
 -61 -177 -66 -178 -71 -181 c 0
 -72 -183 -73 -184 -73 -184 c 1
 -116 -227 l 1x8f
 -127 -216 l 1
 -127 -216 -117 -199 -103 -185 c 2
 -61 -143 l 2
 -51 -133 -37 -123 -24 -123 c 0x4f
 -11 -123 -2 -129 6 -137 c 2
 17 -149 l 2
 22 -154 27 -159 31 -164 c 0
 38 -170 46 -173 56 -173 c 0
 61 -173 67 -171 71 -169 c 0
 72 -167 73 -166 73 -166 c 1
 73 11 l 1
 59 5 44 -9 34 -18 c 2
 24 -27 l 1x8f
127 64 m 1
 144 57 163 39 171 31 c 2
 176 27 l 1
 213 64 l 1
 213 304 l 2
 213 342 164 353 144 373 c 1
 127 356 l 1
 127 64 l 1
EndSplineSet
LCarets2: 1 160 
Ligature2: "Historic ligatures-1" thornbar longs
EndChar
StartChar: q_rrotunda
Encoding: 59571 59571 965
Width: 480
Flags: W
HStem: -177 21G<213 244> 407 20G<156 187 235.31 267 316 347> 407 20G<156 187 235.31 267 316 347>
VStem: 53 54<96 304> 213 54<-134 42 64 336>
LayerCount: 2
Back
SplineSet
240 80 m 9
 160 0 l 25
 80 80 l 25
 80 320 l 25
 160 400 l 1
 160 400 180 368 200 368 c 24
 220 368 240 400 240 400 c 9
 240 -150 l 1049
440 40 m 25
 400 0 l 1
 320 220 l 25
 400 300 l 1
 320 400 l 1
 280 360 l 1049
EndSplineSet
Fore
SplineSet
456 67 m 1xd8
 467 56 l 1
 384 -27 l 1
 373 -16 l 1
 293 204 l 1
 373 284 l 1
 303 372 l 1
 267 336 l 1
 267 -134 l 1
 224 -177 l 1
 213 -166 l 1
 213 42 l 1
 144 -27 l 1
 53 64 l 1
 53 304 l 1
 176 427 l 1
 187 416 l 1
 187 416 191 410 196 404 c 0
 203 399 209 395 216 395 c 0
 220 395 223 397 226 398 c 2
 256 427 l 1
 267 416 l 1
 267 358 l 1
 336 427 l 1
 347 416 l 1
 427 316 l 1
 347 236 l 1
 421 32 l 1
 456 67 l 1xd8
213 64 m 1
 213 358 l 1
 210 355 l 2
 203 348 193 341 184 341 c 0
 175 341 166 348 159 355 c 2
 148 366 l 2
 146 368 145 370 143 372 c 2
 107 336 l 1
 107 96 l 1
 176 27 l 1
 213 64 l 1
EndSplineSet
LCarets2: 1 280 
Ligature2: "Ligatures-1" q rrotunda
EndChar
StartChar: q_etfin
Encoding: 59583 59583 966
Width: 480
Flags: W
HStem: 417 20G<160 197 240 277 300 340> 417 20G<160 197 240 277 300 340>
VStem: 43 74<100 300> 203 74<-118 26 60 132 194 343> 363 74<-20 75>
CounterMasks: 1 38
LayerCount: 2
Back
SplineSet
240 80 m 9
 160 0 l 25
 80 80 l 25
 80 320 l 25
 160 400 l 1
 160 400 180 368 200 368 c 24
 220 368 240 400 240 400 c 9
 240 -150 l 1049
240 340 m 25
 300 400 l 1
 400 300 l 1
 280 180 l 1
 400 100 l 1
 400 -40 l 1
 200 -200 l 1025
EndSplineSet
Fore
SplineSet
203 26 m 1xb8
 140 -37 l 1
 43 60 l 1
 43 300 l 1
 180 437 l 1
 197 420 l 1
 197 420 199 415 203 411 c 0
 209 407 214 405 220 405 c 0
 224 405 228 407 231 408 c 2
 260 437 l 1
 277 420 l 1
 277 394 l 1
 320 437 l 1
 437 320 l 1
 320 203 l 1
 420 137 l 1
 437 120 l 1
 437 -20 l 1
 380 -77 l 1
 180 -237 l 1
 163 -220 l 1
 208 -175 l 1
 203 -170 l 1
 203 26 l 1xb8
203 320 m 1
 203 343 l 1
 196 337 188 331 180 331 c 0
 171 331 162 338 155 345 c 0
 138 361 l 1
 117 340 l 1
 117 100 l 1
 180 37 l 1
 203 60 l 1
 203 320 l 1
277 -118 m 1
 363 -48 l 1
 363 75 l 1
 277 132 l 1
 277 -118 l 1
277 194 m 1
 363 280 l 1
 280 363 l 1
 277 360 l 1
 277 194 l 1
EndSplineSet
LCarets2: 1 240 
Ligature2: "Ligatures-1" q etfin
EndChar
StartChar: q_v
Encoding: 60113 60113 967
Width: 480
Flags: W
HStem: -177 21G<213 244> 407 170G<156 187 235.31 267 419 431> 407 20G<156 187 235.31 267>
VStem: 53 54<96 304> 213 54<-134 11 96 358> 333 54<420.743 506.87> 373 54<96 394.86>
LayerCount: 2
Back
SplineSet
240 80 m 9
 160 0 l 25
 80 80 l 25
 80 320 l 25
 160 400 l 1
 160 400 180 368 200 368 c 24
 220 368 240 400 240 400 c 9
 240 -150 l 1049
240 80 m 1
 320 0 l 25
 400 80 l 1
 400 380 l 17
 400 380 360 423 360 472 c 8
 360 507 404 550 404 550 c 1033
EndSplineSet
Fore
SplineSet
213 42 m 1xda
 144 -27 l 1
 53 64 l 1
 53 304 l 1
 176 427 l 1
 187 416 l 1
 187 416 191 410 196 404 c 0
 203 399 209 395 216 395 c 0
 220 395 223 397 226 398 c 2
 256 427 l 1
 267 416 l 1
 267 96 l 1
 336 27 l 1
 373 64 l 1
 373 364 l 1xba
 373 364 333 407 333 456 c 0
 333 489 373 530 377 534 c 2
 419 576 l 2
 419 577 l 2
 420 577 l 2
 431 566 l 1
 424 559 387 520 387 488 c 0xdc
 387 439 427 396 427 396 c 1
 427 96 l 1
 304 -27 l 1
 267 11 l 1
 267 -134 l 1
 224 -177 l 1
 213 -166 l 1
 213 42 l 1xda
213 64 m 1
 213 358 l 1
 210 355 l 2
 203 348 193 341 184 341 c 0
 175 341 166 348 159 355 c 2
 148 366 l 2
 146 368 145 370 143 372 c 2
 107 336 l 1
 107 96 l 1
 176 27 l 1
 213 64 l 1
EndSplineSet
LCarets2: 1 240 
Ligature2: "Ligatures-1" q v
EndChar
StartChar: longs_h
Encoding: 60321 60321 707
Width: 520
Flags: W
HStem: -187 74<-62 -13.5> 417 20G<380 420> 417 20G<380 420>
VStem: 63 74<-157.356 550> 243 74<35 320 354 568.306> 403 74<35 348.522>
LayerCount: 2
Back
SplineSet
425 30 m 25
 455 0 l 1049
265 30 m 25
 295 0 l 1049
440 15 m 25
 440 340 l 25
 380 400 l 1
 280 300 l 1049
-100 -200 m 17
 -100 -200 -70 -150 -40 -150 c 8
 -3 -150 3 -200 40 -200 c 24
 70 -200 100 -150 100 -150 c 1
 100 570 l 1
 180 650 l 1
 180 650 202 600 280 600 c 9
 280 15 l 1025
EndSplineSet
Fore
SplineSet
-120 -237 m 1xdc
 -137 -220 l 1
 -137 -220 -127 -204 -113 -190 c 2
 -57 -133 l 2
 -56 -132 l 0
 -45 -121 -33 -113 -20 -113 c 0
 -7 -113 2 -119 10 -127 c 2
 27 -144 l 2
 27 -145 l 0
 30 -148 34 -153 37 -156 c 0
 43 -161 51 -163 60 -163 c 0
 63 -163 l 1
 63 550 l 1
 200 687 l 1
 217 670 l 1
 217 670 219 666 223 660 c 0
 239 648 263 637 300 637 c 1
 317 620 l 1
 317 354 l 1
 400 437 l 1
 477 360 l 1
 477 35 l 1
 492 20 l 1
 435 -37 l 1
 420 -22 l 1
 403 -5 l 1
 388 10 l 1
 403 25 l 1
 403 320 l 2
 403 343 372 351 360 363 c 1
 317 320 l 1
 317 35 l 1
 332 20 l 1
 275 -37 l 1
 260 -22 l 1
 243 -5 l 1
 228 10 l 1
 243 25 l 1
 243 280 l 1
 243 564 l 1
 209 568 187 582 174 594 c 0
 158 611 l 1
 137 590 l 1
 137 -130 l 1
 137 -130 127 -146 113 -160 c 2
 57 -217 l 2
 46 -228 33 -237 20 -237 c 0
 7 -237 -2 -231 -10 -223 c 2
 -27 -206 l 2
 -31 -202 -34 -198 -37 -194 c 0
 -43 -190 -51 -187 -60 -187 c 0
 -64 -187 -68 -188 -73 -190 c 2
 -120 -237 l 1xdc
EndSplineSet
LCarets2: 1 240 
Ligature2: "Ligatures-1" longs h
EndChar
StartChar: longs_l
Encoding: 60323 60323 330
Width: 360
GlyphClass: 3
Flags: W
HStem: -237 74<22.7188 56.8906> -187 74<-62 -13> 588 74<206.385 243>
VStem: 63 74<-156.367 550> 243 74<39 588>
LayerCount: 2
Back
SplineSet
-100 -200 m 17
 -100 -200 -70 -150 -40 -150 c 8
 -9.5 -150 9 -200 40 -200 c 24
 66.5 -200 100 -150 100 -150 c 1
 100 570 l 1
 180 650 l 1
 180 650 229 625 265 625 c 9
 295 595 l 1025
265 30 m 25
 295 0 l 25
 325 30 l 1049
280 610 m 9
 280 15 l 1049
EndSplineSet
Fore
SplineSet
-120 -237 m 1xb8
 -137 -220 l 1
 -137 -220 -127 -204 -113 -190 c 2
 -57 -133 l 2
 -56 -132 l 0
 -45 -121 -33 -113 -20 -113 c 0x78
 -6 -113 4 -123 15 -134 c 2
 28 -146 l 2
 38 -155 48 -163 60 -163 c 0
 63 -163 l 2
 63 550 l 1
 200 687 l 1
 200 687 249 662 285 662 c 1
 300 647 l 1
 317 630 l 1
 332 615 l 1
 317 600 l 1
 317 39 l 1
 345 67 l 1
 362 50 l 1
 275 -37 l 1
 260 -22 l 1
 243 -5 l 1
 228 10 l 1
 243 25 l 1
 243 588 l 1
 207 589 160 613 160 613 c 1
 137 590 l 1
 137 -130 l 1
 137 -130 127 -145 113 -159 c 2
 56 -216 l 2
 45 -227 32 -237 20 -237 c 0xb8
 6 -237 -5 -227 -16 -216 c 2
 -28 -204 l 2
 -38 -195 -48 -187 -60 -187 c 0x78
 -64 -187 -68 -188 -73 -190 c 2
 -120 -237 l 1xb8
EndSplineSet
LCarets2: 1 240 
Ligature2: "Ligatures-1" longs l
EndChar
StartChar: longs_p
Encoding: 60325 60325 709
Width: 520
Flags: W
HStem: -187 74<-62 -13.5> 417 20G<360 400> 417 20G<360 400> 573 74<226.318 355.75>
VStem: 63 74<-157.356 550> 243 74<-130 -23 60.2697 340> 403 74<100 334.843>
LayerCount: 2
Back
SplineSet
200 0 m 1
 200 0 237 40 260 40 c 11
 302 40 360 0 360 0 c 9
 440 80 l 1
 440 320 l 25
 360 400 l 1
 280 320 l 1049
280 380 m 1
 280 -150 l 1025
-100 -200 m 17
 -100 -200 -70 -150 -40 -150 c 8
 -3 -150 3 -200 40 -200 c 24
 70 -200 100 -150 100 -150 c 1
 100 570 l 1
 180 650 l 17
 180 650 216 610 320 610 c 3
 348 610 381 650 381 650 c 9
 240 420 l 9
 300 360 l 1025
EndSplineSet
Fore
SplineSet
-120 -237 m 1xde
 -137 -220 l 1
 -137 -220 -127 -204 -113 -190 c 2
 -57 -133 l 2
 -56 -132 l 0
 -45 -121 -33 -113 -20 -113 c 0
 -7 -113 2 -119 10 -127 c 2
 27 -144 l 2
 27 -145 l 0
 30 -148 34 -153 37 -156 c 0
 43 -161 51 -163 60 -163 c 0
 63 -163 l 1
 63 550 l 1
 200 687 l 1
 201 685 l 2
 208 678 247 647 340 647 c 0
 354 647 369 657 381 667 c 2
 401 687 l 1
 418 670 l 1
 277 440 l 2
 272 431 282 420 295 412 c 1
 300 417 l 1xbe
 317 400 l 1
 317 399 l 2
 318 398 319 398 320 397 c 2
 330 387 l 1
 380 437 l 1
 477 340 l 1
 477 100 l 1
 340 -37 l 1
 340 -37 331 -31 317 -23 c 1
 317 -130 l 1
 260 -187 l 1
 243 -170 l 1
 243 3 l 2
 242 3 241 3 240 3 c 0
 224 3 202 -16 189 -28 c 2
 180 -37 l 1
 163 -20 l 1
 163 -20 165 -18 168 -15 c 2
 224 41 l 2
 228 45 235 52 243 58 c 1
 243 300 l 1
 243 360 l 1
 203 400 l 1
 310 575 l 2
 307 574 303 573 300 573 c 0
 203 573 166 608 161 613 c 2
 160 613 l 1
 137 590 l 1
 137 -130 l 1
 137 -130 127 -146 113 -160 c 2
 57 -217 l 2
 46 -228 33 -237 20 -237 c 0
 7 -237 -2 -231 -10 -223 c 2
 -27 -206 l 2
 -31 -202 -34 -198 -37 -194 c 0
 -43 -190 -51 -187 -60 -187 c 0
 -64 -187 -68 -188 -73 -190 c 2
 -120 -237 l 1xde
317 340 m 1
 317 69 l 1
 350 57 380 37 380 37 c 0
 380 37 400 57 403 60 c 2
 403 300 l 2
 403 334 358 345 340 363 c 1
 317 340 l 1
EndSplineSet
LCarets2: 1 240 
Ligature2: "Ligatures-1" longs p
EndChar
StartChar: longs_longs
Encoding: 60326 60326 327
Width: 400
GlyphClass: 3
Flags: W
HStem: -237 74<37.2827 58.8125 174.774 214.728> -187 74<-62 -13.5> 573 74<377.428 422.096>
VStem: 63 74<-130.516 550> 223 74<-154.782 556.922>
LayerCount: 2
Back
SplineSet
100 -150 m 1
 125 -150 174 -200 200 -200 c 0
 222 -200 260 -150 260 -150 c 1
 260 570 l 1
 340 650 l 17
 340 650 372 610 400 610 c 24
 428 610 460 650 461 650 c 1033
-100 -200 m 17
 -100 -200 -70 -150 -40 -150 c 8
 -3 -150 3 -200 40 -200 c 24
 70 -200 100 -150 100 -150 c 1
 100 570 l 1
 180 650 l 1
 180 650 225 570 260 570 c 1025
EndSplineSet
Fore
SplineSet
-120 -237 m 1xb8
 -137 -220 l 1
 -137 -220 -127 -204 -113 -190 c 2
 -57 -133 l 2
 -56 -132 l 0
 -45 -121 -33 -113 -20 -113 c 0x78
 -7 -113 2 -119 10 -127 c 2
 27 -144 l 2
 27 -145 l 0
 30 -148 34 -153 37 -156 c 0
 43 -161 51 -163 60 -163 c 0
 63 -163 l 1
 63 550 l 1
 200 687 l 1
 217 670 l 1
 217 670 233 642 252 620 c 0
 262 612 271 607 280 607 c 1
 360 687 l 1
 377 670 l 1
 377 670 377 669 379 667 c 0
 391 657 406 647 420 647 c 0
 435 647 452 659 463 669 c 2
 480 686 l 2
 481 687 l 2
 498 670 l 1
 495 667 l 2
 493 665 491 662 488 659 c 2
 431 603 l 2
 419 591 399 573 380 573 c 0
 362 573 344 589 332 601 c 0
 331 601 l 2
 320 613 l 1
 297 590 l 1
 297 -130 l 2
 297 -130 287 -143 274 -156 c 2
 273 -157 l 2
 217 -213 l 2
 205 -225 191 -237 180 -237 c 0
 156 -237 112 -194 86 -188 c 1
 57 -217 l 2
 46 -228 33 -237 20 -237 c 0xb8
 7 -237 -2 -231 -10 -223 c 2
 -27 -206 l 2
 -31 -202 -34 -198 -37 -194 c 0
 -43 -190 -51 -187 -60 -187 c 0x78
 -64 -187 -68 -188 -73 -190 c 2
 -120 -237 l 1xb8
223 539 m 1
 217 543 210 548 204 554 c 2
 187 571 l 2
 175 583 164 597 156 609 c 1
 137 590 l 1
 137 -118 l 1
 163 -131 199 -163 220 -163 c 0
 221 -163 222 -163 223 -163 c 2xb8
 223 539 l 1
EndSplineSet
LCarets2: 1 240 
Ligature2: "Ligatures-1" longs longs
EndChar
StartChar: longs_longs_i
Encoding: 60327 60327 331
Width: 520
GlyphClass: 3
Flags: W
HStem: -237 74<37.2827 58.8125 174.774 214.728> -187 74<-62 -13.5> 417 20G<425 460> 417 20G<425 460> 523 21G<403 440>
VStem: 63 74<-130.516 550> 223 74<-154.782 556.922> 403 74<39 365>
LayerCount: 2
Back
SplineSet
100 -150 m 1
 125 -150 174 -200 200 -200 c 0
 222 -200 260 -150 260 -150 c 1
 260 570 l 1
 340 650 l 17
 340 650 400 600 480 600 c 1
 440 560 l 1025
-100 -200 m 1
 -100 -200 -70 -150 -40 -150 c 8
 -3 -150 3 -200 40 -200 c 24
 70 -200 100 -150 100 -150 c 1
 100 570 l 1
 180 650 l 1
 180 650 225 570 260 570 c 1025
425 400 m 25
 455 370 l 1025
440 385 m 9
 440 15 l 1025
425 30 m 25
 455 0 l 25
 485 30 l 1049
EndSplineSet
Fore
SplineSet
388 380 m 1x2f
 445 437 l 1
 460 422 l 1
 477 405 l 1
 492 390 l 1
 477 375 l 1
 477 39 l 1
 505 67 l 1
 522 50 l 1
 435 -37 l 1
 420 -22 l 1
 403 -5 l 1
 388 10 l 1
 403 25 l 1
 403 365 l 1
 388 380 l 1x2f
-120 -237 m 1x8f
 -137 -220 l 1
 -137 -220 -127 -204 -113 -190 c 2
 -57 -133 l 2
 -56 -132 l 0
 -45 -121 -33 -113 -20 -113 c 0x4f
 -7 -113 2 -119 10 -127 c 2
 27 -144 l 2
 27 -145 l 0
 30 -148 34 -153 37 -156 c 0
 43 -161 51 -163 60 -163 c 0
 63 -163 l 1
 63 550 l 1
 200 687 l 1
 217 670 l 1
 217 670 233 642 252 620 c 0
 262 612 271 607 280 607 c 1
 360 687 l 1
 360 687 420 637 500 637 c 1
 517 620 l 1
 420 523 l 1
 403 540 l 1
 429 566 l 1
 366 576 320 613 320 613 c 1
 297 590 l 1
 297 -130 l 2
 297 -130 287 -143 274 -156 c 2
 273 -157 l 2
 217 -213 l 2
 205 -225 191 -237 180 -237 c 0
 156 -237 112 -194 86 -188 c 1
 57 -217 l 2
 46 -228 33 -237 20 -237 c 0x8f
 7 -237 -2 -231 -10 -223 c 2
 -27 -206 l 2
 -31 -202 -34 -198 -37 -194 c 0
 -43 -190 -51 -187 -60 -187 c 0x4f
 -64 -187 -68 -188 -73 -190 c 2
 -120 -237 l 1x8f
223 539 m 1
 217 543 210 548 204 554 c 2
 187 571 l 2
 175 583 164 597 156 609 c 1
 137 590 l 1
 137 -118 l 1
 163 -131 199 -163 220 -163 c 0
 221 -163 222 -163 223 -163 c 2x8f
 223 539 l 1
EndSplineSet
LCarets2: 2 240 400 
Ligature2: "Ligatures-1" longs longs i
EndChar
StartChar: h_longs
Encoding: 60333 60333 515
Width: 339
Flags: W
HStem: -187 74<-62 -13.5> 417 20G<200 240> 417 20G<200 240> 573 74<217.428 262.096>
VStem: 63 74<-157.356 320 354 550> 223 74<35 348.522>
LayerCount: 2
Back
SplineSet
245 30 m 25
 275 0 l 1049
260 15 m 25
 260 340 l 25
 200 400 l 1
 100 300 l 1049
-100 -200 m 17
 -100 -200 -70 -150 -40 -150 c 8
 -3 -150 3 -200 40 -200 c 24
 70 -200 100 -150 100 -150 c 1
 100 570 l 1
 180 650 l 17
 180 650 212 610 240 610 c 24
 268 610 300 650 301 650 c 1033
EndSplineSet
Fore
SplineSet
-120 -237 m 1xdc
 -137 -220 l 1
 -137 -220 -127 -204 -113 -190 c 2
 -57 -133 l 2
 -56 -132 l 0
 -45 -121 -33 -113 -20 -113 c 0
 -7 -113 2 -119 10 -127 c 2
 27 -144 l 2
 27 -145 l 0
 30 -148 34 -153 37 -156 c 0
 43 -161 51 -163 60 -163 c 0
 63 -163 l 1
 63 280 l 1
 63 550 l 1
 200 687 l 1
 217 670 l 1
 217 670 217 669 219 667 c 0
 231 657 246 647 260 647 c 0
 275 647 292 659 303 669 c 2
 320 686 l 2
 321 687 l 2
 338 670 l 1
 335 667 l 2
 333 665 331 663 328 660 c 2
 328 659 l 2
 271 603 l 2
 259 591 239 573 220 573 c 0
 202 573 184 589 172 601 c 0
 171 601 l 2
 160 613 l 1
 137 590 l 1
 137 354 l 1
 220 437 l 1
 297 360 l 1
 297 35 l 1
 312 20 l 1
 255 -37 l 1
 240 -22 l 1
 223 -5 l 1
 208 10 l 1
 223 25 l 1
 223 320 l 2
 223 343 192 351 180 363 c 1
 137 320 l 1
 137 -130 l 1
 137 -130 127 -146 113 -160 c 2
 57 -217 l 2
 46 -228 33 -237 20 -237 c 0
 7 -237 -2 -231 -10 -223 c 2
 -27 -206 l 2
 -31 -202 -34 -198 -37 -194 c 0
 -43 -190 -51 -187 -60 -187 c 0
 -64 -187 -68 -188 -73 -190 c 2
 -120 -237 l 1xdc
EndSplineSet
LCarets2: 1 180 
Ligature2: "Historic ligatures-1" h longs
EndChar
StartChar: k_longs
Encoding: 60334 60334 566
Width: 339
Flags: W
HStem: -187 74<-62 -13.5> 442 20G<245 280> 573 74<217.428 262.096>
VStem: 63 74<-157.356 216 253 550> 223 74<35 179 370 390>
LayerCount: 2
Back
SplineSet
-100 -200 m 17
 -100 -200 -70 -150 -40 -150 c 8
 -3 -150 3 -200 40 -200 c 24
 70 -200 100 -150 100 -150 c 1
 100 570 l 1
 180 650 l 17
 180 650 212 610 240 610 c 24
 268 610 300 650 301 650 c 1033
245 30 m 25
 275 0 l 1049
180 275 m 1
 260 200 l 1
 260 15 l 1025
100 200 m 1
 260 350 l 9
 260 410 l 1049
245 425 m 25
 275 395 l 1049
EndSplineSet
Fore
SplineSet
208 405 m 1
 265 462 l 1
 280 447 l 1
 297 430 l 1
 312 415 l 1
 297 400 l 1
 297 370 l 1
 240 313 l 1
 219 294 l 1
 280 237 l 1
 297 220 l 1
 297 35 l 1
 312 20 l 1
 255 -37 l 1
 240 -22 l 1
 223 -5 l 1
 208 10 l 1
 223 25 l 1
 223 179 l 1
 160 238 l 1
 137 216 l 1
 137 -130 l 1
 137 -130 127 -146 113 -160 c 2
 57 -217 l 2
 46 -228 33 -237 20 -237 c 0
 7 -237 -2 -231 -10 -223 c 2
 -27 -206 l 2
 -31 -202 -34 -198 -37 -194 c 0
 -43 -190 -51 -187 -60 -187 c 0
 -64 -187 -68 -188 -73 -190 c 2
 -120 -237 l 1
 -137 -220 l 1
 -137 -220 -127 -204 -113 -190 c 2
 -57 -133 l 2
 -56 -132 l 0
 -45 -121 -33 -113 -20 -113 c 0
 -7 -113 2 -119 10 -127 c 2
 27 -144 l 2
 27 -145 l 0
 30 -148 34 -153 37 -156 c 0
 43 -161 51 -163 60 -163 c 0
 63 -163 l 1
 63 180 l 1
 63 550 l 1
 200 687 l 1
 217 670 l 1
 217 670 217 669 219 667 c 0
 231 657 246 647 260 647 c 0
 275 647 292 659 303 669 c 2
 320 686 l 2
 321 687 l 2
 338 670 l 1
 335 667 l 2
 333 665 331 663 328 660 c 2
 328 659 l 2
 271 603 l 2
 259 591 239 573 220 573 c 0
 202 573 184 589 172 601 c 0
 171 601 l 2
 160 613 l 1
 137 590 l 1
 137 253 l 1
 200 312 l 1
 223 334 l 1
 223 390 l 1
 208 405 l 1
EndSplineSet
LCarets2: 1 180 
Ligature2: "Historic ligatures-1" k longs
EndChar
StartChar: b_b
Encoding: 61122 61122 349
Width: 480
GlyphClass: 3
Flags: W
HStem: 417 20G<160 199.167 320 360> 417 20G<160 199.167 320 360>
VStem: 43 74<65.1574 340 374 590> 203 74<65.1574 334.843 413 590> 363 74<100 334.843>
CounterMasks: 1 38
LayerCount: 2
Back
SplineSet
225 625 m 25
 255 595 l 1049
240 610 m 9
 240 80 l 25
 320 0 l 25
 400 80 l 25
 400 320 l 25
 320 400 l 1
 240 320 l 1049
65 625 m 25
 95 595 l 1049
80 610 m 9
 80 80 l 25
 160 0 l 25
 240 80 l 25
 240 320 l 25
 160 400 l 1
 80 320 l 1049
EndSplineSet
Fore
SplineSet
117 340 m 1x38
 117 100 l 2
 117 66 162 55 180 37 c 1
 203 60 l 1
 203 300 l 2
 203 334 158 345 140 363 c 1
 117 340 l 1x38
117 374 m 1
 180 437 l 1
 203 413 l 1
 203 590 l 1
 188 605 l 1
 245 662 l 1
 260 647 l 1
 277 630 l 1
 292 615 l 1
 277 600 l 1
 277 374 l 1
 340 437 l 1xb8
 437 340 l 1
 437 100 l 1
 300 -37 l 1
 220 43 l 1
 140 -37 l 1
 43 60 l 1
 43 590 l 1
 28 605 l 1
 85 662 l 1
 100 647 l 1
 117 630 l 1
 132 615 l 1
 117 600 l 1
 117 374 l 1
277 340 m 1
 277 100 l 2
 277 66 322 55 340 37 c 1
 363 60 l 1
 363 300 l 2
 363 334 318 345 300 363 c 1
 277 340 l 1
EndSplineSet
LCarets2: 1 240 
Ligature2: "Historic ligatures-1" b b
EndChar
StartChar: c_k
Encoding: 61124 61124 439
Width: 520
Flags: W
HStem: 407 20G<156 195.744> 427 5G<156 195.744 426 456>
VStem: 53 54<64 304> 253 54<26 82 104 213 237 322 349 599> 413 54<26 184 366 399>
LayerCount: 2
Back
SplineSet
240 320 m 9
 160 400 l 25
 80 320 l 25
 80 80 l 25
 160 0 l 25
 240 80 l 1041
430 425 m 25
 450 405 l 1049
270 625 m 25
 290 605 l 1049
270 625 m 25
 290 605 l 1049
280 200 m 1
 440 350 l 9
 440 415 l 1049
360 275 m 1
 440 200 l 1
 440 10 l 1025
430 20 m 25
 450 0 l 1049
270 20 m 25
 290 0 l 1049
270 625 m 25
 290 605 l 1049
280 615 m 9
 280 10 l 1049
EndSplineSet
Fore
SplineSet
296 642 m 1xb8
 307 631 l 1
 317 621 l 1
 307 611 l 1
 307 237 l 1
 413 337 l 1
 413 399 l 1
 403 409 l 1
 446 452 l 1
 456 442 l 1
 467 431 l 1
 477 421 l 1
 467 411 l 1
 467 366 l 1
 424 323 l 1
 389 290 l 1
 456 227 l 1
 467 216 l 1
 467 26 l 1
 477 16 l 1
 434 -27 l 1
 424 -17 l 1
 413 -6 l 1
 403 4 l 1
 413 14 l 1
 413 184 l 1
 344 248 l 1
 307 213 l 1
 307 26 l 1
 317 16 l 1
 274 -27 l 1
 264 -17 l 1
 253 -6 l 1
 243 4 l 1
 253 14 l 1
 253 82 l 1
 144 -27 l 1
 53 64 l 1
 53 304 l 1
 176 427 l 1
 253 349 l 1
 253 599 l 1
 243 609 l 1
 286 652 l 1
 296 642 l 1xb8
253 184 m 1
 253 322 l 1
 224 293 l 1
 144 373 l 1
 107 336 l 1
 107 96 l 2
 107 58 156 47 176 27 c 1
 253 104 l 1
 253 184 l 1
EndSplineSet
LCarets2: 1 280 
Ligature2: "Ligatures-1" c k
EndChar
StartChar: e_y
Encoding: 61127 61127 351
Width: 480
GlyphClass: 3
Flags: W
HStem: -237 74<322.719 356.891> -187 74<238 287> 417 20G<160 200 385 420> 417 20G<160 200 385 420>
VStem: 43 74<100 300> 203 74<100 300> 363 74<-156.367 26 60 365>
CounterMasks: 1 0e
LayerCount: 2
Back
SplineSet
240 80 m 9
 160 0 l 25
 80 80 l 25
 80 320 l 25
 160 400 l 25
 240 320 l 1
 240 280 l 1025
415 370 m 25
 385 400 l 1049
200 -200 m 17
 200 -200 230 -150 260 -150 c 8
 290.5 -150 309 -200 340 -200 c 24
 366.5 -200 400 -150 400 -150 c 1
 400 385 l 1025
400 80 m 9
 320 0 l 25
 240 80 l 1
 240 320 l 1049
EndSplineSet
Fore
SplineSet
180 -237 m 1x8e
 163 -220 l 1
 163 -220 173 -204 187 -190 c 2
 243 -133 l 2
 244 -132 l 0
 255 -121 267 -113 280 -113 c 0x4e
 294 -113 304 -123 315 -134 c 2
 328 -146 l 2
 338 -155 348 -163 360 -163 c 0
 363 -163 l 2
 363 26 l 1
 300 -37 l 1
 220 43 l 1
 140 -37 l 1
 43 60 l 1
 43 300 l 1
 180 437 l 1
 260 357 l 1
 277 340 l 1
 277 300 l 1
 277 100 l 1
 340 37 l 1
 363 60 l 1
 363 365 l 1
 348 380 l 1
 405 437 l 1
 420 422 l 1
 437 405 l 1
 452 390 l 1
 437 375 l 1
 437 100 l 1
 437 -130 l 1
 437 -130 427 -145 413 -159 c 2
 356 -216 l 2
 345 -227 332 -237 320 -237 c 0xae
 306 -237 295 -227 284 -216 c 2
 272 -204 l 2
 262 -195 252 -187 240 -187 c 0x4e
 236 -187 232 -188 227 -190 c 2
 180 -237 l 1x8e
203 60 m 1
 203 260 l 1
 203 300 l 1
 140 363 l 1
 117 340 l 1
 117 100 l 1
 180 37 l 1
 203 60 l 1
EndSplineSet
LCarets2: 1 240 
Ligature2: "Historic ligatures-1" e y
EndChar
StartChar: f_r
Encoding: 61130 61130 352
Width: 440
GlyphClass: 3
Flags: W
HStem: -227 54<19.2066 62.9271> -177 54<-62.8828 -19.1811> 373 54<56 73 127 253> 407 20G<356 396> 583 54<212.127 267.076>
VStem: 73 54<-162.682 373 427 554> 253 54<26 336 358 373>
LayerCount: 2
Back
SplineSet
-100 -200 m 1
 -100 -200 -70 -150 -40 -150 c 8
 -3 -150 3 -200 40 -200 c 24
 70 -200 100 -150 100 -150 c 1
 100 570 l 1
 180 650 l 17
 180 650 212 610 240 610 c 24
 268 610 300 650 301 650 c 1025
40 400 m 1
 270 400 l 25
 290 380 l 1025
400 360 m 25
 360 400 l 25
 280 320 l 1049
270 20 m 25
 290 0 l 1049
280 390 m 9
 280 10 l 1025
EndSplineSet
Fore
SplineSet
296 417 m 1x1e
 307 406 l 1
 317 396 l 1
 307 386 l 1
 307 358 l 1
 376 427 l 1x1e
 427 376 l 1
 384 333 l 1
 344 373 l 1
 307 336 l 1
 307 26 l 1
 317 16 l 1
 274 -27 l 1
 264 -17 l 1
 253 -6 l 1
 243 4 l 1
 253 14 l 1
 253 304 l 1
 253 373 l 1
 127 373 l 1
 127 -134 l 2
 127 -134 118 -150 104 -164 c 2
 103 -165 l 2
 61 -207 l 2
 51 -217 37 -227 24 -227 c 0xae
 11 -227 2 -221 -6 -213 c 2
 -17 -201 l 2
 -22 -196 -26 -191 -31 -186 c 0
 -37 -181 -46 -177 -56 -177 c 0x4e
 -61 -177 -66 -178 -71 -181 c 0
 -72 -183 -73 -184 -73 -184 c 1
 -116 -227 l 1x8e
 -127 -216 l 1
 -127 -216 -117 -199 -103 -185 c 2
 -61 -143 l 2
 -51 -133 -37 -123 -24 -123 c 0x4e
 -11 -123 -2 -129 6 -137 c 2
 17 -149 l 2
 22 -154 27 -159 31 -164 c 0
 38 -170 46 -173 56 -173 c 0
 61 -173 67 -171 71 -169 c 0
 72 -167 73 -166 73 -166 c 1
 73 373 l 1
 24 373 l 1
 13 384 l 1
 56 427 l 1
 73 427 l 1
 73 554 l 1
 196 677 l 1
 207 666 l 1
 207 666 209 663 212 659 c 0
 224 648 241 637 256 637 c 0
 271 637 286 649 298 659 c 2
 316 676 l 2
 316 677 l 0
 317 677 l 2
 328 666 l 1
 326 663 l 2
 324 661 321 658 318 655 c 2
 276 613 l 2
 264 601 243 583 224 583 c 0
 206 583 188 599 176 611 c 0
 164 623 l 1
 127 586 l 1
 127 427 l 1xae
 286 427 l 1
 296 417 l 1x1e
EndSplineSet
LCarets2: 1 240 
Ligature2: "Ligatures-1" f r
EndChar
StartChar: f_t
Encoding: 61131 61131 326
Width: 419
GlyphClass: 3
Flags: W
HStem: -187 74<-62 -13.5> 363 74<60 63 137 223 297 340>
VStem: 63 74<-157.356 363 437 550> 223 74<37.972 363 437 540.75>
LayerCount: 2
Back
SplineSet
-100 -200 m 17
 -100 -200 -70 -150 -40 -150 c 8
 -3 -150 3 -200 40 -200 c 24
 70 -200 100 -150 100 -150 c 1
 100 570 l 1
 180 650 l 1
 180 650 225 550 260 550 c 1
 260 40 l 1
 300 0 l 1
 380 80 l 1025
40 400 m 25
 360 400 l 1049
EndSplineSet
Fore
SplineSet
3 380 m 1
 60 437 l 1
 63 437 l 1
 63 550 l 1
 200 687 l 1
 217 670 l 1
 217 670 238 623 262 594 c 0
 268 589 274 587 280 587 c 1
 297 570 l 1
 297 437 l 1
 380 437 l 1
 397 420 l 1
 340 363 l 1
 297 363 l 1
 297 60 l 2
 297 49 313 44 320 37 c 1
 400 117 l 1
 417 100 l 1
 280 -37 l 1
 223 20 l 1
 223 363 l 1
 137 363 l 1
 137 -130 l 1
 137 -130 127 -146 113 -160 c 2
 57 -217 l 2
 46 -228 33 -237 20 -237 c 0
 7 -237 -2 -231 -10 -223 c 2
 -27 -206 l 2
 -31 -202 -34 -198 -37 -194 c 0
 -43 -190 -51 -187 -60 -187 c 0
 -64 -187 -68 -188 -73 -190 c 2
 -120 -237 l 1
 -137 -220 l 1
 -137 -220 -127 -204 -113 -190 c 2
 -57 -133 l 2
 -56 -132 l 0
 -45 -121 -33 -113 -20 -113 c 0
 -7 -113 2 -119 10 -127 c 2
 27 -144 l 2
 27 -145 l 0
 30 -148 34 -153 37 -156 c 0
 43 -161 51 -163 60 -163 c 0
 63 -163 l 1
 63 363 l 1
 20 363 l 1
 3 380 l 1
137 437 m 1
 223 437 l 1
 223 520 l 2
 220 522 217 525 214 528 c 2
 197 545 l 2
 181 561 164 589 154 608 c 1
 137 590 l 1
 137 437 l 1
EndSplineSet
LCarets2: 1 240 
Ligature2: "Ligatures-1" f t
EndChar
StartChar: f_f_t
Encoding: 61134 61134 354
Width: 579
GlyphClass: 3
Flags: W
HStem: -227 54<19.2066 62.849 169.997 219.857> -177 54<-62.8828 -19.1811> 373 54<56 73 127 233 287 393 447 504>
VStem: 73 54<-137.562 373 427 554> 233 54<-158.554 373 427 561.053> 393 54<56 373 427 544.875>
CounterMasks: 1 1c
LayerCount: 2
Back
SplineSet
540 80 m 1
 460 0 l 1
 420 40 l 1
 420 550 l 1
 385 550 340 650 340 650 c 9
 260 570 l 1
 260 -150 l 1
 260 -150 222 -200 200 -200 c 0
 174 -200 125 -150 100 -150 c 1025
-100 -200 m 17
 -100 -200 -70 -150 -40 -150 c 8
 -3 -150 3 -200 40 -200 c 24
 70 -200 100 -150 100 -150 c 1
 100 570 l 1
 180 650 l 1
 180 650 225 570 260 570 c 1025
40 400 m 1
 520 400 l 1049
EndSplineSet
Fore
SplineSet
13 384 m 1xbc
 56 427 l 1
 73 427 l 1
 73 554 l 1
 196 677 l 1
 207 666 l 1
 207 666 224 635 245 612 c 0
 255 603 266 597 276 597 c 1
 356 677 l 1
 367 666 l 1
 367 666 390 615 415 586 c 0
 422 580 429 577 436 577 c 1
 447 566 l 1
 447 427 l 1
 536 427 l 1
 547 416 l 1
 504 373 l 1
 447 373 l 1
 447 56 l 1
 476 27 l 1
 556 107 l 1
 567 96 l 1
 444 -27 l 1
 393 24 l 1
 393 373 l 1
 287 373 l 1
 287 -134 l 1
 287 -134 276 -148 263 -161 c 2
 221 -204 l 2
 209 -216 194 -227 184 -227 c 0
 160 -227 116 -184 90 -178 c 1
 61 -207 l 2
 51 -217 37 -227 24 -227 c 0xbc
 11 -227 2 -221 -6 -213 c 2
 -17 -201 l 2
 -22 -196 -26 -191 -31 -186 c 0
 -37 -181 -46 -177 -56 -177 c 0x7c
 -61 -177 -66 -178 -71 -181 c 0
 -72 -183 -73 -184 -73 -184 c 1
 -116 -227 l 1xbc
 -127 -216 l 1
 -127 -216 -117 -199 -103 -185 c 2
 -61 -143 l 2
 -51 -133 -37 -123 -24 -123 c 0x7c
 -11 -123 -2 -129 6 -137 c 2
 17 -149 l 2
 22 -154 27 -159 31 -164 c 0
 38 -170 46 -173 56 -173 c 0
 61 -173 67 -171 71 -169 c 0
 72 -167 73 -166 73 -166 c 1
 73 373 l 1
 24 373 l 1
 13 384 l 1xbc
127 427 m 1
 233 427 l 1
 233 546 l 1
 225 549 216 556 208 564 c 2
 197 575 l 2
 183 589 170 607 162 620 c 1
 127 586 l 1
 127 427 l 1
127 373 m 1
 127 -126 l 1
 153 -136 194 -173 216 -173 c 0
 221 -173 225 -171 232 -167 c 0
 233 -166 l 1
 233 373 l 1
 127 373 l 1
287 427 m 1
 393 427 l 1
 393 526 l 1
 388 529 383 533 378 538 c 2
 367 549 l 2
 348 568 331 600 321 619 c 1
 287 586 l 1
 287 427 l 1
EndSplineSet
LCarets2: 2 240 400 
Ligature2: "Ligatures-1" f f t
EndChar
StartChar: f_f_y
Encoding: 61135 61135 355
Width: 680
GlyphClass: 3
Flags: W
HStem: -237 74<37.2827 58.8125 174.774 214.728 522.719 556.891> -187 74<-62 -13.5 438 487> 363 74<60 63 137 223 297 403> 417 20G<585 620> 573 74<377.428 422.096>
VStem: 63 74<-130.516 363 437 550> 223 74<-154.782 363 437 556.922> 403 74<100 363> 563 74<-156.367 26 60 365>
LayerCount: 2
Back
SplineSet
615 370 m 25
 585 400 l 1049
400 -200 m 17
 400 -200 430 -150 460 -150 c 8
 490.5 -150 509 -200 540 -200 c 24
 566.5 -200 600 -150 600 -150 c 1
 600 385 l 1025
600 80 m 9
 520 0 l 25
 440 80 l 1
 440 385 l 1049
100 -150 m 1
 125 -150 174 -200 200 -200 c 0
 222 -200 260 -150 260 -150 c 1
 260 570 l 1
 340 650 l 17
 340 650 372 610 400 610 c 24
 428 610 460 650 461 650 c 1025
-100 -200 m 1
 -100 -200 -70 -150 -40 -150 c 8
 -3 -150 3 -200 40 -200 c 24
 70 -200 100 -150 100 -150 c 1
 100 570 l 1
 180 650 l 1
 180 650 225 570 260 570 c 1025
40 400 m 1
 425 400 l 25
 455 370 l 1025
EndSplineSet
Fore
SplineSet
3 380 m 1xaf80
 60 437 l 1
 63 437 l 1
 63 550 l 1
 200 687 l 1
 217 670 l 1
 217 670 233 642 252 620 c 0
 262 612 271 607 280 607 c 1
 360 687 l 1
 377 670 l 1
 377 670 377 669 379 667 c 0
 391 657 406 647 420 647 c 0
 435 647 452 659 463 669 c 2
 480 686 l 2
 481 687 l 2
 498 670 l 1
 495 667 l 2
 493 665 491 662 488 659 c 2
 431 603 l 2
 419 591 399 573 380 573 c 0
 362 573 344 589 332 601 c 0
 331 601 l 2
 320 613 l 1
 297 590 l 1
 297 437 l 1xaf80
 445 437 l 1
 460 422 l 1
 477 405 l 1
 492 390 l 1
 477 375 l 1
 477 100 l 1
 540 37 l 1
 563 60 l 1
 563 365 l 1
 548 380 l 1
 605 437 l 1
 620 422 l 1
 637 405 l 1
 652 390 l 1
 637 375 l 1
 637 100 l 1
 637 -130 l 1
 637 -130 627 -145 613 -159 c 2
 556 -216 l 2
 545 -227 532 -237 520 -237 c 0x9f80
 506 -237 495 -227 484 -216 c 2
 472 -204 l 2
 462 -195 452 -187 440 -187 c 0x4f80
 436 -187 432 -188 427 -190 c 2
 380 -237 l 1x8f80
 363 -220 l 1
 363 -220 373 -204 387 -190 c 2
 443 -133 l 2
 444 -132 l 0
 455 -121 467 -113 480 -113 c 0x4f80
 494 -113 504 -123 515 -134 c 2
 528 -146 l 2
 538 -155 548 -163 560 -163 c 0
 563 -163 l 2
 563 26 l 1
 500 -37 l 1
 403 60 l 1
 403 363 l 1
 297 363 l 1
 297 -130 l 2
 297 -130 287 -143 274 -156 c 2
 273 -157 l 2
 217 -213 l 2
 205 -225 191 -237 180 -237 c 0
 156 -237 112 -194 86 -188 c 1
 57 -217 l 2
 46 -228 33 -237 20 -237 c 0xaf80
 7 -237 -2 -231 -10 -223 c 2
 -27 -206 l 2
 -31 -202 -34 -198 -37 -194 c 0
 -43 -190 -51 -187 -60 -187 c 0x4f80
 -64 -187 -68 -188 -73 -190 c 2
 -120 -237 l 1x8f80
 -137 -220 l 1
 -137 -220 -127 -204 -113 -190 c 2
 -57 -133 l 2
 -56 -132 l 0
 -45 -121 -33 -113 -20 -113 c 0x4f80
 -7 -113 2 -119 10 -127 c 2
 27 -144 l 2
 27 -145 l 0
 30 -148 34 -153 37 -156 c 0
 43 -161 51 -163 60 -163 c 0
 63 -163 l 1
 63 363 l 1
 20 363 l 1
 3 380 l 1xaf80
137 437 m 1
 223 437 l 1
 223 539 l 1
 217 543 210 548 204 554 c 2
 187 571 l 2
 175 583 164 597 156 609 c 1
 137 590 l 1
 137 437 l 1
137 363 m 1
 137 -118 l 1
 163 -131 199 -163 220 -163 c 0
 221 -163 222 -163 223 -163 c 2
 223 363 l 1
 137 363 l 1
EndSplineSet
LCarets2: 2 240 400 
Ligature2: "Ligatures-1" f f y
EndChar
StartChar: g_g
Encoding: 61137 61137 497
Width: 480
Flags: W
HStem: -227 54<159.207 202.818 303.925 359.816> -177 54<77.1172 120.819> 341 54<167.547 218 327.547 378> 407 20G<156 187 235.31 267 316 347 395.31 427> 407 20G<156 187 235.31 267 316 347 395.31 427>
VStem: 53 54<64 304> 213 54<-142.006 11 64 336> 373 54<-158.782 42 64 358>
CounterMasks: 1 07
LayerCount: 2
Back
SplineSet
240 -150 m 8
 279 -170 314 -200 340 -200 c 0
 362 -200 400 -150 400 -150 c 9
 400 400 l 1
 400 400 380 368 360 368 c 24
 340 368 320 400 320 400 c 1
 240 320 l 25
 240 80 l 25
 320 0 l 25
 400 80 l 1041
40 -200 m 17
 40 -200 70 -150 100 -150 c 8
 137 -150 143 -200 180 -200 c 24
 210 -200 240 -150 240 -150 c 9
 240 400 l 1
 240 400 220 368 200 368 c 24
 180 368 160 400 160 400 c 1
 80 320 l 25
 80 80 l 25
 160 0 l 25
 240 80 l 1041
EndSplineSet
Fore
SplineSet
213 358 m 1x27
 210 355 l 2
 209 354 l 0
 201 347 193 341 184 341 c 0
 175 341 166 348 159 355 c 2
 148 366 l 1
 147 367 l 0
 145 369 144 371 143 372 c 2
 107 336 l 1
 107 96 l 2
 107 58 156 47 176 27 c 1
 213 64 l 1
 213 304 l 1
 213 358 l 1x27
213 42 m 1
 144 -27 l 1
 53 64 l 1
 53 304 l 1
 176 427 l 1
 187 416 l 1
 187 416 191 410 196 404 c 0
 202 399 209 395 216 395 c 0
 220 395 222 396 226 398 c 2
 256 427 l 1
 267 416 l 1
 267 358 l 1
 336 427 l 1
 347 416 l 1
 347 416 351 410 356 404 c 0
 362 399 369 395 376 395 c 0
 380 395 382 396 386 398 c 2
 416 427 l 1
 427 416 l 1
 427 -134 l 2
 427 -134 417 -147 404 -160 c 2
 403 -161 l 2
 361 -204 l 2
 349 -216 334 -227 324 -227 c 0
 299 -227 266 -199 229 -179 c 1
 201 -207 l 2
 191 -217 177 -227 164 -227 c 0xb7
 151 -227 142 -221 134 -213 c 2
 123 -201 l 2
 118 -196 114 -191 109 -186 c 0
 103 -181 94 -177 84 -177 c 0x67
 79 -177 74 -178 69 -181 c 0
 68 -183 67 -184 67 -184 c 1
 24 -227 l 1xa7
 13 -216 l 1
 13 -216 23 -199 37 -185 c 2
 79 -143 l 2
 89 -133 103 -123 116 -123 c 0x67
 129 -123 138 -129 146 -137 c 2
 157 -149 l 2
 162 -154 167 -159 171 -164 c 0
 178 -170 186 -173 196 -173 c 0xa7
 201 -173 207 -171 211 -169 c 0
 212 -167 213 -166 213 -166 c 1
 213 42 l 1
373 358 m 1
 370 355 l 2
 369 354 l 0
 361 347 353 341 344 341 c 0
 335 341 326 348 319 355 c 2
 308 366 l 1
 307 367 l 0
 305 369 304 371 303 372 c 2
 267 336 l 1
 267 96 l 2
 267 58 316 47 336 27 c 1
 373 64 l 1
 373 358 l 1
373 42 m 1
 304 -27 l 1
 267 11 l 1
 267 -129 l 1
 301 -148 333 -173 356 -173 c 0
 361 -173 366 -171 372 -167 c 0
 372 -166 373 -166 373 -166 c 1
 373 42 l 1
EndSplineSet
LCarets2: 1 240 
Ligature2: "Historic ligatures-1" g g
EndChar
StartChar: p_p
Encoding: 61142 61142 689
Width: 480
Flags: W
HStem: -177 21G<53 84 213 244> 407 20G<66 96 156 196 316 356> 407 20G<66 96 156 196 316 356>
VStem: 53 54<-134 -1 65 336 358 374> 213 54<-134 1 64 304> 373 54<96 304>
CounterMasks: 1 1c
LayerCount: 2
Back
SplineSet
240 -150 m 1
 240 320 l 9
 320 400 l 1
 400 320 l 25
 400 80 l 1
 320 0 l 1
 320 0 293 40 220 40 c 0
 197 40 160 0 160 0 c 1
 160 0 123 40 100 40 c 0
 77 40 40 0 40 0 c 1025
240 320 m 25
 160 400 l 1
 80 320 l 1049
70 400 m 25
 90 380 l 1049
80 390 m 1
 80 -150 l 1025
EndSplineSet
Fore
SplineSet
43 384 m 1xdc
 86 427 l 1
 96 417 l 1
 107 406 l 1
 117 396 l 1
 107 386 l 1
 107 358 l 1
 176 427 l 1
 256 347 l 1
 336 427 l 1
 427 336 l 1
 427 96 l 1
 304 -27 l 1
 293 -16 l 1
 293 -16 293 -15 292 -14 c 0
 286 -9 278 -4 267 1 c 1
 267 -134 l 1
 224 -177 l 1
 213 -166 l 1
 213 13 l 2
 212 13 l 0
 209 13 207 13 204 13 c 0
 188 13 166 -7 154 -18 c 2
 144 -27 l 1
 135 -18 l 2
 128 -11 118 -2 107 5 c 1
 107 -134 l 1
 64 -177 l 1
 53 -166 l 1
 53 -1 l 1
 45 -7 39 -13 34 -18 c 2
 24 -27 l 1
 13 -16 l 2
 13 -16 14 -15 17 -12 c 2
 18 -11 l 2
 53 25 l 1
 53 304 l 1
 53 374 l 1
 43 384 l 1xdc
267 64 m 2
 270 64 272 64 274 63 c 0
 303 56 322 42 330 34 c 2
 336 27 l 1
 373 64 l 1
 373 304 l 1
 304 373 l 1
 267 336 l 1
 267 64 l 2
107 336 m 1
 107 65 l 2
 110 66 113 67 116 67 c 0
 134 67 160 43 171 32 c 0
 171 31 l 2
 176 27 l 1
 180 31 l 2
 187 38 200 51 213 59 c 1
 213 304 l 1
 144 373 l 1
 107 336 l 1
EndSplineSet
LCarets2: 1 240 
Ligature2: "Historic ligatures-1" p p
EndChar
StartChar: pfluorish_p
Encoding: 61143 61143 879
Width: 560
Flags: W
HStem: -177 21G<-7 11 133 164 293 324> 407 20G<146 176 236 276 396 436> 407 20G<146 176 236 276 396 436>
VStem: 33 54<-111.932 54.1699> 133 54<-134 15 113 336 358 374> 293 54<-134 1 64 304> 453 54<96 304>
LayerCount: 2
Back
SplineSet
320 -150 m 1
 320 320 l 9
 400 400 l 1
 480 320 l 25
 480 80 l 1
 400 0 l 1
 400 0 373 40 300 40 c 0
 277 40 240 0 240 0 c 1
 240 0 186 100 20 100 c 1
 20 100 60 44 60 0 c 3
 60 -132 20 -150 20 -150 c 1033
320 320 m 25
 240 400 l 1
 160 320 l 1049
150 400 m 25
 170 380 l 1049
160 390 m 1
 160 -150 l 1025
EndSplineSet
Fore
SplineSet
123 384 m 1xde
 166 427 l 1
 176 417 l 1
 187 406 l 1
 197 396 l 1
 187 386 l 1
 187 358 l 1
 256 427 l 1
 336 347 l 1
 416 427 l 1
 507 336 l 1
 507 96 l 1
 384 -27 l 1
 373 -16 l 1
 373 -16 373 -15 372 -14 c 0
 366 -9 358 -4 347 1 c 1
 347 -134 l 1
 304 -177 l 1
 293 -166 l 1
 293 13 l 2
 292 13 l 0
 289 13 287 13 284 13 c 0
 268 13 246 -7 234 -18 c 2
 224 -27 l 1
 213 -16 l 1
 213 -16 207 -5 195 8 c 0
 192 10 190 12 187 15 c 2
 187 -134 l 1
 144 -177 l 1
 133 -166 l 1
 133 48 l 1
 116 55 97 63 74 67 c 1
 81 50 87 33 87 16 c 0
 87 -83 64 -119 53 -130 c 2
 11 -172 l 2
 7 -176 4 -177 4 -177 c 1
 -7 -166 l 1
 6 -153 l 2
 18 -136 33 -99 33 -16 c 0
 33 28 -7 84 -7 84 c 1
 36 127 l 1
 74 127 106 121 133 113 c 1
 133 304 l 1
 133 374 l 1
 123 384 l 1xde
347 64 m 2
 350 64 352 64 354 63 c 0
 383 56 402 42 410 34 c 2
 416 27 l 1
 453 64 l 1
 453 304 l 1
 384 373 l 1
 347 336 l 1
 347 64 l 2
187 336 m 1
 187 90 l 1
 207 79 221 67 232 56 c 2
 244 45 l 2
 250 39 254 34 258 29 c 1
 260 31 l 2
 267 38 280 51 293 59 c 1
 293 304 l 1
 224 373 l 1
 187 336 l 1
EndSplineSet
LCarets2: 1 320 
Ligature2: "Ligatures-1" pflourish p
EndChar
StartChar: t_r
Encoding: 61144 61144 729
Width: 400
Flags: W
HStem: 363 74<60 63 137 203> 567 20G<100 137 320 360>
VStem: 63 74<37.972 363 437 530> 203 74<35 46 80 340>
LayerCount: 2
Back
SplineSet
360 360 m 25
 320 400 l 25
 240 320 l 1049
225 30 m 25
 255 0 l 1049
240 385 m 9
 240 15 l 1025
100 550 m 1
 100 40 l 1
 140 0 l 1
 220 80 l 1025
40 400 m 1
 225 400 l 25
 255 370 l 1025
EndSplineSet
Fore
SplineSet
3 380 m 1
 60 437 l 1
 63 437 l 1
 63 530 l 1
 120 587 l 1
 137 570 l 1
 137 437 l 1
 245 437 l 1
 260 422 l 1
 277 405 l 1
 292 390 l 1
 277 375 l 1
 277 374 l 1
 340 437 l 1
 397 380 l 1
 340 323 l 1
 300 363 l 1
 277 340 l 1
 277 35 l 1
 292 20 l 1
 235 -37 l 1
 220 -22 l 1
 203 -5 l 1
 188 10 l 1
 203 25 l 1
 203 46 l 1
 120 -37 l 1
 63 20 l 1
 63 363 l 1
 20 363 l 1
 3 380 l 1
137 363 m 1
 137 60 l 2
 137 49 153 44 160 37 c 1
 203 80 l 1
 203 300 l 1
 203 363 l 1
 137 363 l 1
EndSplineSet
LCarets2: 1 240 
Ligature2: "Ligatures-1" t r
EndChar
StartChar: t_t
Encoding: 61145 61145 730
Width: 419
Flags: W
HStem: 363 74<60 63 137 223 297 340> 567 20G<100 137 260 297>
VStem: 63 74<37.972 363 437 530> 223 74<37.972 66 100 363 437 530>
LayerCount: 2
Back
SplineSet
260 550 m 1
 260 40 l 1
 300 0 l 1
 380 80 l 1025
40 400 m 1
 360 400 l 1041
100 550 m 1
 100 40 l 1
 140 0 l 1
 220 80 l 1025
EndSplineSet
Fore
SplineSet
120 587 m 1
 137 570 l 1
 137 437 l 1
 223 437 l 1
 223 530 l 1
 280 587 l 1
 297 570 l 1
 297 437 l 1
 380 437 l 1
 397 420 l 1
 340 363 l 1
 297 363 l 1
 297 60 l 2
 297 49 313 44 320 37 c 1
 400 117 l 1
 417 100 l 1
 280 -37 l 1
 223 20 l 1
 223 66 l 1
 120 -37 l 1
 63 20 l 1
 63 363 l 1
 20 363 l 1
 3 380 l 1
 60 437 l 1
 63 437 l 1
 63 530 l 1
 120 587 l 1
137 363 m 1
 137 60 l 2
 137 49 153 44 160 37 c 1
 223 100 l 1
 223 363 l 1
 137 363 l 1
EndSplineSet
LCarets2: 1 240 
Ligature2: "Ligatures-1" t t
EndChar
StartChar: t_y
Encoding: 61147 61147 731
Width: 520
Flags: W
HStem: -237 74<362.719 396.891> -187 74<278 327> 363 74<60 63 137 243> 567 20G<100 137 425 460>
VStem: 63 74<37.972 363 437 530> 243 74<117 363> 403 74<-156.367 26 60 365>
LayerCount: 2
Back
SplineSet
455 370 m 25
 425 400 l 1049
240 -200 m 17
 240 -200 270 -150 300 -150 c 8
 330.5 -150 349 -200 380 -200 c 24
 406.5 -200 440 -150 440 -150 c 1
 440 385 l 1025
440 80 m 9
 360 0 l 25
 280 80 l 1
 280 385 l 1049
100 550 m 1
 100 40 l 1
 140 0 l 1
 220 80 l 1025
40 400 m 1
 265 400 l 1
 295 370 l 1025
EndSplineSet
Fore
SplineSet
3 380 m 1xbe
 60 437 l 1
 63 437 l 1
 63 530 l 1
 120 587 l 1
 137 570 l 1
 137 437 l 1
 285 437 l 1
 300 422 l 1
 317 405 l 1
 332 390 l 1
 317 375 l 1
 317 100 l 1
 380 37 l 1
 403 60 l 1
 403 365 l 1
 388 380 l 1
 445 437 l 1
 460 422 l 1
 477 405 l 1
 492 390 l 1
 477 375 l 1
 477 100 l 1
 477 -130 l 1
 477 -130 467 -145 453 -159 c 2
 396 -216 l 2
 385 -227 372 -237 360 -237 c 0xbe
 346 -237 335 -227 324 -216 c 2
 312 -204 l 2
 302 -195 292 -187 280 -187 c 0x7e
 276 -187 272 -188 267 -190 c 2
 220 -237 l 1xbe
 203 -220 l 1
 203 -220 213 -204 227 -190 c 2
 283 -133 l 2
 284 -132 l 0
 295 -121 307 -113 320 -113 c 0x7e
 334 -113 344 -123 355 -134 c 2
 368 -146 l 2
 378 -155 388 -163 400 -163 c 0
 403 -163 l 2
 403 26 l 1
 340 -37 l 1
 243 60 l 1
 243 86 l 1
 120 -37 l 1
 63 20 l 1
 63 363 l 1
 20 363 l 1
 3 380 l 1xbe
137 363 m 1
 137 60 l 2
 137 49 153 44 160 37 c 1
 240 117 l 1
 243 113 l 1
 243 363 l 1
 137 363 l 1
EndSplineSet
LCarets2: 1 240 
Ligature2: "Ligatures-1" t y
EndChar
StartChar: t_z
Encoding: 61148 61148 732
Width: 440
Flags: W
HStem: -237 74<287.109 314.728> -187 74<198 240.79> 313 74<137.8 265.817> 417 20G<40 63 323 360> 437 130G<40 63 100 137 323 360>
VStem: 63 74<37.972 315 437 530> 323 74<-154.554 77>
LayerCount: 2
Back
SplineSet
40 400 m 1
 40 400 61 350 200 350 c 0
 285 350 320 400 320 400 c 1
 360 360 l 1
 240 200 l 1
 360 100 l 1
 360 -150 l 1
 360 -150 322 -200 300 -200 c 0
 274 -200 257 -150 220 -150 c 16
 190 -150 160 -200 160 -200 c 1033
100 550 m 1
 100 40 l 1
 140 0 l 1
 220 80 l 1025
EndSplineSet
Fore
SplineSet
120 587 m 1xb6
 137 570 l 1
 137 394 l 1
 158 389 186 387 220 387 c 0
 272 387 306 406 323 420 c 2
 340 437 l 1
 397 380 l 1
 278 222 l 1
 380 137 l 1
 397 120 l 1
 397 -130 l 1
 397 -130 386 -144 373 -157 c 2
 317 -213 l 2
 305 -225 291 -237 280 -237 c 0xb6
 270 -237 263 -230 254 -221 c 2
 237 -204 l 2
 236 -204 l 0
 235 -202 l 0
 225 -193 214 -187 200 -187 c 0x66
 196 -187 191 -188 187 -190 c 2
 140 -237 l 1xa6
 123 -220 l 1
 123 -220 133 -204 147 -190 c 2
 203 -133 l 2
 214 -122 227 -113 240 -113 c 0x66
 257 -113 269 -123 280 -134 c 0
 281 -135 l 2
 298 -152 l 2
 298 -152 298 -152 299 -153 c 0
 306 -159 313 -163 320 -163 c 0
 321 -163 321 -163 323 -163 c 2
 323 77 l 1
 220 163 l 1
 203 180 l 1
 323 340 l 1
 301 363 l 1
 293 355 l 2
 279 341 243 313 180 313 c 0
 164 313 150 314 137 315 c 1
 137 60 l 2
 137 49 153 44 160 37 c 1
 240 117 l 1
 257 100 l 1
 120 -37 l 1
 63 20 l 1
 63 331 l 1
 45 338 34 347 28 353 c 2
 11 370 l 2
 5 376 3 380 3 380 c 1
 60 437 l 1
 63 433 l 1
 63 530 l 1
 120 587 l 1xb6
EndSplineSet
LCarets2: 1 240 
Ligature2: "Ligatures-1" t z
EndChar
StartChar: a_f
Encoding: 61347 61347 337
Width: 379
GlyphClass: 3
Flags: W
HStem: -187 74<78 126.5> 363 74<160 203 277 320> 573 74<357.428 402.096>
VStem: 43 74<80 170> 203 74<-157.356 46 80 188 263 363 437 550>
LayerCount: 2
Back
SplineSet
240 100 m 9
 140 0 l 1
 80 60 l 1
 80 190 l 1
 140 250 l 1
 140 250 155 225 200 225 c 3
 195.995781714 225 240 225 240 225 c 1033
40 -200 m 17
 40 -200 70 -150 100 -150 c 8
 137 -150 143 -200 180 -200 c 24
 210 -200 240 -150 240 -150 c 1
 240 570 l 1
 320 650 l 17
 320 650 352 610 380 610 c 24
 408 610 440 650 441 650 c 1033
340 400 m 1
 140 400 l 17
 80 340 l 1
 100 280 l 1033
EndSplineSet
Fore
SplineSet
377 420 m 1
 320 363 l 1
 277 363 l 1
 277 245 l 1
 277 120 l 1
 277 -130 l 1
 277 -130 267 -146 253 -160 c 2
 197 -217 l 2
 186 -228 173 -237 160 -237 c 0
 147 -237 138 -231 130 -223 c 2
 113 -206 l 2
 109 -202 106 -198 103 -194 c 0
 97 -190 89 -187 80 -187 c 0
 76 -187 72 -188 67 -190 c 2
 20 -237 l 1
 3 -220 l 1
 3 -220 13 -204 27 -190 c 2
 83 -133 l 2
 84 -132 l 0
 95 -121 107 -113 120 -113 c 0
 133 -113 142 -119 150 -127 c 2
 167 -144 l 2
 167 -145 l 0
 170 -148 174 -153 177 -156 c 0
 183 -161 191 -163 200 -163 c 0
 203 -163 l 1
 203 46 l 1
 120 -37 l 1
 43 40 l 1
 43 170 l 1
 160 287 l 1
 171 276 l 2
 178 271 188 265 203 263 c 1
 203 363 l 1
 120 363 l 1
 117 360 l 1
 137 300 l 1
 80 243 l 1
 63 260 l 1
 43 320 l 1
 160 437 l 1
 203 437 l 1
 203 550 l 1
 340 687 l 1
 357 670 l 1
 357 670 357 669 359 667 c 0
 371 657 386 647 400 647 c 0
 415 647 432 659 443 669 c 2
 460 686 l 2
 461 687 l 2
 478 670 l 1
 475 667 l 2
 473 665 471 662 468 659 c 2
 411 603 l 2
 399 591 379 573 360 573 c 0
 342 573 324 589 312 601 c 0
 311 601 l 2
 300 613 l 1
 277 590 l 1
 277 437 l 1
 360 437 l 1
 377 420 l 1
203 80 m 1
 203 188 l 1
 180 188 l 2
 149 188 132 201 125 208 c 2
 120 213 l 1
 117 210 l 1
 117 80 l 1
 160 37 l 1
 203 80 l 1
EndSplineSet
LCarets2: 1 240 
Ligature2: "Historic ligatures-1" a f
EndChar
StartChar: a_g
Encoding: 61349 61349 338
Width: 480
GlyphClass: 3
Flags: W
HStem: -187 74<238 286.5> 417 20G<140 240 320 357 400 437> 417 20G<140 240 320 357 400 437>
VStem: 43 74<80 170> 203 74<80 188 263 340> 363 74<-157.356 26 60 343>
CounterMasks: 1 1c
LayerCount: 2
Back
SplineSet
100 280 m 17
 80 340 l 1
 140 400 l 1
 240 375 l 1
 240 100 l 9
 140 0 l 1
 80 60 l 1
 80 190 l 1
 140 250 l 1
 140 250 155 225 200 225 c 3
 195.995781714 225 240 225 240 225 c 1033
200 -200 m 17
 200 -200 230 -150 260 -150 c 8
 297 -150 303 -200 340 -200 c 24
 370 -200 400 -150 400 -150 c 9
 400 400 l 1
 400 400 380 368 360 368 c 24
 340 368 320 400 320 400 c 1
 240 320 l 25
 240 80 l 25
 320 0 l 25
 400 80 l 1041
EndSplineSet
Fore
SplineSet
363 343 m 1x9c
 356 337 348 331 340 331 c 0
 331 331 322 338 315 345 c 2
 298 361 l 1
 277 340 l 1
 277 120 l 1
 277 100 l 2
 277 66 322 55 340 37 c 1
 363 60 l 1
 363 343 l 1x9c
363 26 m 1
 300 -37 l 1
 210 53 l 1
 120 -37 l 1
 43 40 l 1
 43 170 l 1
 160 287 l 1
 171 276 l 2
 178 271 188 265 203 263 c 1
 203 300 l 1
 203 342 l 1
 120 363 l 1
 117 360 l 1
 137 300 l 1
 80 243 l 1
 63 260 l 1
 43 320 l 1
 160 437 l 1
 260 412 l 1
 277 395 l 1
 277 374 l 1
 340 437 l 1
 357 420 l 1
 357 420 359 416 363 411 c 0
 368 407 374 405 380 405 c 0
 384 405 387 406 391 408 c 2
 420 437 l 1xdc
 437 420 l 1
 437 -130 l 1
 437 -130 427 -146 413 -160 c 2
 357 -217 l 2
 346 -228 333 -237 320 -237 c 0
 307 -237 298 -231 290 -223 c 2
 273 -206 l 2
 269 -202 266 -198 263 -194 c 0
 257 -190 249 -187 240 -187 c 0
 236 -187 232 -188 227 -190 c 2
 180 -237 l 1
 163 -220 l 1
 163 -220 173 -204 187 -190 c 2
 243 -133 l 2
 244 -132 l 0
 255 -121 267 -113 280 -113 c 0
 293 -113 302 -119 310 -127 c 2
 327 -144 l 2
 327 -145 l 0
 330 -148 334 -153 337 -156 c 0
 343 -161 351 -163 360 -163 c 0
 363 -163 l 1
 363 26 l 1
203 80 m 1
 203 188 l 1
 180 188 l 1
 149 188 132 201 125 208 c 2
 120 213 l 1
 117 210 l 1
 117 80 l 1
 160 37 l 1
 203 80 l 1
EndSplineSet
LCarets2: 1 240 
Ligature2: "Historic ligatures-1" a g
EndChar
StartChar: a_l
Encoding: 61350 61350 339
Width: 320
GlyphClass: 3
Flags: W
HStem: 198 54<159.094 213> 407 20G<136 213> 407 20G<136 213>
VStem: 53 54<76 174> 213 54<28 62 84 198 252 351 412 599>
LayerCount: 2
Back
SplineSet
100 280 m 17
 80 340 l 1
 140 400 l 1
 240 375 l 1
 240 100 l 9
 140 0 l 1
 80 60 l 1
 80 190 l 1
 140 250 l 1
 140 250 155 225 200 225 c 3
 176.991563428 225 240 225 240 225 c 1033
230 20 m 25
 250 0 l 25
 270 20 l 1049
230 625 m 25
 250 605 l 1049
240 615 m 9
 240 10 l 1049
EndSplineSet
Fore
SplineSet
256 642 m 1xd8
 267 631 l 1
 277 621 l 1
 267 611 l 1
 267 391 l 1
 267 116 l 1
 267 28 l 1
 286 47 l 1
 297 36 l 1
 234 -27 l 1
 224 -17 l 1
 213 -6 l 1
 203 4 l 1
 213 14 l 1
 213 62 l 1
 124 -27 l 1
 53 44 l 1
 53 174 l 1
 156 277 l 1
 167 266 l 2
 176 259 190 253 213 252 c 1
 213 351 l 1
 124 373 l 1
 107 356 l 1
 127 296 l 1
 84 253 l 1
 73 264 l 1
 53 324 l 1
 156 427 l 1
 213 412 l 1
 213 599 l 1
 203 609 l 1
 246 652 l 1
 256 642 l 1xd8
184 198 m 2
 183 198 184 198 183 198 c 2
 184 198 l 2
213 84 m 1
 213 198 l 1
 179 198 l 2
 151 199 136 210 129 217 c 0
 129 218 l 2
 124 223 l 1
 107 206 l 1
 107 76 l 1
 156 27 l 1
 213 84 l 1
EndSplineSet
LCarets2: 1 160 
Ligature2: "Historic ligatures-1" a l
EndChar
StartChar: a_r
Encoding: 61354 61354 343
Width: 400
GlyphClass: 3
Flags: W
HStem: 198 54<159.094 213> 407 20G<136 236 316 356> 407 20G<136 236 316 356>
VStem: 53 54<76 174> 213 54<36 62 84 198 252 336>
LayerCount: 2
Back
SplineSet
100 280 m 17
 80 340 l 1
 140 400 l 1
 240 375 l 1
 240 100 l 9
 140 0 l 1
 80 60 l 1
 80 190 l 1
 140 250 l 1
 140 250 155 225 200 225 c 3
 176.991563428 225 240 225 240 225 c 1033
300 40 m 25
 260 0 l 1
 240 20 l 1
 240 375 l 1025
360 360 m 25
 320 400 l 25
 240 320 l 1049
EndSplineSet
Fore
SplineSet
387 376 m 1xd8
 344 333 l 1
 304 373 l 1
 267 336 l 1
 267 116 l 1
 267 36 l 1
 276 27 l 1
 316 67 l 1
 327 56 l 1
 244 -27 l 1
 213 4 l 1
 213 62 l 1
 124 -27 l 1
 53 44 l 1
 53 174 l 1
 156 277 l 1
 167 266 l 2
 176 259 190 253 213 252 c 1
 213 304 l 1
 213 351 l 1
 124 373 l 1
 107 356 l 1
 127 296 l 1
 84 253 l 1
 73 264 l 1
 53 324 l 1
 156 427 l 1
 256 402 l 1
 267 391 l 1
 267 358 l 1
 336 427 l 1
 387 376 l 1xd8
184 198 m 2
 183 198 184 198 183 198 c 2
 184 198 l 2
213 84 m 1
 213 198 l 1
 179 198 l 2
 151 199 136 210 129 217 c 0
 129 218 l 2
 124 223 l 1
 107 206 l 1
 107 76 l 1
 156 27 l 1
 213 84 l 1
EndSplineSet
LCarets2: 1 240 
Ligature2: "Historic ligatures-1" a r
EndChar
